M48
; DRILL file {KiCad 5.1.10-1.fc33} date Thu Oct  7 20:02:11 2021
; FORMAT={-:-/ absolute / metric / decimal}
; #@! TF.CreationDate,2021-10-07T20:02:11-05:00
; #@! TF.GenerationSoftware,Kicad,Pcbnew,5.1.10-1.fc33
FMAT,2
METRIC
T1C0.400
%
G90
G05
T1
X120.0Y-74.0
X120.0Y-96.0
X122.5Y-78.0
X122.5Y-88.5
X122.5Y-92.0
X123.0Y-74.0
X123.0Y-96.0
X126.0Y-74.0
X126.0Y-80.0
X126.0Y-88.5
X126.0Y-96.0
X129.0Y-74.0
X129.0Y-85.5
X129.0Y-96.0
X132.0Y-74.0
X132.0Y-96.0
X135.0Y-74.0
X135.0Y-96.0
X138.0Y-74.0
X138.0Y-96.0
X141.0Y-74.0
X141.0Y-96.0
X144.0Y-74.0
X144.0Y-96.0
X147.0Y-74.0
X147.0Y-96.0
X150.0Y-74.0
X150.0Y-96.0
X153.0Y-74.0
X153.0Y-96.0
X156.0Y-74.0
X156.0Y-96.0
X159.0Y-74.0
X159.0Y-96.0
X162.0Y-74.0
X162.0Y-96.0
X165.0Y-74.0
X165.0Y-96.0
X168.0Y-74.0
X168.0Y-96.0
T0
M30
