%TF.GenerationSoftware,KiCad,Pcbnew,5.1.10-1.fc33*%
%TF.CreationDate,2021-10-10T15:03:15-05:00*%
%TF.ProjectId,serdes-rf-hdmi,73657264-6573-42d7-9266-2d68646d692e,B*%
%TF.SameCoordinates,Original*%
%TF.FileFunction,Legend,Top*%
%TF.FilePolarity,Positive*%
%FSLAX46Y46*%
G04 Gerber Fmt 4.6, Leading zero omitted, Abs format (unit mm)*
G04 Created by KiCad (PCBNEW 5.1.10-1.fc33) date 2021-10-10 15:03:15*
%MOMM*%
%LPD*%
G01*
G04 APERTURE LIST*
%ADD10C,0.150000*%
%ADD11C,0.120000*%
%ADD12C,0.200000*%
%ADD13C,0.127000*%
%ADD14C,0.010000*%
G04 APERTURE END LIST*
D10*
X139666666Y-93627380D02*
X139666666Y-92627380D01*
X139666666Y-93103571D02*
X140238095Y-93103571D01*
X140238095Y-93627380D02*
X140238095Y-92627380D01*
X140714285Y-93627380D02*
X140714285Y-92627380D01*
X140952380Y-92627380D01*
X141095238Y-92675000D01*
X141190476Y-92770238D01*
X141238095Y-92865476D01*
X141285714Y-93055952D01*
X141285714Y-93198809D01*
X141238095Y-93389285D01*
X141190476Y-93484523D01*
X141095238Y-93579761D01*
X140952380Y-93627380D01*
X140714285Y-93627380D01*
X141714285Y-93627380D02*
X141714285Y-92627380D01*
X142047619Y-93341666D01*
X142380952Y-92627380D01*
X142380952Y-93627380D01*
X142857142Y-93627380D02*
X142857142Y-92627380D01*
X144666666Y-93627380D02*
X144333333Y-93151190D01*
X144095238Y-93627380D02*
X144095238Y-92627380D01*
X144476190Y-92627380D01*
X144571428Y-92675000D01*
X144619047Y-92722619D01*
X144666666Y-92817857D01*
X144666666Y-92960714D01*
X144619047Y-93055952D01*
X144571428Y-93103571D01*
X144476190Y-93151190D01*
X144095238Y-93151190D01*
X145428571Y-93103571D02*
X145095238Y-93103571D01*
X145095238Y-93627380D02*
X145095238Y-92627380D01*
X145571428Y-92627380D01*
X146571428Y-92627380D02*
X147142857Y-92627380D01*
X146857142Y-93627380D02*
X146857142Y-92627380D01*
X147857142Y-93579761D02*
X147761904Y-93627380D01*
X147571428Y-93627380D01*
X147476190Y-93579761D01*
X147428571Y-93484523D01*
X147428571Y-93103571D01*
X147476190Y-93008333D01*
X147571428Y-92960714D01*
X147761904Y-92960714D01*
X147857142Y-93008333D01*
X147904761Y-93103571D01*
X147904761Y-93198809D01*
X147428571Y-93294047D01*
X148285714Y-93579761D02*
X148380952Y-93627380D01*
X148571428Y-93627380D01*
X148666666Y-93579761D01*
X148714285Y-93484523D01*
X148714285Y-93436904D01*
X148666666Y-93341666D01*
X148571428Y-93294047D01*
X148428571Y-93294047D01*
X148333333Y-93246428D01*
X148285714Y-93151190D01*
X148285714Y-93103571D01*
X148333333Y-93008333D01*
X148428571Y-92960714D01*
X148571428Y-92960714D01*
X148666666Y-93008333D01*
X149000000Y-92960714D02*
X149380952Y-92960714D01*
X149142857Y-92627380D02*
X149142857Y-93484523D01*
X149190476Y-93579761D01*
X149285714Y-93627380D01*
X149380952Y-93627380D01*
X150809523Y-93103571D02*
X150952380Y-93151190D01*
X151000000Y-93198809D01*
X151047619Y-93294047D01*
X151047619Y-93436904D01*
X151000000Y-93532142D01*
X150952380Y-93579761D01*
X150857142Y-93627380D01*
X150476190Y-93627380D01*
X150476190Y-92627380D01*
X150809523Y-92627380D01*
X150904761Y-92675000D01*
X150952380Y-92722619D01*
X151000000Y-92817857D01*
X151000000Y-92913095D01*
X150952380Y-93008333D01*
X150904761Y-93055952D01*
X150809523Y-93103571D01*
X150476190Y-93103571D01*
X151619047Y-93627380D02*
X151523809Y-93579761D01*
X151476190Y-93532142D01*
X151428571Y-93436904D01*
X151428571Y-93151190D01*
X151476190Y-93055952D01*
X151523809Y-93008333D01*
X151619047Y-92960714D01*
X151761904Y-92960714D01*
X151857142Y-93008333D01*
X151904761Y-93055952D01*
X151952380Y-93151190D01*
X151952380Y-93436904D01*
X151904761Y-93532142D01*
X151857142Y-93579761D01*
X151761904Y-93627380D01*
X151619047Y-93627380D01*
X152809523Y-93627380D02*
X152809523Y-93103571D01*
X152761904Y-93008333D01*
X152666666Y-92960714D01*
X152476190Y-92960714D01*
X152380952Y-93008333D01*
X152809523Y-93579761D02*
X152714285Y-93627380D01*
X152476190Y-93627380D01*
X152380952Y-93579761D01*
X152333333Y-93484523D01*
X152333333Y-93389285D01*
X152380952Y-93294047D01*
X152476190Y-93246428D01*
X152714285Y-93246428D01*
X152809523Y-93198809D01*
X153285714Y-93627380D02*
X153285714Y-92960714D01*
X153285714Y-93151190D02*
X153333333Y-93055952D01*
X153380952Y-93008333D01*
X153476190Y-92960714D01*
X153571428Y-92960714D01*
X154333333Y-93627380D02*
X154333333Y-92627380D01*
X154333333Y-93579761D02*
X154238095Y-93627380D01*
X154047619Y-93627380D01*
X153952380Y-93579761D01*
X153904761Y-93532142D01*
X153857142Y-93436904D01*
X153857142Y-93151190D01*
X153904761Y-93055952D01*
X153952380Y-93008333D01*
X154047619Y-92960714D01*
X154238095Y-92960714D01*
X154333333Y-93008333D01*
X145619047Y-95277380D02*
X145285714Y-94801190D01*
X145047619Y-95277380D02*
X145047619Y-94277380D01*
X145428571Y-94277380D01*
X145523809Y-94325000D01*
X145571428Y-94372619D01*
X145619047Y-94467857D01*
X145619047Y-94610714D01*
X145571428Y-94705952D01*
X145523809Y-94753571D01*
X145428571Y-94801190D01*
X145047619Y-94801190D01*
X146428571Y-95229761D02*
X146333333Y-95277380D01*
X146142857Y-95277380D01*
X146047619Y-95229761D01*
X146000000Y-95134523D01*
X146000000Y-94753571D01*
X146047619Y-94658333D01*
X146142857Y-94610714D01*
X146333333Y-94610714D01*
X146428571Y-94658333D01*
X146476190Y-94753571D01*
X146476190Y-94848809D01*
X146000000Y-94944047D01*
X146809523Y-94610714D02*
X147047619Y-95277380D01*
X147285714Y-94610714D01*
X148761904Y-94753571D02*
X148904761Y-94801190D01*
X148952380Y-94848809D01*
X149000000Y-94944047D01*
X149000000Y-95086904D01*
X148952380Y-95182142D01*
X148904761Y-95229761D01*
X148809523Y-95277380D01*
X148428571Y-95277380D01*
X148428571Y-94277380D01*
X148761904Y-94277380D01*
X148857142Y-94325000D01*
X148904761Y-94372619D01*
X148952380Y-94467857D01*
X148952380Y-94563095D01*
X148904761Y-94658333D01*
X148857142Y-94705952D01*
X148761904Y-94753571D01*
X148428571Y-94753571D01*
D11*
%TO.C,C11*%
X138109420Y-86740000D02*
X138390580Y-86740000D01*
X138109420Y-87760000D02*
X138390580Y-87760000D01*
%TO.C,C10*%
X138109420Y-78240000D02*
X138390580Y-78240000D01*
X138109420Y-79260000D02*
X138390580Y-79260000D01*
D12*
%TO.C,TR2*%
X130850000Y-89750000D02*
G75*
G03*
X130850000Y-89750000I-100000J0D01*
G01*
D13*
X135655000Y-90463500D02*
X131845000Y-90463500D01*
X131845000Y-86536500D02*
X135655000Y-86536500D01*
D12*
%TO.C,TR1*%
X130850000Y-81250000D02*
G75*
G03*
X130850000Y-81250000I-100000J0D01*
G01*
D13*
X135655000Y-81963500D02*
X131845000Y-81963500D01*
X131845000Y-78036500D02*
X135655000Y-78036500D01*
D11*
%TO.C,J2*%
X168290000Y-90160000D02*
X168290000Y-89050000D01*
X168290000Y-92950000D02*
X168290000Y-91840000D01*
X172000000Y-90160000D02*
X172000000Y-89050000D01*
X172000000Y-92950000D02*
X172000000Y-91840000D01*
X167740000Y-91000000D02*
X167240000Y-90750000D01*
X167240000Y-90750000D02*
X167240000Y-91250000D01*
X167240000Y-91250000D02*
X167740000Y-91000000D01*
%TO.C,R4*%
X128477064Y-87765000D02*
X128022936Y-87765000D01*
X128477064Y-89235000D02*
X128022936Y-89235000D01*
%TO.C,R3*%
X128477064Y-79265000D02*
X128022936Y-79265000D01*
X128477064Y-80735000D02*
X128022936Y-80735000D01*
%TO.C,L8*%
X152240000Y-88078733D02*
X152240000Y-88421267D01*
X153260000Y-88078733D02*
X153260000Y-88421267D01*
%TO.C,L7*%
X152240000Y-79578733D02*
X152240000Y-79921267D01*
X153260000Y-79578733D02*
X153260000Y-79921267D01*
%TO.C,L6*%
X148240000Y-88078733D02*
X148240000Y-88421267D01*
X149260000Y-88078733D02*
X149260000Y-88421267D01*
%TO.C,L5*%
X148240000Y-79578733D02*
X148240000Y-79921267D01*
X149260000Y-79578733D02*
X149260000Y-79921267D01*
%TO.C,L4*%
X144240000Y-88078733D02*
X144240000Y-88421267D01*
X145260000Y-88078733D02*
X145260000Y-88421267D01*
%TO.C,L3*%
X144240000Y-79578733D02*
X144240000Y-79921267D01*
X145260000Y-79578733D02*
X145260000Y-79921267D01*
%TO.C,L2*%
X140240000Y-88078733D02*
X140240000Y-88421267D01*
X141260000Y-88078733D02*
X141260000Y-88421267D01*
%TO.C,L1*%
X140240000Y-79578733D02*
X140240000Y-79921267D01*
X141260000Y-79578733D02*
X141260000Y-79921267D01*
%TO.C,C9*%
X154240000Y-88103733D02*
X154240000Y-88396267D01*
X155260000Y-88103733D02*
X155260000Y-88396267D01*
%TO.C,C8*%
X154240000Y-79603733D02*
X154240000Y-79896267D01*
X155260000Y-79603733D02*
X155260000Y-79896267D01*
%TO.C,C7*%
X150240000Y-88103733D02*
X150240000Y-88396267D01*
X151260000Y-88103733D02*
X151260000Y-88396267D01*
%TO.C,C6*%
X150240000Y-79603733D02*
X150240000Y-79896267D01*
X151260000Y-79603733D02*
X151260000Y-79896267D01*
%TO.C,C5*%
X146240000Y-88103733D02*
X146240000Y-88396267D01*
X147260000Y-88103733D02*
X147260000Y-88396267D01*
%TO.C,C4*%
X146240000Y-79603733D02*
X146240000Y-79896267D01*
X147260000Y-79603733D02*
X147260000Y-79896267D01*
%TO.C,C3*%
X142240000Y-88103733D02*
X142240000Y-88396267D01*
X143260000Y-88103733D02*
X143260000Y-88396267D01*
%TO.C,C2*%
X142240000Y-79603733D02*
X142240000Y-79896267D01*
X143260000Y-79603733D02*
X143260000Y-79896267D01*
D14*
%TO.C,G1*%
G36*
X159979566Y-82787021D02*
G01*
X160072770Y-82828817D01*
X160141089Y-82890670D01*
X160151669Y-82906759D01*
X160170656Y-82949199D01*
X160197550Y-83022430D01*
X160228887Y-83116467D01*
X160261206Y-83221322D01*
X160263765Y-83230000D01*
X160299540Y-83348089D01*
X160330336Y-83433725D01*
X160362268Y-83495308D01*
X160401450Y-83541238D01*
X160453997Y-83579918D01*
X160526022Y-83619747D01*
X160560041Y-83637067D01*
X160726866Y-83739732D01*
X160859432Y-83861063D01*
X160955645Y-83998590D01*
X161013410Y-84149840D01*
X161019760Y-84179367D01*
X161024182Y-84226113D01*
X161027584Y-84312296D01*
X161030014Y-84435034D01*
X161031519Y-84591443D01*
X161032144Y-84778643D01*
X161031938Y-84993749D01*
X161030946Y-85233878D01*
X161029217Y-85496150D01*
X161026796Y-85777680D01*
X161023731Y-86075586D01*
X161020069Y-86386986D01*
X161015856Y-86708996D01*
X161011139Y-87038735D01*
X161005966Y-87373319D01*
X161000383Y-87709866D01*
X160994437Y-88045493D01*
X160988175Y-88377318D01*
X160981645Y-88702458D01*
X160974891Y-89018031D01*
X160967963Y-89321153D01*
X160960906Y-89608942D01*
X160953768Y-89878515D01*
X160946595Y-90126990D01*
X160939435Y-90351484D01*
X160932334Y-90549115D01*
X160925339Y-90717000D01*
X160918497Y-90852256D01*
X160911855Y-90952000D01*
X160909054Y-90983431D01*
X160877381Y-91215727D01*
X160830549Y-91411384D01*
X160765333Y-91573513D01*
X160678509Y-91705221D01*
X160566851Y-91809620D01*
X160427134Y-91889818D01*
X160256132Y-91948925D01*
X160050621Y-91990051D01*
X159840477Y-92013687D01*
X159759607Y-92018357D01*
X159642220Y-92022317D01*
X159494123Y-92025570D01*
X159321126Y-92028119D01*
X159129038Y-92029965D01*
X158923668Y-92031111D01*
X158710825Y-92031559D01*
X158496318Y-92031313D01*
X158285956Y-92030375D01*
X158085547Y-92028747D01*
X157900902Y-92026432D01*
X157737829Y-92023432D01*
X157602137Y-92019750D01*
X157499636Y-92015388D01*
X157458968Y-92012655D01*
X157214698Y-91981965D01*
X157006721Y-91932742D01*
X156832716Y-91863808D01*
X156690361Y-91773981D01*
X156577336Y-91662083D01*
X156491320Y-91526933D01*
X156487255Y-91518654D01*
X156447280Y-91417169D01*
X156408932Y-91285200D01*
X156375055Y-91134580D01*
X156348496Y-90977142D01*
X156339213Y-90902917D01*
X156333355Y-90828170D01*
X156327655Y-90714365D01*
X156322144Y-90564777D01*
X156316854Y-90382681D01*
X156311818Y-90171352D01*
X156307066Y-89934066D01*
X156302631Y-89674096D01*
X156298544Y-89394720D01*
X156294838Y-89099211D01*
X156291543Y-88790844D01*
X156288691Y-88472896D01*
X156286315Y-88148640D01*
X156284445Y-87821352D01*
X156283115Y-87494306D01*
X156282354Y-87170779D01*
X156282196Y-86854046D01*
X156282672Y-86547380D01*
X156283814Y-86254058D01*
X156285652Y-85977354D01*
X156288220Y-85720543D01*
X156288653Y-85685334D01*
X156301316Y-84679917D01*
X156987983Y-84679917D01*
X157002871Y-86002834D01*
X157006028Y-86275254D01*
X157008978Y-86508560D01*
X157011840Y-86705969D01*
X157014731Y-86870700D01*
X157017767Y-87005970D01*
X157021065Y-87114997D01*
X157024743Y-87201000D01*
X157028918Y-87267195D01*
X157033706Y-87316800D01*
X157039224Y-87353034D01*
X157045590Y-87379115D01*
X157052921Y-87398260D01*
X157053672Y-87399834D01*
X157109499Y-87469894D01*
X157204811Y-87530695D01*
X157340042Y-87582382D01*
X157515628Y-87625104D01*
X157732002Y-87659007D01*
X157862167Y-87673334D01*
X157960792Y-87680059D01*
X158092056Y-87684823D01*
X158249187Y-87687725D01*
X158425411Y-87688865D01*
X158613955Y-87688345D01*
X158808049Y-87686263D01*
X159000918Y-87682720D01*
X159185790Y-87677817D01*
X159355893Y-87671654D01*
X159504454Y-87664330D01*
X159624701Y-87655947D01*
X159709861Y-87646604D01*
X159714250Y-87645929D01*
X159815030Y-87629015D01*
X159909784Y-87611324D01*
X159984311Y-87595585D01*
X160010584Y-87589014D01*
X160102144Y-87555699D01*
X160187294Y-87511028D01*
X160254976Y-87461932D01*
X160294137Y-87415343D01*
X160296601Y-87409713D01*
X160301422Y-87376616D01*
X160306065Y-87306023D01*
X160310492Y-87202335D01*
X160314665Y-87069953D01*
X160318546Y-86913279D01*
X160322098Y-86736716D01*
X160325283Y-86544663D01*
X160328062Y-86341524D01*
X160330399Y-86131699D01*
X160332255Y-85919590D01*
X160333593Y-85709599D01*
X160334374Y-85506127D01*
X160334561Y-85313576D01*
X160334116Y-85136348D01*
X160333001Y-84978844D01*
X160331179Y-84845466D01*
X160328611Y-84740615D01*
X160325260Y-84668692D01*
X160321088Y-84634101D01*
X160320462Y-84632535D01*
X160279152Y-84586152D01*
X160208189Y-84536143D01*
X160119000Y-84489110D01*
X160023011Y-84451652D01*
X159991374Y-84442408D01*
X159844151Y-84411279D01*
X159661752Y-84385290D01*
X159451033Y-84364543D01*
X159218851Y-84349141D01*
X158972062Y-84339187D01*
X158717522Y-84334782D01*
X158462089Y-84336031D01*
X158212617Y-84343034D01*
X157975964Y-84355895D01*
X157758987Y-84374717D01*
X157568541Y-84399602D01*
X157532527Y-84405613D01*
X157371862Y-84442184D01*
X157232196Y-84491014D01*
X157120567Y-84549102D01*
X157044011Y-84613444D01*
X157043190Y-84614413D01*
X156987983Y-84679917D01*
X156301316Y-84679917D01*
X156307982Y-84150750D01*
X156359180Y-84044917D01*
X156442949Y-83914030D01*
X156561134Y-83790504D01*
X156705818Y-83681641D01*
X156825838Y-83614549D01*
X156938095Y-83565240D01*
X157057961Y-83523224D01*
X157189530Y-83487979D01*
X157336893Y-83458981D01*
X157504145Y-83435706D01*
X157695379Y-83417633D01*
X157914688Y-83404237D01*
X158166165Y-83394996D01*
X158453904Y-83389387D01*
X158599437Y-83387883D01*
X158775433Y-83386296D01*
X158937586Y-83384474D01*
X159081144Y-83382498D01*
X159201357Y-83380448D01*
X159293476Y-83378407D01*
X159352750Y-83376454D01*
X159374426Y-83374675D01*
X159383097Y-83352877D01*
X159401859Y-83299507D01*
X159427710Y-83223250D01*
X159450058Y-83155917D01*
X159490254Y-83038270D01*
X159523925Y-82953779D01*
X159555745Y-82894777D01*
X159590390Y-82853595D01*
X159632534Y-82822565D01*
X159663724Y-82805448D01*
X159763734Y-82772988D01*
X159872784Y-82767628D01*
X159979566Y-82787021D01*
G37*
X159979566Y-82787021D02*
X160072770Y-82828817D01*
X160141089Y-82890670D01*
X160151669Y-82906759D01*
X160170656Y-82949199D01*
X160197550Y-83022430D01*
X160228887Y-83116467D01*
X160261206Y-83221322D01*
X160263765Y-83230000D01*
X160299540Y-83348089D01*
X160330336Y-83433725D01*
X160362268Y-83495308D01*
X160401450Y-83541238D01*
X160453997Y-83579918D01*
X160526022Y-83619747D01*
X160560041Y-83637067D01*
X160726866Y-83739732D01*
X160859432Y-83861063D01*
X160955645Y-83998590D01*
X161013410Y-84149840D01*
X161019760Y-84179367D01*
X161024182Y-84226113D01*
X161027584Y-84312296D01*
X161030014Y-84435034D01*
X161031519Y-84591443D01*
X161032144Y-84778643D01*
X161031938Y-84993749D01*
X161030946Y-85233878D01*
X161029217Y-85496150D01*
X161026796Y-85777680D01*
X161023731Y-86075586D01*
X161020069Y-86386986D01*
X161015856Y-86708996D01*
X161011139Y-87038735D01*
X161005966Y-87373319D01*
X161000383Y-87709866D01*
X160994437Y-88045493D01*
X160988175Y-88377318D01*
X160981645Y-88702458D01*
X160974891Y-89018031D01*
X160967963Y-89321153D01*
X160960906Y-89608942D01*
X160953768Y-89878515D01*
X160946595Y-90126990D01*
X160939435Y-90351484D01*
X160932334Y-90549115D01*
X160925339Y-90717000D01*
X160918497Y-90852256D01*
X160911855Y-90952000D01*
X160909054Y-90983431D01*
X160877381Y-91215727D01*
X160830549Y-91411384D01*
X160765333Y-91573513D01*
X160678509Y-91705221D01*
X160566851Y-91809620D01*
X160427134Y-91889818D01*
X160256132Y-91948925D01*
X160050621Y-91990051D01*
X159840477Y-92013687D01*
X159759607Y-92018357D01*
X159642220Y-92022317D01*
X159494123Y-92025570D01*
X159321126Y-92028119D01*
X159129038Y-92029965D01*
X158923668Y-92031111D01*
X158710825Y-92031559D01*
X158496318Y-92031313D01*
X158285956Y-92030375D01*
X158085547Y-92028747D01*
X157900902Y-92026432D01*
X157737829Y-92023432D01*
X157602137Y-92019750D01*
X157499636Y-92015388D01*
X157458968Y-92012655D01*
X157214698Y-91981965D01*
X157006721Y-91932742D01*
X156832716Y-91863808D01*
X156690361Y-91773981D01*
X156577336Y-91662083D01*
X156491320Y-91526933D01*
X156487255Y-91518654D01*
X156447280Y-91417169D01*
X156408932Y-91285200D01*
X156375055Y-91134580D01*
X156348496Y-90977142D01*
X156339213Y-90902917D01*
X156333355Y-90828170D01*
X156327655Y-90714365D01*
X156322144Y-90564777D01*
X156316854Y-90382681D01*
X156311818Y-90171352D01*
X156307066Y-89934066D01*
X156302631Y-89674096D01*
X156298544Y-89394720D01*
X156294838Y-89099211D01*
X156291543Y-88790844D01*
X156288691Y-88472896D01*
X156286315Y-88148640D01*
X156284445Y-87821352D01*
X156283115Y-87494306D01*
X156282354Y-87170779D01*
X156282196Y-86854046D01*
X156282672Y-86547380D01*
X156283814Y-86254058D01*
X156285652Y-85977354D01*
X156288220Y-85720543D01*
X156288653Y-85685334D01*
X156301316Y-84679917D01*
X156987983Y-84679917D01*
X157002871Y-86002834D01*
X157006028Y-86275254D01*
X157008978Y-86508560D01*
X157011840Y-86705969D01*
X157014731Y-86870700D01*
X157017767Y-87005970D01*
X157021065Y-87114997D01*
X157024743Y-87201000D01*
X157028918Y-87267195D01*
X157033706Y-87316800D01*
X157039224Y-87353034D01*
X157045590Y-87379115D01*
X157052921Y-87398260D01*
X157053672Y-87399834D01*
X157109499Y-87469894D01*
X157204811Y-87530695D01*
X157340042Y-87582382D01*
X157515628Y-87625104D01*
X157732002Y-87659007D01*
X157862167Y-87673334D01*
X157960792Y-87680059D01*
X158092056Y-87684823D01*
X158249187Y-87687725D01*
X158425411Y-87688865D01*
X158613955Y-87688345D01*
X158808049Y-87686263D01*
X159000918Y-87682720D01*
X159185790Y-87677817D01*
X159355893Y-87671654D01*
X159504454Y-87664330D01*
X159624701Y-87655947D01*
X159709861Y-87646604D01*
X159714250Y-87645929D01*
X159815030Y-87629015D01*
X159909784Y-87611324D01*
X159984311Y-87595585D01*
X160010584Y-87589014D01*
X160102144Y-87555699D01*
X160187294Y-87511028D01*
X160254976Y-87461932D01*
X160294137Y-87415343D01*
X160296601Y-87409713D01*
X160301422Y-87376616D01*
X160306065Y-87306023D01*
X160310492Y-87202335D01*
X160314665Y-87069953D01*
X160318546Y-86913279D01*
X160322098Y-86736716D01*
X160325283Y-86544663D01*
X160328062Y-86341524D01*
X160330399Y-86131699D01*
X160332255Y-85919590D01*
X160333593Y-85709599D01*
X160334374Y-85506127D01*
X160334561Y-85313576D01*
X160334116Y-85136348D01*
X160333001Y-84978844D01*
X160331179Y-84845466D01*
X160328611Y-84740615D01*
X160325260Y-84668692D01*
X160321088Y-84634101D01*
X160320462Y-84632535D01*
X160279152Y-84586152D01*
X160208189Y-84536143D01*
X160119000Y-84489110D01*
X160023011Y-84451652D01*
X159991374Y-84442408D01*
X159844151Y-84411279D01*
X159661752Y-84385290D01*
X159451033Y-84364543D01*
X159218851Y-84349141D01*
X158972062Y-84339187D01*
X158717522Y-84334782D01*
X158462089Y-84336031D01*
X158212617Y-84343034D01*
X157975964Y-84355895D01*
X157758987Y-84374717D01*
X157568541Y-84399602D01*
X157532527Y-84405613D01*
X157371862Y-84442184D01*
X157232196Y-84491014D01*
X157120567Y-84549102D01*
X157044011Y-84613444D01*
X157043190Y-84614413D01*
X156987983Y-84679917D01*
X156301316Y-84679917D01*
X156307982Y-84150750D01*
X156359180Y-84044917D01*
X156442949Y-83914030D01*
X156561134Y-83790504D01*
X156705818Y-83681641D01*
X156825838Y-83614549D01*
X156938095Y-83565240D01*
X157057961Y-83523224D01*
X157189530Y-83487979D01*
X157336893Y-83458981D01*
X157504145Y-83435706D01*
X157695379Y-83417633D01*
X157914688Y-83404237D01*
X158166165Y-83394996D01*
X158453904Y-83389387D01*
X158599437Y-83387883D01*
X158775433Y-83386296D01*
X158937586Y-83384474D01*
X159081144Y-83382498D01*
X159201357Y-83380448D01*
X159293476Y-83378407D01*
X159352750Y-83376454D01*
X159374426Y-83374675D01*
X159383097Y-83352877D01*
X159401859Y-83299507D01*
X159427710Y-83223250D01*
X159450058Y-83155917D01*
X159490254Y-83038270D01*
X159523925Y-82953779D01*
X159555745Y-82894777D01*
X159590390Y-82853595D01*
X159632534Y-82822565D01*
X159663724Y-82805448D01*
X159763734Y-82772988D01*
X159872784Y-82767628D01*
X159979566Y-82787021D01*
G36*
X160794979Y-80626671D02*
G01*
X160836084Y-80629604D01*
X161152095Y-80674581D01*
X161455115Y-80759528D01*
X161743249Y-80883565D01*
X162014606Y-81045811D01*
X162267292Y-81245384D01*
X162371898Y-81344621D01*
X162587208Y-81588287D01*
X162764012Y-81849524D01*
X162902443Y-82128605D01*
X163002634Y-82425803D01*
X163064716Y-82741391D01*
X163070076Y-82784480D01*
X163083837Y-82960852D01*
X163079539Y-83102951D01*
X163056791Y-83214973D01*
X163022826Y-83289400D01*
X162945099Y-83377256D01*
X162842161Y-83439395D01*
X162725524Y-83471169D01*
X162606696Y-83467929D01*
X162589915Y-83464264D01*
X162490434Y-83430020D01*
X162412583Y-83378486D01*
X162353039Y-83304468D01*
X162308480Y-83202776D01*
X162275583Y-83068219D01*
X162256682Y-82943535D01*
X162239926Y-82829302D01*
X162219179Y-82716410D01*
X162197342Y-82619441D01*
X162181077Y-82563250D01*
X162075491Y-82319386D01*
X161937136Y-82100154D01*
X161769106Y-81908036D01*
X161574498Y-81745513D01*
X161356405Y-81615065D01*
X161117923Y-81519175D01*
X160862146Y-81460323D01*
X160794394Y-81451526D01*
X160700613Y-81440630D01*
X160615814Y-81429736D01*
X160553981Y-81420676D01*
X160539750Y-81418160D01*
X160428851Y-81377271D01*
X160340725Y-81306993D01*
X160277494Y-81214894D01*
X160241282Y-81108541D01*
X160234212Y-80995501D01*
X160258408Y-80883341D01*
X160315994Y-80779629D01*
X160349810Y-80741243D01*
X160413006Y-80686803D01*
X160480423Y-80650122D01*
X160560759Y-80629205D01*
X160662711Y-80622053D01*
X160794979Y-80626671D01*
G37*
X160794979Y-80626671D02*
X160836084Y-80629604D01*
X161152095Y-80674581D01*
X161455115Y-80759528D01*
X161743249Y-80883565D01*
X162014606Y-81045811D01*
X162267292Y-81245384D01*
X162371898Y-81344621D01*
X162587208Y-81588287D01*
X162764012Y-81849524D01*
X162902443Y-82128605D01*
X163002634Y-82425803D01*
X163064716Y-82741391D01*
X163070076Y-82784480D01*
X163083837Y-82960852D01*
X163079539Y-83102951D01*
X163056791Y-83214973D01*
X163022826Y-83289400D01*
X162945099Y-83377256D01*
X162842161Y-83439395D01*
X162725524Y-83471169D01*
X162606696Y-83467929D01*
X162589915Y-83464264D01*
X162490434Y-83430020D01*
X162412583Y-83378486D01*
X162353039Y-83304468D01*
X162308480Y-83202776D01*
X162275583Y-83068219D01*
X162256682Y-82943535D01*
X162239926Y-82829302D01*
X162219179Y-82716410D01*
X162197342Y-82619441D01*
X162181077Y-82563250D01*
X162075491Y-82319386D01*
X161937136Y-82100154D01*
X161769106Y-81908036D01*
X161574498Y-81745513D01*
X161356405Y-81615065D01*
X161117923Y-81519175D01*
X160862146Y-81460323D01*
X160794394Y-81451526D01*
X160700613Y-81440630D01*
X160615814Y-81429736D01*
X160553981Y-81420676D01*
X160539750Y-81418160D01*
X160428851Y-81377271D01*
X160340725Y-81306993D01*
X160277494Y-81214894D01*
X160241282Y-81108541D01*
X160234212Y-80995501D01*
X160258408Y-80883341D01*
X160315994Y-80779629D01*
X160349810Y-80741243D01*
X160413006Y-80686803D01*
X160480423Y-80650122D01*
X160560759Y-80629205D01*
X160662711Y-80622053D01*
X160794979Y-80626671D01*
G36*
X160875956Y-78576599D02*
G01*
X161052938Y-78588621D01*
X161242751Y-78610448D01*
X161439801Y-78641779D01*
X161638494Y-78682317D01*
X161725084Y-78703014D01*
X162143783Y-78829209D01*
X162543426Y-78992638D01*
X162922303Y-79191918D01*
X163278704Y-79425666D01*
X163610919Y-79692501D01*
X163917237Y-79991040D01*
X164195948Y-80319899D01*
X164445343Y-80677697D01*
X164663710Y-81063051D01*
X164677062Y-81089566D01*
X164811550Y-81393569D01*
X164925820Y-81723012D01*
X165017011Y-82066316D01*
X165082263Y-82411899D01*
X165118715Y-82748181D01*
X165125154Y-82903606D01*
X165126264Y-83016104D01*
X165124163Y-83096620D01*
X165117588Y-83155460D01*
X165105273Y-83202931D01*
X165085954Y-83249338D01*
X165081599Y-83258447D01*
X165014110Y-83352037D01*
X164918908Y-83422235D01*
X164806199Y-83464468D01*
X164686190Y-83474166D01*
X164622053Y-83464292D01*
X164518570Y-83419200D01*
X164426726Y-83342280D01*
X164380461Y-83281236D01*
X164360926Y-83242853D01*
X164345279Y-83193692D01*
X164332078Y-83126140D01*
X164319882Y-83032586D01*
X164307249Y-82905415D01*
X164305386Y-82884740D01*
X164289818Y-82718881D01*
X164275127Y-82584800D01*
X164259689Y-82472016D01*
X164241880Y-82370047D01*
X164220076Y-82268414D01*
X164192653Y-82156633D01*
X164192448Y-82155833D01*
X164076867Y-81787605D01*
X163924222Y-81436826D01*
X163736959Y-81105824D01*
X163517527Y-80796925D01*
X163268372Y-80512455D01*
X162991943Y-80254740D01*
X162690687Y-80026107D01*
X162367051Y-79828883D01*
X162023483Y-79665393D01*
X161662431Y-79537964D01*
X161359136Y-79462837D01*
X161247553Y-79443309D01*
X161112096Y-79424097D01*
X160971176Y-79407614D01*
X160861720Y-79397618D01*
X160714710Y-79385170D01*
X160602813Y-79371919D01*
X160518822Y-79355946D01*
X160455531Y-79335335D01*
X160405733Y-79308168D01*
X160362221Y-79272528D01*
X160351202Y-79261791D01*
X160277425Y-79163142D01*
X160240836Y-79049516D01*
X160239226Y-78919682D01*
X160268702Y-78798275D01*
X160332015Y-78699230D01*
X160408193Y-78632542D01*
X160477922Y-78602353D01*
X160582854Y-78583166D01*
X160717396Y-78574681D01*
X160875956Y-78576599D01*
G37*
X160875956Y-78576599D02*
X161052938Y-78588621D01*
X161242751Y-78610448D01*
X161439801Y-78641779D01*
X161638494Y-78682317D01*
X161725084Y-78703014D01*
X162143783Y-78829209D01*
X162543426Y-78992638D01*
X162922303Y-79191918D01*
X163278704Y-79425666D01*
X163610919Y-79692501D01*
X163917237Y-79991040D01*
X164195948Y-80319899D01*
X164445343Y-80677697D01*
X164663710Y-81063051D01*
X164677062Y-81089566D01*
X164811550Y-81393569D01*
X164925820Y-81723012D01*
X165017011Y-82066316D01*
X165082263Y-82411899D01*
X165118715Y-82748181D01*
X165125154Y-82903606D01*
X165126264Y-83016104D01*
X165124163Y-83096620D01*
X165117588Y-83155460D01*
X165105273Y-83202931D01*
X165085954Y-83249338D01*
X165081599Y-83258447D01*
X165014110Y-83352037D01*
X164918908Y-83422235D01*
X164806199Y-83464468D01*
X164686190Y-83474166D01*
X164622053Y-83464292D01*
X164518570Y-83419200D01*
X164426726Y-83342280D01*
X164380461Y-83281236D01*
X164360926Y-83242853D01*
X164345279Y-83193692D01*
X164332078Y-83126140D01*
X164319882Y-83032586D01*
X164307249Y-82905415D01*
X164305386Y-82884740D01*
X164289818Y-82718881D01*
X164275127Y-82584800D01*
X164259689Y-82472016D01*
X164241880Y-82370047D01*
X164220076Y-82268414D01*
X164192653Y-82156633D01*
X164192448Y-82155833D01*
X164076867Y-81787605D01*
X163924222Y-81436826D01*
X163736959Y-81105824D01*
X163517527Y-80796925D01*
X163268372Y-80512455D01*
X162991943Y-80254740D01*
X162690687Y-80026107D01*
X162367051Y-79828883D01*
X162023483Y-79665393D01*
X161662431Y-79537964D01*
X161359136Y-79462837D01*
X161247553Y-79443309D01*
X161112096Y-79424097D01*
X160971176Y-79407614D01*
X160861720Y-79397618D01*
X160714710Y-79385170D01*
X160602813Y-79371919D01*
X160518822Y-79355946D01*
X160455531Y-79335335D01*
X160405733Y-79308168D01*
X160362221Y-79272528D01*
X160351202Y-79261791D01*
X160277425Y-79163142D01*
X160240836Y-79049516D01*
X160239226Y-78919682D01*
X160268702Y-78798275D01*
X160332015Y-78699230D01*
X160408193Y-78632542D01*
X160477922Y-78602353D01*
X160582854Y-78583166D01*
X160717396Y-78574681D01*
X160875956Y-78576599D01*
G36*
X160855647Y-76535669D02*
G01*
X161343042Y-76563230D01*
X161829713Y-76631866D01*
X162312689Y-76740380D01*
X162788997Y-76887571D01*
X163255667Y-77072243D01*
X163709727Y-77293196D01*
X164148203Y-77549232D01*
X164568126Y-77839152D01*
X164966522Y-78161760D01*
X165031907Y-78219778D01*
X165387096Y-78566165D01*
X165714402Y-78940217D01*
X166012336Y-79338707D01*
X166279406Y-79758405D01*
X166514122Y-80196084D01*
X166714993Y-80648514D01*
X166880529Y-81112467D01*
X167009238Y-81584714D01*
X167099631Y-82062028D01*
X167150216Y-82541179D01*
X167160868Y-82830909D01*
X167164917Y-83225567D01*
X167099173Y-83307159D01*
X167000314Y-83400669D01*
X166886598Y-83457581D01*
X166763750Y-83475773D01*
X166675219Y-83464292D01*
X166574128Y-83421021D01*
X166483322Y-83348853D01*
X166414495Y-83258923D01*
X166384638Y-83187667D01*
X166378547Y-83148858D01*
X166370989Y-83076393D01*
X166362722Y-82978893D01*
X166354506Y-82864977D01*
X166350141Y-82796084D01*
X166339724Y-82652364D01*
X166325509Y-82496807D01*
X166309200Y-82346192D01*
X166292503Y-82217296D01*
X166288840Y-82192834D01*
X166194346Y-81716993D01*
X166061444Y-81256222D01*
X165891901Y-80812280D01*
X165687484Y-80386923D01*
X165449959Y-79981907D01*
X165181093Y-79598991D01*
X164882653Y-79239931D01*
X164556405Y-78906485D01*
X164204117Y-78600408D01*
X163827556Y-78323460D01*
X163428487Y-78077396D01*
X163008678Y-77863974D01*
X162569895Y-77684950D01*
X162113905Y-77542083D01*
X161642476Y-77437129D01*
X161480302Y-77410589D01*
X161349159Y-77393254D01*
X161193835Y-77376121D01*
X161032451Y-77361011D01*
X160883129Y-77349747D01*
X160862616Y-77348485D01*
X160711504Y-77337909D01*
X160595461Y-77324894D01*
X160507223Y-77307086D01*
X160439524Y-77282132D01*
X160385100Y-77247676D01*
X160336687Y-77201366D01*
X160309372Y-77169227D01*
X160268604Y-77108521D01*
X160246519Y-77042854D01*
X160236994Y-76965521D01*
X160245096Y-76829278D01*
X160290229Y-76713051D01*
X160371960Y-76617793D01*
X160406600Y-76591321D01*
X160494211Y-76530750D01*
X160855647Y-76535669D01*
G37*
X160855647Y-76535669D02*
X161343042Y-76563230D01*
X161829713Y-76631866D01*
X162312689Y-76740380D01*
X162788997Y-76887571D01*
X163255667Y-77072243D01*
X163709727Y-77293196D01*
X164148203Y-77549232D01*
X164568126Y-77839152D01*
X164966522Y-78161760D01*
X165031907Y-78219778D01*
X165387096Y-78566165D01*
X165714402Y-78940217D01*
X166012336Y-79338707D01*
X166279406Y-79758405D01*
X166514122Y-80196084D01*
X166714993Y-80648514D01*
X166880529Y-81112467D01*
X167009238Y-81584714D01*
X167099631Y-82062028D01*
X167150216Y-82541179D01*
X167160868Y-82830909D01*
X167164917Y-83225567D01*
X167099173Y-83307159D01*
X167000314Y-83400669D01*
X166886598Y-83457581D01*
X166763750Y-83475773D01*
X166675219Y-83464292D01*
X166574128Y-83421021D01*
X166483322Y-83348853D01*
X166414495Y-83258923D01*
X166384638Y-83187667D01*
X166378547Y-83148858D01*
X166370989Y-83076393D01*
X166362722Y-82978893D01*
X166354506Y-82864977D01*
X166350141Y-82796084D01*
X166339724Y-82652364D01*
X166325509Y-82496807D01*
X166309200Y-82346192D01*
X166292503Y-82217296D01*
X166288840Y-82192834D01*
X166194346Y-81716993D01*
X166061444Y-81256222D01*
X165891901Y-80812280D01*
X165687484Y-80386923D01*
X165449959Y-79981907D01*
X165181093Y-79598991D01*
X164882653Y-79239931D01*
X164556405Y-78906485D01*
X164204117Y-78600408D01*
X163827556Y-78323460D01*
X163428487Y-78077396D01*
X163008678Y-77863974D01*
X162569895Y-77684950D01*
X162113905Y-77542083D01*
X161642476Y-77437129D01*
X161480302Y-77410589D01*
X161349159Y-77393254D01*
X161193835Y-77376121D01*
X161032451Y-77361011D01*
X160883129Y-77349747D01*
X160862616Y-77348485D01*
X160711504Y-77337909D01*
X160595461Y-77324894D01*
X160507223Y-77307086D01*
X160439524Y-77282132D01*
X160385100Y-77247676D01*
X160336687Y-77201366D01*
X160309372Y-77169227D01*
X160268604Y-77108521D01*
X160246519Y-77042854D01*
X160236994Y-76965521D01*
X160245096Y-76829278D01*
X160290229Y-76713051D01*
X160371960Y-76617793D01*
X160406600Y-76591321D01*
X160494211Y-76530750D01*
X160855647Y-76535669D01*
D11*
%TO.C,J3*%
X168290000Y-78160000D02*
X168290000Y-77050000D01*
X168290000Y-80950000D02*
X168290000Y-79840000D01*
X172000000Y-78160000D02*
X172000000Y-77050000D01*
X172000000Y-80950000D02*
X172000000Y-79840000D01*
X167740000Y-79000000D02*
X167240000Y-78750000D01*
X167240000Y-78750000D02*
X167240000Y-79250000D01*
X167240000Y-79250000D02*
X167740000Y-79000000D01*
%TO.C,J1*%
X118710000Y-78790000D02*
X118710000Y-79990000D01*
X121460000Y-78790000D02*
X118710000Y-78790000D01*
X121460000Y-92340000D02*
X121460000Y-91210000D01*
X118710000Y-77660000D02*
X121460000Y-77660000D01*
X118710000Y-92340000D02*
X121460000Y-92340000D01*
X121460000Y-77660000D02*
X121460000Y-78790000D01*
X121460000Y-91210000D02*
X118710000Y-91210000D01*
X118710000Y-91210000D02*
X118710000Y-90010000D01*
X118710000Y-79990000D02*
X121340000Y-79990000D01*
%TO.C,C11*%
D10*
X137607142Y-86177142D02*
X137559523Y-86224761D01*
X137416666Y-86272380D01*
X137321428Y-86272380D01*
X137178571Y-86224761D01*
X137083333Y-86129523D01*
X137035714Y-86034285D01*
X136988095Y-85843809D01*
X136988095Y-85700952D01*
X137035714Y-85510476D01*
X137083333Y-85415238D01*
X137178571Y-85320000D01*
X137321428Y-85272380D01*
X137416666Y-85272380D01*
X137559523Y-85320000D01*
X137607142Y-85367619D01*
X138559523Y-86272380D02*
X137988095Y-86272380D01*
X138273809Y-86272380D02*
X138273809Y-85272380D01*
X138178571Y-85415238D01*
X138083333Y-85510476D01*
X137988095Y-85558095D01*
X139511904Y-86272380D02*
X138940476Y-86272380D01*
X139226190Y-86272380D02*
X139226190Y-85272380D01*
X139130952Y-85415238D01*
X139035714Y-85510476D01*
X138940476Y-85558095D01*
%TO.C,C10*%
X137607142Y-77677142D02*
X137559523Y-77724761D01*
X137416666Y-77772380D01*
X137321428Y-77772380D01*
X137178571Y-77724761D01*
X137083333Y-77629523D01*
X137035714Y-77534285D01*
X136988095Y-77343809D01*
X136988095Y-77200952D01*
X137035714Y-77010476D01*
X137083333Y-76915238D01*
X137178571Y-76820000D01*
X137321428Y-76772380D01*
X137416666Y-76772380D01*
X137559523Y-76820000D01*
X137607142Y-76867619D01*
X138559523Y-77772380D02*
X137988095Y-77772380D01*
X138273809Y-77772380D02*
X138273809Y-76772380D01*
X138178571Y-76915238D01*
X138083333Y-77010476D01*
X137988095Y-77058095D01*
X139178571Y-76772380D02*
X139273809Y-76772380D01*
X139369047Y-76820000D01*
X139416666Y-76867619D01*
X139464285Y-76962857D01*
X139511904Y-77153333D01*
X139511904Y-77391428D01*
X139464285Y-77581904D01*
X139416666Y-77677142D01*
X139369047Y-77724761D01*
X139273809Y-77772380D01*
X139178571Y-77772380D01*
X139083333Y-77724761D01*
X139035714Y-77677142D01*
X138988095Y-77581904D01*
X138940476Y-77391428D01*
X138940476Y-77153333D01*
X138988095Y-76962857D01*
X139035714Y-76867619D01*
X139083333Y-76820000D01*
X139178571Y-76772380D01*
%TO.C,TR2*%
X132488095Y-90952380D02*
X133059523Y-90952380D01*
X132773809Y-91952380D02*
X132773809Y-90952380D01*
X133964285Y-91952380D02*
X133630952Y-91476190D01*
X133392857Y-91952380D02*
X133392857Y-90952380D01*
X133773809Y-90952380D01*
X133869047Y-91000000D01*
X133916666Y-91047619D01*
X133964285Y-91142857D01*
X133964285Y-91285714D01*
X133916666Y-91380952D01*
X133869047Y-91428571D01*
X133773809Y-91476190D01*
X133392857Y-91476190D01*
X134345238Y-91047619D02*
X134392857Y-91000000D01*
X134488095Y-90952380D01*
X134726190Y-90952380D01*
X134821428Y-91000000D01*
X134869047Y-91047619D01*
X134916666Y-91142857D01*
X134916666Y-91238095D01*
X134869047Y-91380952D01*
X134297619Y-91952380D01*
X134916666Y-91952380D01*
%TO.C,TR1*%
X132488095Y-76452380D02*
X133059523Y-76452380D01*
X132773809Y-77452380D02*
X132773809Y-76452380D01*
X133964285Y-77452380D02*
X133630952Y-76976190D01*
X133392857Y-77452380D02*
X133392857Y-76452380D01*
X133773809Y-76452380D01*
X133869047Y-76500000D01*
X133916666Y-76547619D01*
X133964285Y-76642857D01*
X133964285Y-76785714D01*
X133916666Y-76880952D01*
X133869047Y-76928571D01*
X133773809Y-76976190D01*
X133392857Y-76976190D01*
X134916666Y-77452380D02*
X134345238Y-77452380D01*
X134630952Y-77452380D02*
X134630952Y-76452380D01*
X134535714Y-76595238D01*
X134440476Y-76690476D01*
X134345238Y-76738095D01*
%TO.C,J2*%
X165952380Y-95083333D02*
X166666666Y-95083333D01*
X166809523Y-95130952D01*
X166904761Y-95226190D01*
X166952380Y-95369047D01*
X166952380Y-95464285D01*
X166047619Y-94654761D02*
X166000000Y-94607142D01*
X165952380Y-94511904D01*
X165952380Y-94273809D01*
X166000000Y-94178571D01*
X166047619Y-94130952D01*
X166142857Y-94083333D01*
X166238095Y-94083333D01*
X166380952Y-94130952D01*
X166952380Y-94702380D01*
X166952380Y-94083333D01*
%TO.C,R4*%
X128083333Y-90602380D02*
X127750000Y-90126190D01*
X127511904Y-90602380D02*
X127511904Y-89602380D01*
X127892857Y-89602380D01*
X127988095Y-89650000D01*
X128035714Y-89697619D01*
X128083333Y-89792857D01*
X128083333Y-89935714D01*
X128035714Y-90030952D01*
X127988095Y-90078571D01*
X127892857Y-90126190D01*
X127511904Y-90126190D01*
X128940476Y-89935714D02*
X128940476Y-90602380D01*
X128702380Y-89554761D02*
X128464285Y-90269047D01*
X129083333Y-90269047D01*
%TO.C,R3*%
X128083333Y-82102380D02*
X127750000Y-81626190D01*
X127511904Y-82102380D02*
X127511904Y-81102380D01*
X127892857Y-81102380D01*
X127988095Y-81150000D01*
X128035714Y-81197619D01*
X128083333Y-81292857D01*
X128083333Y-81435714D01*
X128035714Y-81530952D01*
X127988095Y-81578571D01*
X127892857Y-81626190D01*
X127511904Y-81626190D01*
X128416666Y-81102380D02*
X129035714Y-81102380D01*
X128702380Y-81483333D01*
X128845238Y-81483333D01*
X128940476Y-81530952D01*
X128988095Y-81578571D01*
X129035714Y-81673809D01*
X129035714Y-81911904D01*
X128988095Y-82007142D01*
X128940476Y-82054761D01*
X128845238Y-82102380D01*
X128559523Y-82102380D01*
X128464285Y-82054761D01*
X128416666Y-82007142D01*
%TO.C,L8*%
X152583333Y-91202380D02*
X152107142Y-91202380D01*
X152107142Y-90202380D01*
X153059523Y-90630952D02*
X152964285Y-90583333D01*
X152916666Y-90535714D01*
X152869047Y-90440476D01*
X152869047Y-90392857D01*
X152916666Y-90297619D01*
X152964285Y-90250000D01*
X153059523Y-90202380D01*
X153250000Y-90202380D01*
X153345238Y-90250000D01*
X153392857Y-90297619D01*
X153440476Y-90392857D01*
X153440476Y-90440476D01*
X153392857Y-90535714D01*
X153345238Y-90583333D01*
X153250000Y-90630952D01*
X153059523Y-90630952D01*
X152964285Y-90678571D01*
X152916666Y-90726190D01*
X152869047Y-90821428D01*
X152869047Y-91011904D01*
X152916666Y-91107142D01*
X152964285Y-91154761D01*
X153059523Y-91202380D01*
X153250000Y-91202380D01*
X153345238Y-91154761D01*
X153392857Y-91107142D01*
X153440476Y-91011904D01*
X153440476Y-90821428D01*
X153392857Y-90726190D01*
X153345238Y-90678571D01*
X153250000Y-90630952D01*
%TO.C,L7*%
X152583333Y-77952380D02*
X152107142Y-77952380D01*
X152107142Y-76952380D01*
X152821428Y-76952380D02*
X153488095Y-76952380D01*
X153059523Y-77952380D01*
%TO.C,L6*%
X148583333Y-91202380D02*
X148107142Y-91202380D01*
X148107142Y-90202380D01*
X149345238Y-90202380D02*
X149154761Y-90202380D01*
X149059523Y-90250000D01*
X149011904Y-90297619D01*
X148916666Y-90440476D01*
X148869047Y-90630952D01*
X148869047Y-91011904D01*
X148916666Y-91107142D01*
X148964285Y-91154761D01*
X149059523Y-91202380D01*
X149250000Y-91202380D01*
X149345238Y-91154761D01*
X149392857Y-91107142D01*
X149440476Y-91011904D01*
X149440476Y-90773809D01*
X149392857Y-90678571D01*
X149345238Y-90630952D01*
X149250000Y-90583333D01*
X149059523Y-90583333D01*
X148964285Y-90630952D01*
X148916666Y-90678571D01*
X148869047Y-90773809D01*
%TO.C,L5*%
X148583333Y-77952380D02*
X148107142Y-77952380D01*
X148107142Y-76952380D01*
X149392857Y-76952380D02*
X148916666Y-76952380D01*
X148869047Y-77428571D01*
X148916666Y-77380952D01*
X149011904Y-77333333D01*
X149250000Y-77333333D01*
X149345238Y-77380952D01*
X149392857Y-77428571D01*
X149440476Y-77523809D01*
X149440476Y-77761904D01*
X149392857Y-77857142D01*
X149345238Y-77904761D01*
X149250000Y-77952380D01*
X149011904Y-77952380D01*
X148916666Y-77904761D01*
X148869047Y-77857142D01*
%TO.C,L4*%
X144583333Y-91202380D02*
X144107142Y-91202380D01*
X144107142Y-90202380D01*
X145345238Y-90535714D02*
X145345238Y-91202380D01*
X145107142Y-90154761D02*
X144869047Y-90869047D01*
X145488095Y-90869047D01*
%TO.C,L3*%
X144583333Y-77952380D02*
X144107142Y-77952380D01*
X144107142Y-76952380D01*
X144821428Y-76952380D02*
X145440476Y-76952380D01*
X145107142Y-77333333D01*
X145250000Y-77333333D01*
X145345238Y-77380952D01*
X145392857Y-77428571D01*
X145440476Y-77523809D01*
X145440476Y-77761904D01*
X145392857Y-77857142D01*
X145345238Y-77904761D01*
X145250000Y-77952380D01*
X144964285Y-77952380D01*
X144869047Y-77904761D01*
X144821428Y-77857142D01*
%TO.C,L2*%
X140583333Y-91202380D02*
X140107142Y-91202380D01*
X140107142Y-90202380D01*
X140869047Y-90297619D02*
X140916666Y-90250000D01*
X141011904Y-90202380D01*
X141250000Y-90202380D01*
X141345238Y-90250000D01*
X141392857Y-90297619D01*
X141440476Y-90392857D01*
X141440476Y-90488095D01*
X141392857Y-90630952D01*
X140821428Y-91202380D01*
X141440476Y-91202380D01*
%TO.C,L1*%
X140583333Y-77952380D02*
X140107142Y-77952380D01*
X140107142Y-76952380D01*
X141440476Y-77952380D02*
X140869047Y-77952380D01*
X141154761Y-77952380D02*
X141154761Y-76952380D01*
X141059523Y-77095238D01*
X140964285Y-77190476D01*
X140869047Y-77238095D01*
%TO.C,C9*%
X154583333Y-86107142D02*
X154535714Y-86154761D01*
X154392857Y-86202380D01*
X154297619Y-86202380D01*
X154154761Y-86154761D01*
X154059523Y-86059523D01*
X154011904Y-85964285D01*
X153964285Y-85773809D01*
X153964285Y-85630952D01*
X154011904Y-85440476D01*
X154059523Y-85345238D01*
X154154761Y-85250000D01*
X154297619Y-85202380D01*
X154392857Y-85202380D01*
X154535714Y-85250000D01*
X154583333Y-85297619D01*
X155059523Y-86202380D02*
X155250000Y-86202380D01*
X155345238Y-86154761D01*
X155392857Y-86107142D01*
X155488095Y-85964285D01*
X155535714Y-85773809D01*
X155535714Y-85392857D01*
X155488095Y-85297619D01*
X155440476Y-85250000D01*
X155345238Y-85202380D01*
X155154761Y-85202380D01*
X155059523Y-85250000D01*
X155011904Y-85297619D01*
X154964285Y-85392857D01*
X154964285Y-85630952D01*
X155011904Y-85726190D01*
X155059523Y-85773809D01*
X155154761Y-85821428D01*
X155345238Y-85821428D01*
X155440476Y-85773809D01*
X155488095Y-85726190D01*
X155535714Y-85630952D01*
%TO.C,C8*%
X154583333Y-82607142D02*
X154535714Y-82654761D01*
X154392857Y-82702380D01*
X154297619Y-82702380D01*
X154154761Y-82654761D01*
X154059523Y-82559523D01*
X154011904Y-82464285D01*
X153964285Y-82273809D01*
X153964285Y-82130952D01*
X154011904Y-81940476D01*
X154059523Y-81845238D01*
X154154761Y-81750000D01*
X154297619Y-81702380D01*
X154392857Y-81702380D01*
X154535714Y-81750000D01*
X154583333Y-81797619D01*
X155154761Y-82130952D02*
X155059523Y-82083333D01*
X155011904Y-82035714D01*
X154964285Y-81940476D01*
X154964285Y-81892857D01*
X155011904Y-81797619D01*
X155059523Y-81750000D01*
X155154761Y-81702380D01*
X155345238Y-81702380D01*
X155440476Y-81750000D01*
X155488095Y-81797619D01*
X155535714Y-81892857D01*
X155535714Y-81940476D01*
X155488095Y-82035714D01*
X155440476Y-82083333D01*
X155345238Y-82130952D01*
X155154761Y-82130952D01*
X155059523Y-82178571D01*
X155011904Y-82226190D01*
X154964285Y-82321428D01*
X154964285Y-82511904D01*
X155011904Y-82607142D01*
X155059523Y-82654761D01*
X155154761Y-82702380D01*
X155345238Y-82702380D01*
X155440476Y-82654761D01*
X155488095Y-82607142D01*
X155535714Y-82511904D01*
X155535714Y-82321428D01*
X155488095Y-82226190D01*
X155440476Y-82178571D01*
X155345238Y-82130952D01*
%TO.C,C7*%
X150583333Y-86107142D02*
X150535714Y-86154761D01*
X150392857Y-86202380D01*
X150297619Y-86202380D01*
X150154761Y-86154761D01*
X150059523Y-86059523D01*
X150011904Y-85964285D01*
X149964285Y-85773809D01*
X149964285Y-85630952D01*
X150011904Y-85440476D01*
X150059523Y-85345238D01*
X150154761Y-85250000D01*
X150297619Y-85202380D01*
X150392857Y-85202380D01*
X150535714Y-85250000D01*
X150583333Y-85297619D01*
X150916666Y-85202380D02*
X151583333Y-85202380D01*
X151154761Y-86202380D01*
%TO.C,C6*%
X150583333Y-82607142D02*
X150535714Y-82654761D01*
X150392857Y-82702380D01*
X150297619Y-82702380D01*
X150154761Y-82654761D01*
X150059523Y-82559523D01*
X150011904Y-82464285D01*
X149964285Y-82273809D01*
X149964285Y-82130952D01*
X150011904Y-81940476D01*
X150059523Y-81845238D01*
X150154761Y-81750000D01*
X150297619Y-81702380D01*
X150392857Y-81702380D01*
X150535714Y-81750000D01*
X150583333Y-81797619D01*
X151440476Y-81702380D02*
X151250000Y-81702380D01*
X151154761Y-81750000D01*
X151107142Y-81797619D01*
X151011904Y-81940476D01*
X150964285Y-82130952D01*
X150964285Y-82511904D01*
X151011904Y-82607142D01*
X151059523Y-82654761D01*
X151154761Y-82702380D01*
X151345238Y-82702380D01*
X151440476Y-82654761D01*
X151488095Y-82607142D01*
X151535714Y-82511904D01*
X151535714Y-82273809D01*
X151488095Y-82178571D01*
X151440476Y-82130952D01*
X151345238Y-82083333D01*
X151154761Y-82083333D01*
X151059523Y-82130952D01*
X151011904Y-82178571D01*
X150964285Y-82273809D01*
%TO.C,C5*%
X146583333Y-86107142D02*
X146535714Y-86154761D01*
X146392857Y-86202380D01*
X146297619Y-86202380D01*
X146154761Y-86154761D01*
X146059523Y-86059523D01*
X146011904Y-85964285D01*
X145964285Y-85773809D01*
X145964285Y-85630952D01*
X146011904Y-85440476D01*
X146059523Y-85345238D01*
X146154761Y-85250000D01*
X146297619Y-85202380D01*
X146392857Y-85202380D01*
X146535714Y-85250000D01*
X146583333Y-85297619D01*
X147488095Y-85202380D02*
X147011904Y-85202380D01*
X146964285Y-85678571D01*
X147011904Y-85630952D01*
X147107142Y-85583333D01*
X147345238Y-85583333D01*
X147440476Y-85630952D01*
X147488095Y-85678571D01*
X147535714Y-85773809D01*
X147535714Y-86011904D01*
X147488095Y-86107142D01*
X147440476Y-86154761D01*
X147345238Y-86202380D01*
X147107142Y-86202380D01*
X147011904Y-86154761D01*
X146964285Y-86107142D01*
%TO.C,C4*%
X146583333Y-82607142D02*
X146535714Y-82654761D01*
X146392857Y-82702380D01*
X146297619Y-82702380D01*
X146154761Y-82654761D01*
X146059523Y-82559523D01*
X146011904Y-82464285D01*
X145964285Y-82273809D01*
X145964285Y-82130952D01*
X146011904Y-81940476D01*
X146059523Y-81845238D01*
X146154761Y-81750000D01*
X146297619Y-81702380D01*
X146392857Y-81702380D01*
X146535714Y-81750000D01*
X146583333Y-81797619D01*
X147440476Y-82035714D02*
X147440476Y-82702380D01*
X147202380Y-81654761D02*
X146964285Y-82369047D01*
X147583333Y-82369047D01*
%TO.C,C3*%
X142583333Y-86107142D02*
X142535714Y-86154761D01*
X142392857Y-86202380D01*
X142297619Y-86202380D01*
X142154761Y-86154761D01*
X142059523Y-86059523D01*
X142011904Y-85964285D01*
X141964285Y-85773809D01*
X141964285Y-85630952D01*
X142011904Y-85440476D01*
X142059523Y-85345238D01*
X142154761Y-85250000D01*
X142297619Y-85202380D01*
X142392857Y-85202380D01*
X142535714Y-85250000D01*
X142583333Y-85297619D01*
X142916666Y-85202380D02*
X143535714Y-85202380D01*
X143202380Y-85583333D01*
X143345238Y-85583333D01*
X143440476Y-85630952D01*
X143488095Y-85678571D01*
X143535714Y-85773809D01*
X143535714Y-86011904D01*
X143488095Y-86107142D01*
X143440476Y-86154761D01*
X143345238Y-86202380D01*
X143059523Y-86202380D01*
X142964285Y-86154761D01*
X142916666Y-86107142D01*
%TO.C,C2*%
X142583333Y-82607142D02*
X142535714Y-82654761D01*
X142392857Y-82702380D01*
X142297619Y-82702380D01*
X142154761Y-82654761D01*
X142059523Y-82559523D01*
X142011904Y-82464285D01*
X141964285Y-82273809D01*
X141964285Y-82130952D01*
X142011904Y-81940476D01*
X142059523Y-81845238D01*
X142154761Y-81750000D01*
X142297619Y-81702380D01*
X142392857Y-81702380D01*
X142535714Y-81750000D01*
X142583333Y-81797619D01*
X142964285Y-81797619D02*
X143011904Y-81750000D01*
X143107142Y-81702380D01*
X143345238Y-81702380D01*
X143440476Y-81750000D01*
X143488095Y-81797619D01*
X143535714Y-81892857D01*
X143535714Y-81988095D01*
X143488095Y-82130952D01*
X142916666Y-82702380D01*
X143535714Y-82702380D01*
%TO.C,J3*%
X165952380Y-75833333D02*
X166666666Y-75833333D01*
X166809523Y-75880952D01*
X166904761Y-75976190D01*
X166952380Y-76119047D01*
X166952380Y-76214285D01*
X165952380Y-75452380D02*
X165952380Y-74833333D01*
X166333333Y-75166666D01*
X166333333Y-75023809D01*
X166380952Y-74928571D01*
X166428571Y-74880952D01*
X166523809Y-74833333D01*
X166761904Y-74833333D01*
X166857142Y-74880952D01*
X166904761Y-74928571D01*
X166952380Y-75023809D01*
X166952380Y-75309523D01*
X166904761Y-75404761D01*
X166857142Y-75452380D01*
%TO.C,J1*%
X121982380Y-85323333D02*
X122696666Y-85323333D01*
X122839523Y-85370952D01*
X122934761Y-85466190D01*
X122982380Y-85609047D01*
X122982380Y-85704285D01*
X122982380Y-84323333D02*
X122982380Y-84894761D01*
X122982380Y-84609047D02*
X121982380Y-84609047D01*
X122125238Y-84704285D01*
X122220476Y-84799523D01*
X122268095Y-84894761D01*
%TD*%
M02*
