%TF.GenerationSoftware,KiCad,Pcbnew,5.1.10-1.fc33*%
%TF.CreationDate,2021-10-07T20:02:16-05:00*%
%TF.ProjectId,serdes-rf-hdmi,73657264-6573-42d7-9266-2d68646d692e,B*%
%TF.SameCoordinates,Original*%
%TF.FileFunction,Legend,Top*%
%TF.FilePolarity,Positive*%
%FSLAX46Y46*%
G04 Gerber Fmt 4.6, Leading zero omitted, Abs format (unit mm)*
G04 Created by KiCad (PCBNEW 5.1.10-1.fc33) date 2021-10-07 20:02:16*
%MOMM*%
%LPD*%
G01*
G04 APERTURE LIST*
%ADD10C,0.150000*%
%ADD11C,0.127000*%
%ADD12C,0.200000*%
%ADD13C,0.120000*%
%ADD14C,0.010000*%
G04 APERTURE END LIST*
D10*
X139666666Y-93627380D02*
X139666666Y-92627380D01*
X139666666Y-93103571D02*
X140238095Y-93103571D01*
X140238095Y-93627380D02*
X140238095Y-92627380D01*
X140714285Y-93627380D02*
X140714285Y-92627380D01*
X140952380Y-92627380D01*
X141095238Y-92675000D01*
X141190476Y-92770238D01*
X141238095Y-92865476D01*
X141285714Y-93055952D01*
X141285714Y-93198809D01*
X141238095Y-93389285D01*
X141190476Y-93484523D01*
X141095238Y-93579761D01*
X140952380Y-93627380D01*
X140714285Y-93627380D01*
X141714285Y-93627380D02*
X141714285Y-92627380D01*
X142047619Y-93341666D01*
X142380952Y-92627380D01*
X142380952Y-93627380D01*
X142857142Y-93627380D02*
X142857142Y-92627380D01*
X144666666Y-93627380D02*
X144333333Y-93151190D01*
X144095238Y-93627380D02*
X144095238Y-92627380D01*
X144476190Y-92627380D01*
X144571428Y-92675000D01*
X144619047Y-92722619D01*
X144666666Y-92817857D01*
X144666666Y-92960714D01*
X144619047Y-93055952D01*
X144571428Y-93103571D01*
X144476190Y-93151190D01*
X144095238Y-93151190D01*
X145428571Y-93103571D02*
X145095238Y-93103571D01*
X145095238Y-93627380D02*
X145095238Y-92627380D01*
X145571428Y-92627380D01*
X146571428Y-92627380D02*
X147142857Y-92627380D01*
X146857142Y-93627380D02*
X146857142Y-92627380D01*
X147857142Y-93579761D02*
X147761904Y-93627380D01*
X147571428Y-93627380D01*
X147476190Y-93579761D01*
X147428571Y-93484523D01*
X147428571Y-93103571D01*
X147476190Y-93008333D01*
X147571428Y-92960714D01*
X147761904Y-92960714D01*
X147857142Y-93008333D01*
X147904761Y-93103571D01*
X147904761Y-93198809D01*
X147428571Y-93294047D01*
X148285714Y-93579761D02*
X148380952Y-93627380D01*
X148571428Y-93627380D01*
X148666666Y-93579761D01*
X148714285Y-93484523D01*
X148714285Y-93436904D01*
X148666666Y-93341666D01*
X148571428Y-93294047D01*
X148428571Y-93294047D01*
X148333333Y-93246428D01*
X148285714Y-93151190D01*
X148285714Y-93103571D01*
X148333333Y-93008333D01*
X148428571Y-92960714D01*
X148571428Y-92960714D01*
X148666666Y-93008333D01*
X149000000Y-92960714D02*
X149380952Y-92960714D01*
X149142857Y-92627380D02*
X149142857Y-93484523D01*
X149190476Y-93579761D01*
X149285714Y-93627380D01*
X149380952Y-93627380D01*
X150809523Y-93103571D02*
X150952380Y-93151190D01*
X151000000Y-93198809D01*
X151047619Y-93294047D01*
X151047619Y-93436904D01*
X151000000Y-93532142D01*
X150952380Y-93579761D01*
X150857142Y-93627380D01*
X150476190Y-93627380D01*
X150476190Y-92627380D01*
X150809523Y-92627380D01*
X150904761Y-92675000D01*
X150952380Y-92722619D01*
X151000000Y-92817857D01*
X151000000Y-92913095D01*
X150952380Y-93008333D01*
X150904761Y-93055952D01*
X150809523Y-93103571D01*
X150476190Y-93103571D01*
X151619047Y-93627380D02*
X151523809Y-93579761D01*
X151476190Y-93532142D01*
X151428571Y-93436904D01*
X151428571Y-93151190D01*
X151476190Y-93055952D01*
X151523809Y-93008333D01*
X151619047Y-92960714D01*
X151761904Y-92960714D01*
X151857142Y-93008333D01*
X151904761Y-93055952D01*
X151952380Y-93151190D01*
X151952380Y-93436904D01*
X151904761Y-93532142D01*
X151857142Y-93579761D01*
X151761904Y-93627380D01*
X151619047Y-93627380D01*
X152809523Y-93627380D02*
X152809523Y-93103571D01*
X152761904Y-93008333D01*
X152666666Y-92960714D01*
X152476190Y-92960714D01*
X152380952Y-93008333D01*
X152809523Y-93579761D02*
X152714285Y-93627380D01*
X152476190Y-93627380D01*
X152380952Y-93579761D01*
X152333333Y-93484523D01*
X152333333Y-93389285D01*
X152380952Y-93294047D01*
X152476190Y-93246428D01*
X152714285Y-93246428D01*
X152809523Y-93198809D01*
X153285714Y-93627380D02*
X153285714Y-92960714D01*
X153285714Y-93151190D02*
X153333333Y-93055952D01*
X153380952Y-93008333D01*
X153476190Y-92960714D01*
X153571428Y-92960714D01*
X154333333Y-93627380D02*
X154333333Y-92627380D01*
X154333333Y-93579761D02*
X154238095Y-93627380D01*
X154047619Y-93627380D01*
X153952380Y-93579761D01*
X153904761Y-93532142D01*
X153857142Y-93436904D01*
X153857142Y-93151190D01*
X153904761Y-93055952D01*
X153952380Y-93008333D01*
X154047619Y-92960714D01*
X154238095Y-92960714D01*
X154333333Y-93008333D01*
X145619047Y-95277380D02*
X145285714Y-94801190D01*
X145047619Y-95277380D02*
X145047619Y-94277380D01*
X145428571Y-94277380D01*
X145523809Y-94325000D01*
X145571428Y-94372619D01*
X145619047Y-94467857D01*
X145619047Y-94610714D01*
X145571428Y-94705952D01*
X145523809Y-94753571D01*
X145428571Y-94801190D01*
X145047619Y-94801190D01*
X146428571Y-95229761D02*
X146333333Y-95277380D01*
X146142857Y-95277380D01*
X146047619Y-95229761D01*
X146000000Y-95134523D01*
X146000000Y-94753571D01*
X146047619Y-94658333D01*
X146142857Y-94610714D01*
X146333333Y-94610714D01*
X146428571Y-94658333D01*
X146476190Y-94753571D01*
X146476190Y-94848809D01*
X146000000Y-94944047D01*
X146809523Y-94610714D02*
X147047619Y-95277380D01*
X147285714Y-94610714D01*
X148761904Y-94753571D02*
X148904761Y-94801190D01*
X148952380Y-94848809D01*
X149000000Y-94944047D01*
X149000000Y-95086904D01*
X148952380Y-95182142D01*
X148904761Y-95229761D01*
X148809523Y-95277380D01*
X148428571Y-95277380D01*
X148428571Y-94277380D01*
X148761904Y-94277380D01*
X148857142Y-94325000D01*
X148904761Y-94372619D01*
X148952380Y-94467857D01*
X148952380Y-94563095D01*
X148904761Y-94658333D01*
X148857142Y-94705952D01*
X148761904Y-94753571D01*
X148428571Y-94753571D01*
D11*
%TO.C,TR2*%
X131845000Y-86536500D02*
X135655000Y-86536500D01*
X135655000Y-90463500D02*
X131845000Y-90463500D01*
D12*
X130850000Y-89750000D02*
G75*
G03*
X130850000Y-89750000I-100000J0D01*
G01*
D11*
%TO.C,TR1*%
X131845000Y-78036500D02*
X135655000Y-78036500D01*
X135655000Y-81963500D02*
X131845000Y-81963500D01*
D12*
X130850000Y-81250000D02*
G75*
G03*
X130850000Y-81250000I-100000J0D01*
G01*
D13*
%TO.C,J2*%
X167240000Y-91250000D02*
X167740000Y-91000000D01*
X167240000Y-90750000D02*
X167240000Y-91250000D01*
X167740000Y-91000000D02*
X167240000Y-90750000D01*
X172000000Y-92950000D02*
X172000000Y-91840000D01*
X172000000Y-90160000D02*
X172000000Y-89050000D01*
X168290000Y-92950000D02*
X168290000Y-91840000D01*
X168290000Y-90160000D02*
X168290000Y-89050000D01*
%TO.C,R4*%
X128477064Y-89235000D02*
X128022936Y-89235000D01*
X128477064Y-87765000D02*
X128022936Y-87765000D01*
%TO.C,R3*%
X128477064Y-80735000D02*
X128022936Y-80735000D01*
X128477064Y-79265000D02*
X128022936Y-79265000D01*
%TO.C,L8*%
X151740000Y-88421267D02*
X151740000Y-88078733D01*
X152760000Y-88421267D02*
X152760000Y-88078733D01*
%TO.C,L7*%
X151740000Y-79921267D02*
X151740000Y-79578733D01*
X152760000Y-79921267D02*
X152760000Y-79578733D01*
%TO.C,L6*%
X148760000Y-88078733D02*
X148760000Y-88421267D01*
X147740000Y-88078733D02*
X147740000Y-88421267D01*
%TO.C,L5*%
X148760000Y-79578733D02*
X148760000Y-79921267D01*
X147740000Y-79578733D02*
X147740000Y-79921267D01*
%TO.C,L4*%
X143740000Y-88421267D02*
X143740000Y-88078733D01*
X144760000Y-88421267D02*
X144760000Y-88078733D01*
%TO.C,L3*%
X143740000Y-79921267D02*
X143740000Y-79578733D01*
X144760000Y-79921267D02*
X144760000Y-79578733D01*
%TO.C,L2*%
X140760000Y-88078733D02*
X140760000Y-88421267D01*
X139740000Y-88078733D02*
X139740000Y-88421267D01*
%TO.C,L1*%
X140760000Y-79578733D02*
X140760000Y-79921267D01*
X139740000Y-79578733D02*
X139740000Y-79921267D01*
%TO.C,C9*%
X149740000Y-88396267D02*
X149740000Y-88103733D01*
X150760000Y-88396267D02*
X150760000Y-88103733D01*
%TO.C,C8*%
X149740000Y-79896267D02*
X149740000Y-79603733D01*
X150760000Y-79896267D02*
X150760000Y-79603733D01*
%TO.C,C7*%
X146760000Y-88103733D02*
X146760000Y-88396267D01*
X145740000Y-88103733D02*
X145740000Y-88396267D01*
%TO.C,C6*%
X146760000Y-79603733D02*
X146760000Y-79896267D01*
X145740000Y-79603733D02*
X145740000Y-79896267D01*
%TO.C,C5*%
X141740000Y-88396267D02*
X141740000Y-88103733D01*
X142760000Y-88396267D02*
X142760000Y-88103733D01*
%TO.C,C4*%
X141740000Y-79896267D02*
X141740000Y-79603733D01*
X142760000Y-79896267D02*
X142760000Y-79603733D01*
%TO.C,C3*%
X138760000Y-88103733D02*
X138760000Y-88396267D01*
X137740000Y-88103733D02*
X137740000Y-88396267D01*
%TO.C,C2*%
X138760000Y-79603733D02*
X138760000Y-79896267D01*
X137740000Y-79603733D02*
X137740000Y-79896267D01*
D14*
%TO.C,G1*%
G36*
X159355647Y-76035669D02*
G01*
X159843042Y-76063230D01*
X160329713Y-76131866D01*
X160812689Y-76240380D01*
X161288997Y-76387571D01*
X161755667Y-76572243D01*
X162209727Y-76793196D01*
X162648203Y-77049232D01*
X163068126Y-77339152D01*
X163466522Y-77661760D01*
X163531907Y-77719778D01*
X163887096Y-78066165D01*
X164214402Y-78440217D01*
X164512336Y-78838707D01*
X164779406Y-79258405D01*
X165014122Y-79696084D01*
X165214993Y-80148514D01*
X165380529Y-80612467D01*
X165509238Y-81084714D01*
X165599631Y-81562028D01*
X165650216Y-82041179D01*
X165660868Y-82330909D01*
X165664917Y-82725567D01*
X165599173Y-82807159D01*
X165500314Y-82900669D01*
X165386598Y-82957581D01*
X165263750Y-82975773D01*
X165175219Y-82964292D01*
X165074128Y-82921021D01*
X164983322Y-82848853D01*
X164914495Y-82758923D01*
X164884638Y-82687667D01*
X164878547Y-82648858D01*
X164870989Y-82576393D01*
X164862722Y-82478893D01*
X164854506Y-82364977D01*
X164850141Y-82296084D01*
X164839724Y-82152364D01*
X164825509Y-81996807D01*
X164809200Y-81846192D01*
X164792503Y-81717296D01*
X164788840Y-81692834D01*
X164694346Y-81216993D01*
X164561444Y-80756222D01*
X164391901Y-80312280D01*
X164187484Y-79886923D01*
X163949959Y-79481907D01*
X163681093Y-79098991D01*
X163382653Y-78739931D01*
X163056405Y-78406485D01*
X162704117Y-78100408D01*
X162327556Y-77823460D01*
X161928487Y-77577396D01*
X161508678Y-77363974D01*
X161069895Y-77184950D01*
X160613905Y-77042083D01*
X160142476Y-76937129D01*
X159980302Y-76910589D01*
X159849159Y-76893254D01*
X159693835Y-76876121D01*
X159532451Y-76861011D01*
X159383129Y-76849747D01*
X159362616Y-76848485D01*
X159211504Y-76837909D01*
X159095461Y-76824894D01*
X159007223Y-76807086D01*
X158939524Y-76782132D01*
X158885100Y-76747676D01*
X158836687Y-76701366D01*
X158809372Y-76669227D01*
X158768604Y-76608521D01*
X158746519Y-76542854D01*
X158736994Y-76465521D01*
X158745096Y-76329278D01*
X158790229Y-76213051D01*
X158871960Y-76117793D01*
X158906600Y-76091321D01*
X158994211Y-76030750D01*
X159355647Y-76035669D01*
G37*
X159355647Y-76035669D02*
X159843042Y-76063230D01*
X160329713Y-76131866D01*
X160812689Y-76240380D01*
X161288997Y-76387571D01*
X161755667Y-76572243D01*
X162209727Y-76793196D01*
X162648203Y-77049232D01*
X163068126Y-77339152D01*
X163466522Y-77661760D01*
X163531907Y-77719778D01*
X163887096Y-78066165D01*
X164214402Y-78440217D01*
X164512336Y-78838707D01*
X164779406Y-79258405D01*
X165014122Y-79696084D01*
X165214993Y-80148514D01*
X165380529Y-80612467D01*
X165509238Y-81084714D01*
X165599631Y-81562028D01*
X165650216Y-82041179D01*
X165660868Y-82330909D01*
X165664917Y-82725567D01*
X165599173Y-82807159D01*
X165500314Y-82900669D01*
X165386598Y-82957581D01*
X165263750Y-82975773D01*
X165175219Y-82964292D01*
X165074128Y-82921021D01*
X164983322Y-82848853D01*
X164914495Y-82758923D01*
X164884638Y-82687667D01*
X164878547Y-82648858D01*
X164870989Y-82576393D01*
X164862722Y-82478893D01*
X164854506Y-82364977D01*
X164850141Y-82296084D01*
X164839724Y-82152364D01*
X164825509Y-81996807D01*
X164809200Y-81846192D01*
X164792503Y-81717296D01*
X164788840Y-81692834D01*
X164694346Y-81216993D01*
X164561444Y-80756222D01*
X164391901Y-80312280D01*
X164187484Y-79886923D01*
X163949959Y-79481907D01*
X163681093Y-79098991D01*
X163382653Y-78739931D01*
X163056405Y-78406485D01*
X162704117Y-78100408D01*
X162327556Y-77823460D01*
X161928487Y-77577396D01*
X161508678Y-77363974D01*
X161069895Y-77184950D01*
X160613905Y-77042083D01*
X160142476Y-76937129D01*
X159980302Y-76910589D01*
X159849159Y-76893254D01*
X159693835Y-76876121D01*
X159532451Y-76861011D01*
X159383129Y-76849747D01*
X159362616Y-76848485D01*
X159211504Y-76837909D01*
X159095461Y-76824894D01*
X159007223Y-76807086D01*
X158939524Y-76782132D01*
X158885100Y-76747676D01*
X158836687Y-76701366D01*
X158809372Y-76669227D01*
X158768604Y-76608521D01*
X158746519Y-76542854D01*
X158736994Y-76465521D01*
X158745096Y-76329278D01*
X158790229Y-76213051D01*
X158871960Y-76117793D01*
X158906600Y-76091321D01*
X158994211Y-76030750D01*
X159355647Y-76035669D01*
G36*
X159375956Y-78076599D02*
G01*
X159552938Y-78088621D01*
X159742751Y-78110448D01*
X159939801Y-78141779D01*
X160138494Y-78182317D01*
X160225084Y-78203014D01*
X160643783Y-78329209D01*
X161043426Y-78492638D01*
X161422303Y-78691918D01*
X161778704Y-78925666D01*
X162110919Y-79192501D01*
X162417237Y-79491040D01*
X162695948Y-79819899D01*
X162945343Y-80177697D01*
X163163710Y-80563051D01*
X163177062Y-80589566D01*
X163311550Y-80893569D01*
X163425820Y-81223012D01*
X163517011Y-81566316D01*
X163582263Y-81911899D01*
X163618715Y-82248181D01*
X163625154Y-82403606D01*
X163626264Y-82516104D01*
X163624163Y-82596620D01*
X163617588Y-82655460D01*
X163605273Y-82702931D01*
X163585954Y-82749338D01*
X163581599Y-82758447D01*
X163514110Y-82852037D01*
X163418908Y-82922235D01*
X163306199Y-82964468D01*
X163186190Y-82974166D01*
X163122053Y-82964292D01*
X163018570Y-82919200D01*
X162926726Y-82842280D01*
X162880461Y-82781236D01*
X162860926Y-82742853D01*
X162845279Y-82693692D01*
X162832078Y-82626140D01*
X162819882Y-82532586D01*
X162807249Y-82405415D01*
X162805386Y-82384740D01*
X162789818Y-82218881D01*
X162775127Y-82084800D01*
X162759689Y-81972016D01*
X162741880Y-81870047D01*
X162720076Y-81768414D01*
X162692653Y-81656633D01*
X162692448Y-81655833D01*
X162576867Y-81287605D01*
X162424222Y-80936826D01*
X162236959Y-80605824D01*
X162017527Y-80296925D01*
X161768372Y-80012455D01*
X161491943Y-79754740D01*
X161190687Y-79526107D01*
X160867051Y-79328883D01*
X160523483Y-79165393D01*
X160162431Y-79037964D01*
X159859136Y-78962837D01*
X159747553Y-78943309D01*
X159612096Y-78924097D01*
X159471176Y-78907614D01*
X159361720Y-78897618D01*
X159214710Y-78885170D01*
X159102813Y-78871919D01*
X159018822Y-78855946D01*
X158955531Y-78835335D01*
X158905733Y-78808168D01*
X158862221Y-78772528D01*
X158851202Y-78761791D01*
X158777425Y-78663142D01*
X158740836Y-78549516D01*
X158739226Y-78419682D01*
X158768702Y-78298275D01*
X158832015Y-78199230D01*
X158908193Y-78132542D01*
X158977922Y-78102353D01*
X159082854Y-78083166D01*
X159217396Y-78074681D01*
X159375956Y-78076599D01*
G37*
X159375956Y-78076599D02*
X159552938Y-78088621D01*
X159742751Y-78110448D01*
X159939801Y-78141779D01*
X160138494Y-78182317D01*
X160225084Y-78203014D01*
X160643783Y-78329209D01*
X161043426Y-78492638D01*
X161422303Y-78691918D01*
X161778704Y-78925666D01*
X162110919Y-79192501D01*
X162417237Y-79491040D01*
X162695948Y-79819899D01*
X162945343Y-80177697D01*
X163163710Y-80563051D01*
X163177062Y-80589566D01*
X163311550Y-80893569D01*
X163425820Y-81223012D01*
X163517011Y-81566316D01*
X163582263Y-81911899D01*
X163618715Y-82248181D01*
X163625154Y-82403606D01*
X163626264Y-82516104D01*
X163624163Y-82596620D01*
X163617588Y-82655460D01*
X163605273Y-82702931D01*
X163585954Y-82749338D01*
X163581599Y-82758447D01*
X163514110Y-82852037D01*
X163418908Y-82922235D01*
X163306199Y-82964468D01*
X163186190Y-82974166D01*
X163122053Y-82964292D01*
X163018570Y-82919200D01*
X162926726Y-82842280D01*
X162880461Y-82781236D01*
X162860926Y-82742853D01*
X162845279Y-82693692D01*
X162832078Y-82626140D01*
X162819882Y-82532586D01*
X162807249Y-82405415D01*
X162805386Y-82384740D01*
X162789818Y-82218881D01*
X162775127Y-82084800D01*
X162759689Y-81972016D01*
X162741880Y-81870047D01*
X162720076Y-81768414D01*
X162692653Y-81656633D01*
X162692448Y-81655833D01*
X162576867Y-81287605D01*
X162424222Y-80936826D01*
X162236959Y-80605824D01*
X162017527Y-80296925D01*
X161768372Y-80012455D01*
X161491943Y-79754740D01*
X161190687Y-79526107D01*
X160867051Y-79328883D01*
X160523483Y-79165393D01*
X160162431Y-79037964D01*
X159859136Y-78962837D01*
X159747553Y-78943309D01*
X159612096Y-78924097D01*
X159471176Y-78907614D01*
X159361720Y-78897618D01*
X159214710Y-78885170D01*
X159102813Y-78871919D01*
X159018822Y-78855946D01*
X158955531Y-78835335D01*
X158905733Y-78808168D01*
X158862221Y-78772528D01*
X158851202Y-78761791D01*
X158777425Y-78663142D01*
X158740836Y-78549516D01*
X158739226Y-78419682D01*
X158768702Y-78298275D01*
X158832015Y-78199230D01*
X158908193Y-78132542D01*
X158977922Y-78102353D01*
X159082854Y-78083166D01*
X159217396Y-78074681D01*
X159375956Y-78076599D01*
G36*
X159294979Y-80126671D02*
G01*
X159336084Y-80129604D01*
X159652095Y-80174581D01*
X159955115Y-80259528D01*
X160243249Y-80383565D01*
X160514606Y-80545811D01*
X160767292Y-80745384D01*
X160871898Y-80844621D01*
X161087208Y-81088287D01*
X161264012Y-81349524D01*
X161402443Y-81628605D01*
X161502634Y-81925803D01*
X161564716Y-82241391D01*
X161570076Y-82284480D01*
X161583837Y-82460852D01*
X161579539Y-82602951D01*
X161556791Y-82714973D01*
X161522826Y-82789400D01*
X161445099Y-82877256D01*
X161342161Y-82939395D01*
X161225524Y-82971169D01*
X161106696Y-82967929D01*
X161089915Y-82964264D01*
X160990434Y-82930020D01*
X160912583Y-82878486D01*
X160853039Y-82804468D01*
X160808480Y-82702776D01*
X160775583Y-82568219D01*
X160756682Y-82443535D01*
X160739926Y-82329302D01*
X160719179Y-82216410D01*
X160697342Y-82119441D01*
X160681077Y-82063250D01*
X160575491Y-81819386D01*
X160437136Y-81600154D01*
X160269106Y-81408036D01*
X160074498Y-81245513D01*
X159856405Y-81115065D01*
X159617923Y-81019175D01*
X159362146Y-80960323D01*
X159294394Y-80951526D01*
X159200613Y-80940630D01*
X159115814Y-80929736D01*
X159053981Y-80920676D01*
X159039750Y-80918160D01*
X158928851Y-80877271D01*
X158840725Y-80806993D01*
X158777494Y-80714894D01*
X158741282Y-80608541D01*
X158734212Y-80495501D01*
X158758408Y-80383341D01*
X158815994Y-80279629D01*
X158849810Y-80241243D01*
X158913006Y-80186803D01*
X158980423Y-80150122D01*
X159060759Y-80129205D01*
X159162711Y-80122053D01*
X159294979Y-80126671D01*
G37*
X159294979Y-80126671D02*
X159336084Y-80129604D01*
X159652095Y-80174581D01*
X159955115Y-80259528D01*
X160243249Y-80383565D01*
X160514606Y-80545811D01*
X160767292Y-80745384D01*
X160871898Y-80844621D01*
X161087208Y-81088287D01*
X161264012Y-81349524D01*
X161402443Y-81628605D01*
X161502634Y-81925803D01*
X161564716Y-82241391D01*
X161570076Y-82284480D01*
X161583837Y-82460852D01*
X161579539Y-82602951D01*
X161556791Y-82714973D01*
X161522826Y-82789400D01*
X161445099Y-82877256D01*
X161342161Y-82939395D01*
X161225524Y-82971169D01*
X161106696Y-82967929D01*
X161089915Y-82964264D01*
X160990434Y-82930020D01*
X160912583Y-82878486D01*
X160853039Y-82804468D01*
X160808480Y-82702776D01*
X160775583Y-82568219D01*
X160756682Y-82443535D01*
X160739926Y-82329302D01*
X160719179Y-82216410D01*
X160697342Y-82119441D01*
X160681077Y-82063250D01*
X160575491Y-81819386D01*
X160437136Y-81600154D01*
X160269106Y-81408036D01*
X160074498Y-81245513D01*
X159856405Y-81115065D01*
X159617923Y-81019175D01*
X159362146Y-80960323D01*
X159294394Y-80951526D01*
X159200613Y-80940630D01*
X159115814Y-80929736D01*
X159053981Y-80920676D01*
X159039750Y-80918160D01*
X158928851Y-80877271D01*
X158840725Y-80806993D01*
X158777494Y-80714894D01*
X158741282Y-80608541D01*
X158734212Y-80495501D01*
X158758408Y-80383341D01*
X158815994Y-80279629D01*
X158849810Y-80241243D01*
X158913006Y-80186803D01*
X158980423Y-80150122D01*
X159060759Y-80129205D01*
X159162711Y-80122053D01*
X159294979Y-80126671D01*
G36*
X158479566Y-82287021D02*
G01*
X158572770Y-82328817D01*
X158641089Y-82390670D01*
X158651669Y-82406759D01*
X158670656Y-82449199D01*
X158697550Y-82522430D01*
X158728887Y-82616467D01*
X158761206Y-82721322D01*
X158763765Y-82730000D01*
X158799540Y-82848089D01*
X158830336Y-82933725D01*
X158862268Y-82995308D01*
X158901450Y-83041238D01*
X158953997Y-83079918D01*
X159026022Y-83119747D01*
X159060041Y-83137067D01*
X159226866Y-83239732D01*
X159359432Y-83361063D01*
X159455645Y-83498590D01*
X159513410Y-83649840D01*
X159519760Y-83679367D01*
X159524182Y-83726113D01*
X159527584Y-83812296D01*
X159530014Y-83935034D01*
X159531519Y-84091443D01*
X159532144Y-84278643D01*
X159531938Y-84493749D01*
X159530946Y-84733878D01*
X159529217Y-84996150D01*
X159526796Y-85277680D01*
X159523731Y-85575586D01*
X159520069Y-85886986D01*
X159515856Y-86208996D01*
X159511139Y-86538735D01*
X159505966Y-86873319D01*
X159500383Y-87209866D01*
X159494437Y-87545493D01*
X159488175Y-87877318D01*
X159481645Y-88202458D01*
X159474891Y-88518031D01*
X159467963Y-88821153D01*
X159460906Y-89108942D01*
X159453768Y-89378515D01*
X159446595Y-89626990D01*
X159439435Y-89851484D01*
X159432334Y-90049115D01*
X159425339Y-90217000D01*
X159418497Y-90352256D01*
X159411855Y-90452000D01*
X159409054Y-90483431D01*
X159377381Y-90715727D01*
X159330549Y-90911384D01*
X159265333Y-91073513D01*
X159178509Y-91205221D01*
X159066851Y-91309620D01*
X158927134Y-91389818D01*
X158756132Y-91448925D01*
X158550621Y-91490051D01*
X158340477Y-91513687D01*
X158259607Y-91518357D01*
X158142220Y-91522317D01*
X157994123Y-91525570D01*
X157821126Y-91528119D01*
X157629038Y-91529965D01*
X157423668Y-91531111D01*
X157210825Y-91531559D01*
X156996318Y-91531313D01*
X156785956Y-91530375D01*
X156585547Y-91528747D01*
X156400902Y-91526432D01*
X156237829Y-91523432D01*
X156102137Y-91519750D01*
X155999636Y-91515388D01*
X155958968Y-91512655D01*
X155714698Y-91481965D01*
X155506721Y-91432742D01*
X155332716Y-91363808D01*
X155190361Y-91273981D01*
X155077336Y-91162083D01*
X154991320Y-91026933D01*
X154987255Y-91018654D01*
X154947280Y-90917169D01*
X154908932Y-90785200D01*
X154875055Y-90634580D01*
X154848496Y-90477142D01*
X154839213Y-90402917D01*
X154833355Y-90328170D01*
X154827655Y-90214365D01*
X154822144Y-90064777D01*
X154816854Y-89882681D01*
X154811818Y-89671352D01*
X154807066Y-89434066D01*
X154802631Y-89174096D01*
X154798544Y-88894720D01*
X154794838Y-88599211D01*
X154791543Y-88290844D01*
X154788691Y-87972896D01*
X154786315Y-87648640D01*
X154784445Y-87321352D01*
X154783115Y-86994306D01*
X154782354Y-86670779D01*
X154782196Y-86354046D01*
X154782672Y-86047380D01*
X154783814Y-85754058D01*
X154785652Y-85477354D01*
X154788220Y-85220543D01*
X154788653Y-85185334D01*
X154801316Y-84179917D01*
X155487983Y-84179917D01*
X155502871Y-85502834D01*
X155506028Y-85775254D01*
X155508978Y-86008560D01*
X155511840Y-86205969D01*
X155514731Y-86370700D01*
X155517767Y-86505970D01*
X155521065Y-86614997D01*
X155524743Y-86701000D01*
X155528918Y-86767195D01*
X155533706Y-86816800D01*
X155539224Y-86853034D01*
X155545590Y-86879115D01*
X155552921Y-86898260D01*
X155553672Y-86899834D01*
X155609499Y-86969894D01*
X155704811Y-87030695D01*
X155840042Y-87082382D01*
X156015628Y-87125104D01*
X156232002Y-87159007D01*
X156362167Y-87173334D01*
X156460792Y-87180059D01*
X156592056Y-87184823D01*
X156749187Y-87187725D01*
X156925411Y-87188865D01*
X157113955Y-87188345D01*
X157308049Y-87186263D01*
X157500918Y-87182720D01*
X157685790Y-87177817D01*
X157855893Y-87171654D01*
X158004454Y-87164330D01*
X158124701Y-87155947D01*
X158209861Y-87146604D01*
X158214250Y-87145929D01*
X158315030Y-87129015D01*
X158409784Y-87111324D01*
X158484311Y-87095585D01*
X158510584Y-87089014D01*
X158602144Y-87055699D01*
X158687294Y-87011028D01*
X158754976Y-86961932D01*
X158794137Y-86915343D01*
X158796601Y-86909713D01*
X158801422Y-86876616D01*
X158806065Y-86806023D01*
X158810492Y-86702335D01*
X158814665Y-86569953D01*
X158818546Y-86413279D01*
X158822098Y-86236716D01*
X158825283Y-86044663D01*
X158828062Y-85841524D01*
X158830399Y-85631699D01*
X158832255Y-85419590D01*
X158833593Y-85209599D01*
X158834374Y-85006127D01*
X158834561Y-84813576D01*
X158834116Y-84636348D01*
X158833001Y-84478844D01*
X158831179Y-84345466D01*
X158828611Y-84240615D01*
X158825260Y-84168692D01*
X158821088Y-84134101D01*
X158820462Y-84132535D01*
X158779152Y-84086152D01*
X158708189Y-84036143D01*
X158619000Y-83989110D01*
X158523011Y-83951652D01*
X158491374Y-83942408D01*
X158344151Y-83911279D01*
X158161752Y-83885290D01*
X157951033Y-83864543D01*
X157718851Y-83849141D01*
X157472062Y-83839187D01*
X157217522Y-83834782D01*
X156962089Y-83836031D01*
X156712617Y-83843034D01*
X156475964Y-83855895D01*
X156258987Y-83874717D01*
X156068541Y-83899602D01*
X156032527Y-83905613D01*
X155871862Y-83942184D01*
X155732196Y-83991014D01*
X155620567Y-84049102D01*
X155544011Y-84113444D01*
X155543190Y-84114413D01*
X155487983Y-84179917D01*
X154801316Y-84179917D01*
X154807982Y-83650750D01*
X154859180Y-83544917D01*
X154942949Y-83414030D01*
X155061134Y-83290504D01*
X155205818Y-83181641D01*
X155325838Y-83114549D01*
X155438095Y-83065240D01*
X155557961Y-83023224D01*
X155689530Y-82987979D01*
X155836893Y-82958981D01*
X156004145Y-82935706D01*
X156195379Y-82917633D01*
X156414688Y-82904237D01*
X156666165Y-82894996D01*
X156953904Y-82889387D01*
X157099437Y-82887883D01*
X157275433Y-82886296D01*
X157437586Y-82884474D01*
X157581144Y-82882498D01*
X157701357Y-82880448D01*
X157793476Y-82878407D01*
X157852750Y-82876454D01*
X157874426Y-82874675D01*
X157883097Y-82852877D01*
X157901859Y-82799507D01*
X157927710Y-82723250D01*
X157950058Y-82655917D01*
X157990254Y-82538270D01*
X158023925Y-82453779D01*
X158055745Y-82394777D01*
X158090390Y-82353595D01*
X158132534Y-82322565D01*
X158163724Y-82305448D01*
X158263734Y-82272988D01*
X158372784Y-82267628D01*
X158479566Y-82287021D01*
G37*
X158479566Y-82287021D02*
X158572770Y-82328817D01*
X158641089Y-82390670D01*
X158651669Y-82406759D01*
X158670656Y-82449199D01*
X158697550Y-82522430D01*
X158728887Y-82616467D01*
X158761206Y-82721322D01*
X158763765Y-82730000D01*
X158799540Y-82848089D01*
X158830336Y-82933725D01*
X158862268Y-82995308D01*
X158901450Y-83041238D01*
X158953997Y-83079918D01*
X159026022Y-83119747D01*
X159060041Y-83137067D01*
X159226866Y-83239732D01*
X159359432Y-83361063D01*
X159455645Y-83498590D01*
X159513410Y-83649840D01*
X159519760Y-83679367D01*
X159524182Y-83726113D01*
X159527584Y-83812296D01*
X159530014Y-83935034D01*
X159531519Y-84091443D01*
X159532144Y-84278643D01*
X159531938Y-84493749D01*
X159530946Y-84733878D01*
X159529217Y-84996150D01*
X159526796Y-85277680D01*
X159523731Y-85575586D01*
X159520069Y-85886986D01*
X159515856Y-86208996D01*
X159511139Y-86538735D01*
X159505966Y-86873319D01*
X159500383Y-87209866D01*
X159494437Y-87545493D01*
X159488175Y-87877318D01*
X159481645Y-88202458D01*
X159474891Y-88518031D01*
X159467963Y-88821153D01*
X159460906Y-89108942D01*
X159453768Y-89378515D01*
X159446595Y-89626990D01*
X159439435Y-89851484D01*
X159432334Y-90049115D01*
X159425339Y-90217000D01*
X159418497Y-90352256D01*
X159411855Y-90452000D01*
X159409054Y-90483431D01*
X159377381Y-90715727D01*
X159330549Y-90911384D01*
X159265333Y-91073513D01*
X159178509Y-91205221D01*
X159066851Y-91309620D01*
X158927134Y-91389818D01*
X158756132Y-91448925D01*
X158550621Y-91490051D01*
X158340477Y-91513687D01*
X158259607Y-91518357D01*
X158142220Y-91522317D01*
X157994123Y-91525570D01*
X157821126Y-91528119D01*
X157629038Y-91529965D01*
X157423668Y-91531111D01*
X157210825Y-91531559D01*
X156996318Y-91531313D01*
X156785956Y-91530375D01*
X156585547Y-91528747D01*
X156400902Y-91526432D01*
X156237829Y-91523432D01*
X156102137Y-91519750D01*
X155999636Y-91515388D01*
X155958968Y-91512655D01*
X155714698Y-91481965D01*
X155506721Y-91432742D01*
X155332716Y-91363808D01*
X155190361Y-91273981D01*
X155077336Y-91162083D01*
X154991320Y-91026933D01*
X154987255Y-91018654D01*
X154947280Y-90917169D01*
X154908932Y-90785200D01*
X154875055Y-90634580D01*
X154848496Y-90477142D01*
X154839213Y-90402917D01*
X154833355Y-90328170D01*
X154827655Y-90214365D01*
X154822144Y-90064777D01*
X154816854Y-89882681D01*
X154811818Y-89671352D01*
X154807066Y-89434066D01*
X154802631Y-89174096D01*
X154798544Y-88894720D01*
X154794838Y-88599211D01*
X154791543Y-88290844D01*
X154788691Y-87972896D01*
X154786315Y-87648640D01*
X154784445Y-87321352D01*
X154783115Y-86994306D01*
X154782354Y-86670779D01*
X154782196Y-86354046D01*
X154782672Y-86047380D01*
X154783814Y-85754058D01*
X154785652Y-85477354D01*
X154788220Y-85220543D01*
X154788653Y-85185334D01*
X154801316Y-84179917D01*
X155487983Y-84179917D01*
X155502871Y-85502834D01*
X155506028Y-85775254D01*
X155508978Y-86008560D01*
X155511840Y-86205969D01*
X155514731Y-86370700D01*
X155517767Y-86505970D01*
X155521065Y-86614997D01*
X155524743Y-86701000D01*
X155528918Y-86767195D01*
X155533706Y-86816800D01*
X155539224Y-86853034D01*
X155545590Y-86879115D01*
X155552921Y-86898260D01*
X155553672Y-86899834D01*
X155609499Y-86969894D01*
X155704811Y-87030695D01*
X155840042Y-87082382D01*
X156015628Y-87125104D01*
X156232002Y-87159007D01*
X156362167Y-87173334D01*
X156460792Y-87180059D01*
X156592056Y-87184823D01*
X156749187Y-87187725D01*
X156925411Y-87188865D01*
X157113955Y-87188345D01*
X157308049Y-87186263D01*
X157500918Y-87182720D01*
X157685790Y-87177817D01*
X157855893Y-87171654D01*
X158004454Y-87164330D01*
X158124701Y-87155947D01*
X158209861Y-87146604D01*
X158214250Y-87145929D01*
X158315030Y-87129015D01*
X158409784Y-87111324D01*
X158484311Y-87095585D01*
X158510584Y-87089014D01*
X158602144Y-87055699D01*
X158687294Y-87011028D01*
X158754976Y-86961932D01*
X158794137Y-86915343D01*
X158796601Y-86909713D01*
X158801422Y-86876616D01*
X158806065Y-86806023D01*
X158810492Y-86702335D01*
X158814665Y-86569953D01*
X158818546Y-86413279D01*
X158822098Y-86236716D01*
X158825283Y-86044663D01*
X158828062Y-85841524D01*
X158830399Y-85631699D01*
X158832255Y-85419590D01*
X158833593Y-85209599D01*
X158834374Y-85006127D01*
X158834561Y-84813576D01*
X158834116Y-84636348D01*
X158833001Y-84478844D01*
X158831179Y-84345466D01*
X158828611Y-84240615D01*
X158825260Y-84168692D01*
X158821088Y-84134101D01*
X158820462Y-84132535D01*
X158779152Y-84086152D01*
X158708189Y-84036143D01*
X158619000Y-83989110D01*
X158523011Y-83951652D01*
X158491374Y-83942408D01*
X158344151Y-83911279D01*
X158161752Y-83885290D01*
X157951033Y-83864543D01*
X157718851Y-83849141D01*
X157472062Y-83839187D01*
X157217522Y-83834782D01*
X156962089Y-83836031D01*
X156712617Y-83843034D01*
X156475964Y-83855895D01*
X156258987Y-83874717D01*
X156068541Y-83899602D01*
X156032527Y-83905613D01*
X155871862Y-83942184D01*
X155732196Y-83991014D01*
X155620567Y-84049102D01*
X155544011Y-84113444D01*
X155543190Y-84114413D01*
X155487983Y-84179917D01*
X154801316Y-84179917D01*
X154807982Y-83650750D01*
X154859180Y-83544917D01*
X154942949Y-83414030D01*
X155061134Y-83290504D01*
X155205818Y-83181641D01*
X155325838Y-83114549D01*
X155438095Y-83065240D01*
X155557961Y-83023224D01*
X155689530Y-82987979D01*
X155836893Y-82958981D01*
X156004145Y-82935706D01*
X156195379Y-82917633D01*
X156414688Y-82904237D01*
X156666165Y-82894996D01*
X156953904Y-82889387D01*
X157099437Y-82887883D01*
X157275433Y-82886296D01*
X157437586Y-82884474D01*
X157581144Y-82882498D01*
X157701357Y-82880448D01*
X157793476Y-82878407D01*
X157852750Y-82876454D01*
X157874426Y-82874675D01*
X157883097Y-82852877D01*
X157901859Y-82799507D01*
X157927710Y-82723250D01*
X157950058Y-82655917D01*
X157990254Y-82538270D01*
X158023925Y-82453779D01*
X158055745Y-82394777D01*
X158090390Y-82353595D01*
X158132534Y-82322565D01*
X158163724Y-82305448D01*
X158263734Y-82272988D01*
X158372784Y-82267628D01*
X158479566Y-82287021D01*
D13*
%TO.C,J3*%
X167240000Y-79250000D02*
X167740000Y-79000000D01*
X167240000Y-78750000D02*
X167240000Y-79250000D01*
X167740000Y-79000000D02*
X167240000Y-78750000D01*
X172000000Y-80950000D02*
X172000000Y-79840000D01*
X172000000Y-78160000D02*
X172000000Y-77050000D01*
X168290000Y-80950000D02*
X168290000Y-79840000D01*
X168290000Y-78160000D02*
X168290000Y-77050000D01*
%TO.C,J1*%
X118710000Y-79990000D02*
X121340000Y-79990000D01*
X118710000Y-91210000D02*
X118710000Y-90010000D01*
X121460000Y-91210000D02*
X118710000Y-91210000D01*
X121460000Y-77660000D02*
X121460000Y-78790000D01*
X118710000Y-92340000D02*
X121460000Y-92340000D01*
X118710000Y-77660000D02*
X121460000Y-77660000D01*
X121460000Y-92340000D02*
X121460000Y-91210000D01*
X121460000Y-78790000D02*
X118710000Y-78790000D01*
X118710000Y-78790000D02*
X118710000Y-79990000D01*
%TO.C,TR2*%
D10*
X132488095Y-90952380D02*
X133059523Y-90952380D01*
X132773809Y-91952380D02*
X132773809Y-90952380D01*
X133964285Y-91952380D02*
X133630952Y-91476190D01*
X133392857Y-91952380D02*
X133392857Y-90952380D01*
X133773809Y-90952380D01*
X133869047Y-91000000D01*
X133916666Y-91047619D01*
X133964285Y-91142857D01*
X133964285Y-91285714D01*
X133916666Y-91380952D01*
X133869047Y-91428571D01*
X133773809Y-91476190D01*
X133392857Y-91476190D01*
X134345238Y-91047619D02*
X134392857Y-91000000D01*
X134488095Y-90952380D01*
X134726190Y-90952380D01*
X134821428Y-91000000D01*
X134869047Y-91047619D01*
X134916666Y-91142857D01*
X134916666Y-91238095D01*
X134869047Y-91380952D01*
X134297619Y-91952380D01*
X134916666Y-91952380D01*
%TO.C,TR1*%
X132488095Y-76452380D02*
X133059523Y-76452380D01*
X132773809Y-77452380D02*
X132773809Y-76452380D01*
X133964285Y-77452380D02*
X133630952Y-76976190D01*
X133392857Y-77452380D02*
X133392857Y-76452380D01*
X133773809Y-76452380D01*
X133869047Y-76500000D01*
X133916666Y-76547619D01*
X133964285Y-76642857D01*
X133964285Y-76785714D01*
X133916666Y-76880952D01*
X133869047Y-76928571D01*
X133773809Y-76976190D01*
X133392857Y-76976190D01*
X134916666Y-77452380D02*
X134345238Y-77452380D01*
X134630952Y-77452380D02*
X134630952Y-76452380D01*
X134535714Y-76595238D01*
X134440476Y-76690476D01*
X134345238Y-76738095D01*
%TO.C,J2*%
X165952380Y-91333333D02*
X166666666Y-91333333D01*
X166809523Y-91380952D01*
X166904761Y-91476190D01*
X166952380Y-91619047D01*
X166952380Y-91714285D01*
X166047619Y-90904761D02*
X166000000Y-90857142D01*
X165952380Y-90761904D01*
X165952380Y-90523809D01*
X166000000Y-90428571D01*
X166047619Y-90380952D01*
X166142857Y-90333333D01*
X166238095Y-90333333D01*
X166380952Y-90380952D01*
X166952380Y-90952380D01*
X166952380Y-90333333D01*
%TO.C,R4*%
X128083333Y-90602380D02*
X127750000Y-90126190D01*
X127511904Y-90602380D02*
X127511904Y-89602380D01*
X127892857Y-89602380D01*
X127988095Y-89650000D01*
X128035714Y-89697619D01*
X128083333Y-89792857D01*
X128083333Y-89935714D01*
X128035714Y-90030952D01*
X127988095Y-90078571D01*
X127892857Y-90126190D01*
X127511904Y-90126190D01*
X128940476Y-89935714D02*
X128940476Y-90602380D01*
X128702380Y-89554761D02*
X128464285Y-90269047D01*
X129083333Y-90269047D01*
%TO.C,R3*%
X128083333Y-82102380D02*
X127750000Y-81626190D01*
X127511904Y-82102380D02*
X127511904Y-81102380D01*
X127892857Y-81102380D01*
X127988095Y-81150000D01*
X128035714Y-81197619D01*
X128083333Y-81292857D01*
X128083333Y-81435714D01*
X128035714Y-81530952D01*
X127988095Y-81578571D01*
X127892857Y-81626190D01*
X127511904Y-81626190D01*
X128416666Y-81102380D02*
X129035714Y-81102380D01*
X128702380Y-81483333D01*
X128845238Y-81483333D01*
X128940476Y-81530952D01*
X128988095Y-81578571D01*
X129035714Y-81673809D01*
X129035714Y-81911904D01*
X128988095Y-82007142D01*
X128940476Y-82054761D01*
X128845238Y-82102380D01*
X128559523Y-82102380D01*
X128464285Y-82054761D01*
X128416666Y-82007142D01*
%TO.C,L8*%
X152083333Y-86452380D02*
X151607142Y-86452380D01*
X151607142Y-85452380D01*
X152559523Y-85880952D02*
X152464285Y-85833333D01*
X152416666Y-85785714D01*
X152369047Y-85690476D01*
X152369047Y-85642857D01*
X152416666Y-85547619D01*
X152464285Y-85500000D01*
X152559523Y-85452380D01*
X152750000Y-85452380D01*
X152845238Y-85500000D01*
X152892857Y-85547619D01*
X152940476Y-85642857D01*
X152940476Y-85690476D01*
X152892857Y-85785714D01*
X152845238Y-85833333D01*
X152750000Y-85880952D01*
X152559523Y-85880952D01*
X152464285Y-85928571D01*
X152416666Y-85976190D01*
X152369047Y-86071428D01*
X152369047Y-86261904D01*
X152416666Y-86357142D01*
X152464285Y-86404761D01*
X152559523Y-86452380D01*
X152750000Y-86452380D01*
X152845238Y-86404761D01*
X152892857Y-86357142D01*
X152940476Y-86261904D01*
X152940476Y-86071428D01*
X152892857Y-85976190D01*
X152845238Y-85928571D01*
X152750000Y-85880952D01*
%TO.C,L7*%
X152083333Y-77952380D02*
X151607142Y-77952380D01*
X151607142Y-76952380D01*
X152321428Y-76952380D02*
X152988095Y-76952380D01*
X152559523Y-77952380D01*
%TO.C,L6*%
X148083333Y-86452380D02*
X147607142Y-86452380D01*
X147607142Y-85452380D01*
X148845238Y-85452380D02*
X148654761Y-85452380D01*
X148559523Y-85500000D01*
X148511904Y-85547619D01*
X148416666Y-85690476D01*
X148369047Y-85880952D01*
X148369047Y-86261904D01*
X148416666Y-86357142D01*
X148464285Y-86404761D01*
X148559523Y-86452380D01*
X148750000Y-86452380D01*
X148845238Y-86404761D01*
X148892857Y-86357142D01*
X148940476Y-86261904D01*
X148940476Y-86023809D01*
X148892857Y-85928571D01*
X148845238Y-85880952D01*
X148750000Y-85833333D01*
X148559523Y-85833333D01*
X148464285Y-85880952D01*
X148416666Y-85928571D01*
X148369047Y-86023809D01*
%TO.C,L5*%
X148083333Y-77952380D02*
X147607142Y-77952380D01*
X147607142Y-76952380D01*
X148892857Y-76952380D02*
X148416666Y-76952380D01*
X148369047Y-77428571D01*
X148416666Y-77380952D01*
X148511904Y-77333333D01*
X148750000Y-77333333D01*
X148845238Y-77380952D01*
X148892857Y-77428571D01*
X148940476Y-77523809D01*
X148940476Y-77761904D01*
X148892857Y-77857142D01*
X148845238Y-77904761D01*
X148750000Y-77952380D01*
X148511904Y-77952380D01*
X148416666Y-77904761D01*
X148369047Y-77857142D01*
%TO.C,L4*%
X144083333Y-86452380D02*
X143607142Y-86452380D01*
X143607142Y-85452380D01*
X144845238Y-85785714D02*
X144845238Y-86452380D01*
X144607142Y-85404761D02*
X144369047Y-86119047D01*
X144988095Y-86119047D01*
%TO.C,L3*%
X144083333Y-77952380D02*
X143607142Y-77952380D01*
X143607142Y-76952380D01*
X144321428Y-76952380D02*
X144940476Y-76952380D01*
X144607142Y-77333333D01*
X144750000Y-77333333D01*
X144845238Y-77380952D01*
X144892857Y-77428571D01*
X144940476Y-77523809D01*
X144940476Y-77761904D01*
X144892857Y-77857142D01*
X144845238Y-77904761D01*
X144750000Y-77952380D01*
X144464285Y-77952380D01*
X144369047Y-77904761D01*
X144321428Y-77857142D01*
%TO.C,L2*%
X140083333Y-86452380D02*
X139607142Y-86452380D01*
X139607142Y-85452380D01*
X140369047Y-85547619D02*
X140416666Y-85500000D01*
X140511904Y-85452380D01*
X140750000Y-85452380D01*
X140845238Y-85500000D01*
X140892857Y-85547619D01*
X140940476Y-85642857D01*
X140940476Y-85738095D01*
X140892857Y-85880952D01*
X140321428Y-86452380D01*
X140940476Y-86452380D01*
%TO.C,L1*%
X140083333Y-77952380D02*
X139607142Y-77952380D01*
X139607142Y-76952380D01*
X140940476Y-77952380D02*
X140369047Y-77952380D01*
X140654761Y-77952380D02*
X140654761Y-76952380D01*
X140559523Y-77095238D01*
X140464285Y-77190476D01*
X140369047Y-77238095D01*
%TO.C,C9*%
X150083333Y-91107142D02*
X150035714Y-91154761D01*
X149892857Y-91202380D01*
X149797619Y-91202380D01*
X149654761Y-91154761D01*
X149559523Y-91059523D01*
X149511904Y-90964285D01*
X149464285Y-90773809D01*
X149464285Y-90630952D01*
X149511904Y-90440476D01*
X149559523Y-90345238D01*
X149654761Y-90250000D01*
X149797619Y-90202380D01*
X149892857Y-90202380D01*
X150035714Y-90250000D01*
X150083333Y-90297619D01*
X150559523Y-91202380D02*
X150750000Y-91202380D01*
X150845238Y-91154761D01*
X150892857Y-91107142D01*
X150988095Y-90964285D01*
X151035714Y-90773809D01*
X151035714Y-90392857D01*
X150988095Y-90297619D01*
X150940476Y-90250000D01*
X150845238Y-90202380D01*
X150654761Y-90202380D01*
X150559523Y-90250000D01*
X150511904Y-90297619D01*
X150464285Y-90392857D01*
X150464285Y-90630952D01*
X150511904Y-90726190D01*
X150559523Y-90773809D01*
X150654761Y-90821428D01*
X150845238Y-90821428D01*
X150940476Y-90773809D01*
X150988095Y-90726190D01*
X151035714Y-90630952D01*
%TO.C,C8*%
X150083333Y-82607142D02*
X150035714Y-82654761D01*
X149892857Y-82702380D01*
X149797619Y-82702380D01*
X149654761Y-82654761D01*
X149559523Y-82559523D01*
X149511904Y-82464285D01*
X149464285Y-82273809D01*
X149464285Y-82130952D01*
X149511904Y-81940476D01*
X149559523Y-81845238D01*
X149654761Y-81750000D01*
X149797619Y-81702380D01*
X149892857Y-81702380D01*
X150035714Y-81750000D01*
X150083333Y-81797619D01*
X150654761Y-82130952D02*
X150559523Y-82083333D01*
X150511904Y-82035714D01*
X150464285Y-81940476D01*
X150464285Y-81892857D01*
X150511904Y-81797619D01*
X150559523Y-81750000D01*
X150654761Y-81702380D01*
X150845238Y-81702380D01*
X150940476Y-81750000D01*
X150988095Y-81797619D01*
X151035714Y-81892857D01*
X151035714Y-81940476D01*
X150988095Y-82035714D01*
X150940476Y-82083333D01*
X150845238Y-82130952D01*
X150654761Y-82130952D01*
X150559523Y-82178571D01*
X150511904Y-82226190D01*
X150464285Y-82321428D01*
X150464285Y-82511904D01*
X150511904Y-82607142D01*
X150559523Y-82654761D01*
X150654761Y-82702380D01*
X150845238Y-82702380D01*
X150940476Y-82654761D01*
X150988095Y-82607142D01*
X151035714Y-82511904D01*
X151035714Y-82321428D01*
X150988095Y-82226190D01*
X150940476Y-82178571D01*
X150845238Y-82130952D01*
%TO.C,C7*%
X146083333Y-91107142D02*
X146035714Y-91154761D01*
X145892857Y-91202380D01*
X145797619Y-91202380D01*
X145654761Y-91154761D01*
X145559523Y-91059523D01*
X145511904Y-90964285D01*
X145464285Y-90773809D01*
X145464285Y-90630952D01*
X145511904Y-90440476D01*
X145559523Y-90345238D01*
X145654761Y-90250000D01*
X145797619Y-90202380D01*
X145892857Y-90202380D01*
X146035714Y-90250000D01*
X146083333Y-90297619D01*
X146416666Y-90202380D02*
X147083333Y-90202380D01*
X146654761Y-91202380D01*
%TO.C,C6*%
X146083333Y-82607142D02*
X146035714Y-82654761D01*
X145892857Y-82702380D01*
X145797619Y-82702380D01*
X145654761Y-82654761D01*
X145559523Y-82559523D01*
X145511904Y-82464285D01*
X145464285Y-82273809D01*
X145464285Y-82130952D01*
X145511904Y-81940476D01*
X145559523Y-81845238D01*
X145654761Y-81750000D01*
X145797619Y-81702380D01*
X145892857Y-81702380D01*
X146035714Y-81750000D01*
X146083333Y-81797619D01*
X146940476Y-81702380D02*
X146750000Y-81702380D01*
X146654761Y-81750000D01*
X146607142Y-81797619D01*
X146511904Y-81940476D01*
X146464285Y-82130952D01*
X146464285Y-82511904D01*
X146511904Y-82607142D01*
X146559523Y-82654761D01*
X146654761Y-82702380D01*
X146845238Y-82702380D01*
X146940476Y-82654761D01*
X146988095Y-82607142D01*
X147035714Y-82511904D01*
X147035714Y-82273809D01*
X146988095Y-82178571D01*
X146940476Y-82130952D01*
X146845238Y-82083333D01*
X146654761Y-82083333D01*
X146559523Y-82130952D01*
X146511904Y-82178571D01*
X146464285Y-82273809D01*
%TO.C,C5*%
X142083333Y-91107142D02*
X142035714Y-91154761D01*
X141892857Y-91202380D01*
X141797619Y-91202380D01*
X141654761Y-91154761D01*
X141559523Y-91059523D01*
X141511904Y-90964285D01*
X141464285Y-90773809D01*
X141464285Y-90630952D01*
X141511904Y-90440476D01*
X141559523Y-90345238D01*
X141654761Y-90250000D01*
X141797619Y-90202380D01*
X141892857Y-90202380D01*
X142035714Y-90250000D01*
X142083333Y-90297619D01*
X142988095Y-90202380D02*
X142511904Y-90202380D01*
X142464285Y-90678571D01*
X142511904Y-90630952D01*
X142607142Y-90583333D01*
X142845238Y-90583333D01*
X142940476Y-90630952D01*
X142988095Y-90678571D01*
X143035714Y-90773809D01*
X143035714Y-91011904D01*
X142988095Y-91107142D01*
X142940476Y-91154761D01*
X142845238Y-91202380D01*
X142607142Y-91202380D01*
X142511904Y-91154761D01*
X142464285Y-91107142D01*
%TO.C,C4*%
X142083333Y-82607142D02*
X142035714Y-82654761D01*
X141892857Y-82702380D01*
X141797619Y-82702380D01*
X141654761Y-82654761D01*
X141559523Y-82559523D01*
X141511904Y-82464285D01*
X141464285Y-82273809D01*
X141464285Y-82130952D01*
X141511904Y-81940476D01*
X141559523Y-81845238D01*
X141654761Y-81750000D01*
X141797619Y-81702380D01*
X141892857Y-81702380D01*
X142035714Y-81750000D01*
X142083333Y-81797619D01*
X142940476Y-82035714D02*
X142940476Y-82702380D01*
X142702380Y-81654761D02*
X142464285Y-82369047D01*
X143083333Y-82369047D01*
%TO.C,C3*%
X138083333Y-91107142D02*
X138035714Y-91154761D01*
X137892857Y-91202380D01*
X137797619Y-91202380D01*
X137654761Y-91154761D01*
X137559523Y-91059523D01*
X137511904Y-90964285D01*
X137464285Y-90773809D01*
X137464285Y-90630952D01*
X137511904Y-90440476D01*
X137559523Y-90345238D01*
X137654761Y-90250000D01*
X137797619Y-90202380D01*
X137892857Y-90202380D01*
X138035714Y-90250000D01*
X138083333Y-90297619D01*
X138416666Y-90202380D02*
X139035714Y-90202380D01*
X138702380Y-90583333D01*
X138845238Y-90583333D01*
X138940476Y-90630952D01*
X138988095Y-90678571D01*
X139035714Y-90773809D01*
X139035714Y-91011904D01*
X138988095Y-91107142D01*
X138940476Y-91154761D01*
X138845238Y-91202380D01*
X138559523Y-91202380D01*
X138464285Y-91154761D01*
X138416666Y-91107142D01*
%TO.C,C2*%
X138083333Y-82607142D02*
X138035714Y-82654761D01*
X137892857Y-82702380D01*
X137797619Y-82702380D01*
X137654761Y-82654761D01*
X137559523Y-82559523D01*
X137511904Y-82464285D01*
X137464285Y-82273809D01*
X137464285Y-82130952D01*
X137511904Y-81940476D01*
X137559523Y-81845238D01*
X137654761Y-81750000D01*
X137797619Y-81702380D01*
X137892857Y-81702380D01*
X138035714Y-81750000D01*
X138083333Y-81797619D01*
X138464285Y-81797619D02*
X138511904Y-81750000D01*
X138607142Y-81702380D01*
X138845238Y-81702380D01*
X138940476Y-81750000D01*
X138988095Y-81797619D01*
X139035714Y-81892857D01*
X139035714Y-81988095D01*
X138988095Y-82130952D01*
X138416666Y-82702380D01*
X139035714Y-82702380D01*
%TO.C,J3*%
X165952380Y-79333333D02*
X166666666Y-79333333D01*
X166809523Y-79380952D01*
X166904761Y-79476190D01*
X166952380Y-79619047D01*
X166952380Y-79714285D01*
X165952380Y-78952380D02*
X165952380Y-78333333D01*
X166333333Y-78666666D01*
X166333333Y-78523809D01*
X166380952Y-78428571D01*
X166428571Y-78380952D01*
X166523809Y-78333333D01*
X166761904Y-78333333D01*
X166857142Y-78380952D01*
X166904761Y-78428571D01*
X166952380Y-78523809D01*
X166952380Y-78809523D01*
X166904761Y-78904761D01*
X166857142Y-78952380D01*
%TO.C,J1*%
X121982380Y-85323333D02*
X122696666Y-85323333D01*
X122839523Y-85370952D01*
X122934761Y-85466190D01*
X122982380Y-85609047D01*
X122982380Y-85704285D01*
X122982380Y-84323333D02*
X122982380Y-84894761D01*
X122982380Y-84609047D02*
X121982380Y-84609047D01*
X122125238Y-84704285D01*
X122220476Y-84799523D01*
X122268095Y-84894761D01*
%TD*%
M02*
