%TF.GenerationSoftware,KiCad,Pcbnew,5.1.10-1.fc33*%
%TF.CreationDate,2021-10-09T21:05:27-05:00*%
%TF.ProjectId,serdes-rf-hdmi,73657264-6573-42d7-9266-2d68646d692e,B*%
%TF.SameCoordinates,Original*%
%TF.FileFunction,Legend,Bot*%
%TF.FilePolarity,Positive*%
%FSLAX46Y46*%
G04 Gerber Fmt 4.6, Leading zero omitted, Abs format (unit mm)*
G04 Created by KiCad (PCBNEW 5.1.10-1.fc33) date 2021-10-09 21:05:27*
%MOMM*%
%LPD*%
G01*
G04 APERTURE LIST*
%ADD10C,0.010000*%
%ADD11C,0.120000*%
%ADD12C,0.150000*%
G04 APERTURE END LIST*
D10*
%TO.C,REF\u002A\u002A*%
G36*
X164919918Y-82099744D02*
G01*
X164947568Y-82155201D01*
X164998480Y-82204148D01*
X165017338Y-82217629D01*
X165042015Y-82232314D01*
X165068816Y-82241842D01*
X165104587Y-82247293D01*
X165156169Y-82249747D01*
X165224267Y-82250286D01*
X165317588Y-82247852D01*
X165387657Y-82239394D01*
X165439931Y-82223174D01*
X165479869Y-82197454D01*
X165512929Y-82160497D01*
X165514886Y-82157782D01*
X165534908Y-82121360D01*
X165544815Y-82077502D01*
X165547257Y-82021724D01*
X165547257Y-81931048D01*
X165635283Y-81931010D01*
X165684308Y-81930166D01*
X165713065Y-81925024D01*
X165730311Y-81911587D01*
X165744808Y-81885858D01*
X165747769Y-81879679D01*
X165761648Y-81850764D01*
X165770414Y-81828376D01*
X165771171Y-81811729D01*
X165761023Y-81800036D01*
X165737073Y-81792510D01*
X165696426Y-81788366D01*
X165636186Y-81786815D01*
X165553455Y-81787071D01*
X165445339Y-81788349D01*
X165413000Y-81788748D01*
X165301524Y-81790185D01*
X165228603Y-81791472D01*
X165228603Y-81930971D01*
X165290499Y-81931755D01*
X165330997Y-81935240D01*
X165357708Y-81943124D01*
X165378244Y-81957105D01*
X165388260Y-81966597D01*
X165417567Y-82005404D01*
X165419952Y-82039763D01*
X165395750Y-82075216D01*
X165394857Y-82076114D01*
X165376153Y-82090539D01*
X165350732Y-82099313D01*
X165311584Y-82103739D01*
X165251697Y-82105118D01*
X165238430Y-82105143D01*
X165155901Y-82101812D01*
X165098691Y-82090969D01*
X165063766Y-82071340D01*
X165048094Y-82041650D01*
X165046514Y-82024491D01*
X165053926Y-81983766D01*
X165078330Y-81955832D01*
X165122980Y-81939017D01*
X165191130Y-81931650D01*
X165228603Y-81930971D01*
X165228603Y-81791472D01*
X165215245Y-81791708D01*
X165150333Y-81793677D01*
X165102958Y-81796450D01*
X165069290Y-81800388D01*
X165045498Y-81805849D01*
X165027753Y-81813192D01*
X165012224Y-81822777D01*
X165006381Y-81826887D01*
X164951185Y-81881405D01*
X164919890Y-81950336D01*
X164911165Y-82030072D01*
X164919918Y-82099744D01*
G37*
X164919918Y-82099744D02*
X164947568Y-82155201D01*
X164998480Y-82204148D01*
X165017338Y-82217629D01*
X165042015Y-82232314D01*
X165068816Y-82241842D01*
X165104587Y-82247293D01*
X165156169Y-82249747D01*
X165224267Y-82250286D01*
X165317588Y-82247852D01*
X165387657Y-82239394D01*
X165439931Y-82223174D01*
X165479869Y-82197454D01*
X165512929Y-82160497D01*
X165514886Y-82157782D01*
X165534908Y-82121360D01*
X165544815Y-82077502D01*
X165547257Y-82021724D01*
X165547257Y-81931048D01*
X165635283Y-81931010D01*
X165684308Y-81930166D01*
X165713065Y-81925024D01*
X165730311Y-81911587D01*
X165744808Y-81885858D01*
X165747769Y-81879679D01*
X165761648Y-81850764D01*
X165770414Y-81828376D01*
X165771171Y-81811729D01*
X165761023Y-81800036D01*
X165737073Y-81792510D01*
X165696426Y-81788366D01*
X165636186Y-81786815D01*
X165553455Y-81787071D01*
X165445339Y-81788349D01*
X165413000Y-81788748D01*
X165301524Y-81790185D01*
X165228603Y-81791472D01*
X165228603Y-81930971D01*
X165290499Y-81931755D01*
X165330997Y-81935240D01*
X165357708Y-81943124D01*
X165378244Y-81957105D01*
X165388260Y-81966597D01*
X165417567Y-82005404D01*
X165419952Y-82039763D01*
X165395750Y-82075216D01*
X165394857Y-82076114D01*
X165376153Y-82090539D01*
X165350732Y-82099313D01*
X165311584Y-82103739D01*
X165251697Y-82105118D01*
X165238430Y-82105143D01*
X165155901Y-82101812D01*
X165098691Y-82090969D01*
X165063766Y-82071340D01*
X165048094Y-82041650D01*
X165046514Y-82024491D01*
X165053926Y-81983766D01*
X165078330Y-81955832D01*
X165122980Y-81939017D01*
X165191130Y-81931650D01*
X165228603Y-81930971D01*
X165228603Y-81791472D01*
X165215245Y-81791708D01*
X165150333Y-81793677D01*
X165102958Y-81796450D01*
X165069290Y-81800388D01*
X165045498Y-81805849D01*
X165027753Y-81813192D01*
X165012224Y-81822777D01*
X165006381Y-81826887D01*
X164951185Y-81881405D01*
X164919890Y-81950336D01*
X164911165Y-82030072D01*
X164919918Y-82099744D01*
G36*
X164927780Y-83216093D02*
G01*
X164954723Y-83262672D01*
X164981466Y-83295057D01*
X165009484Y-83318742D01*
X165043748Y-83335059D01*
X165089227Y-83345339D01*
X165150892Y-83350914D01*
X165233711Y-83353116D01*
X165293246Y-83353371D01*
X165512391Y-83353371D01*
X165540044Y-83291686D01*
X165567697Y-83230000D01*
X165327670Y-83222743D01*
X165238028Y-83219744D01*
X165172962Y-83216598D01*
X165128026Y-83212701D01*
X165098770Y-83207447D01*
X165080748Y-83200231D01*
X165069511Y-83190450D01*
X165067079Y-83187312D01*
X165048083Y-83139761D01*
X165055600Y-83091697D01*
X165075543Y-83063086D01*
X165089675Y-83051447D01*
X165108220Y-83043391D01*
X165136334Y-83038271D01*
X165179173Y-83035441D01*
X165241895Y-83034256D01*
X165307261Y-83034057D01*
X165389268Y-83034018D01*
X165447316Y-83032614D01*
X165486465Y-83027914D01*
X165511780Y-83017987D01*
X165528323Y-83000903D01*
X165541156Y-82974732D01*
X165554491Y-82939775D01*
X165569007Y-82901596D01*
X165311389Y-82906141D01*
X165218519Y-82907971D01*
X165149889Y-82910112D01*
X165100711Y-82913181D01*
X165066198Y-82917794D01*
X165041562Y-82924568D01*
X165022016Y-82934119D01*
X165004770Y-82945634D01*
X164949680Y-83001190D01*
X164917822Y-83068980D01*
X164910191Y-83142713D01*
X164927780Y-83216093D01*
G37*
X164927780Y-83216093D02*
X164954723Y-83262672D01*
X164981466Y-83295057D01*
X165009484Y-83318742D01*
X165043748Y-83335059D01*
X165089227Y-83345339D01*
X165150892Y-83350914D01*
X165233711Y-83353116D01*
X165293246Y-83353371D01*
X165512391Y-83353371D01*
X165540044Y-83291686D01*
X165567697Y-83230000D01*
X165327670Y-83222743D01*
X165238028Y-83219744D01*
X165172962Y-83216598D01*
X165128026Y-83212701D01*
X165098770Y-83207447D01*
X165080748Y-83200231D01*
X165069511Y-83190450D01*
X165067079Y-83187312D01*
X165048083Y-83139761D01*
X165055600Y-83091697D01*
X165075543Y-83063086D01*
X165089675Y-83051447D01*
X165108220Y-83043391D01*
X165136334Y-83038271D01*
X165179173Y-83035441D01*
X165241895Y-83034256D01*
X165307261Y-83034057D01*
X165389268Y-83034018D01*
X165447316Y-83032614D01*
X165486465Y-83027914D01*
X165511780Y-83017987D01*
X165528323Y-83000903D01*
X165541156Y-82974732D01*
X165554491Y-82939775D01*
X165569007Y-82901596D01*
X165311389Y-82906141D01*
X165218519Y-82907971D01*
X165149889Y-82910112D01*
X165100711Y-82913181D01*
X165066198Y-82917794D01*
X165041562Y-82924568D01*
X165022016Y-82934119D01*
X165004770Y-82945634D01*
X164949680Y-83001190D01*
X164917822Y-83068980D01*
X164910191Y-83142713D01*
X164927780Y-83216093D01*
G36*
X164921962Y-81541115D02*
G01*
X164957733Y-81609145D01*
X165015301Y-81659351D01*
X165052312Y-81677185D01*
X165107882Y-81691063D01*
X165178096Y-81698167D01*
X165254727Y-81698840D01*
X165329552Y-81693427D01*
X165394342Y-81682270D01*
X165440873Y-81665714D01*
X165448887Y-81660626D01*
X165508707Y-81600355D01*
X165544535Y-81528769D01*
X165555020Y-81451092D01*
X165538810Y-81372548D01*
X165529092Y-81350689D01*
X165499143Y-81308122D01*
X165459433Y-81270763D01*
X165454397Y-81267232D01*
X165430124Y-81252881D01*
X165404178Y-81243394D01*
X165370022Y-81237790D01*
X165321119Y-81235086D01*
X165250935Y-81234299D01*
X165235200Y-81234286D01*
X165230192Y-81234322D01*
X165230192Y-81379429D01*
X165296430Y-81380273D01*
X165340386Y-81383596D01*
X165368779Y-81390583D01*
X165388325Y-81402416D01*
X165394857Y-81408457D01*
X165419680Y-81443186D01*
X165418548Y-81476903D01*
X165397016Y-81510995D01*
X165374029Y-81531329D01*
X165340478Y-81543371D01*
X165287569Y-81550134D01*
X165281399Y-81550598D01*
X165185513Y-81551752D01*
X165114299Y-81539688D01*
X165068194Y-81514570D01*
X165047635Y-81476560D01*
X165046514Y-81462992D01*
X165052152Y-81427364D01*
X165071686Y-81402994D01*
X165109042Y-81388093D01*
X165168150Y-81380875D01*
X165230192Y-81379429D01*
X165230192Y-81234322D01*
X165160413Y-81234826D01*
X165108159Y-81237096D01*
X165071949Y-81242068D01*
X165045299Y-81250713D01*
X165021722Y-81264005D01*
X165017338Y-81266943D01*
X164958249Y-81316313D01*
X164923947Y-81370109D01*
X164910331Y-81435602D01*
X164909665Y-81457842D01*
X164921962Y-81541115D01*
G37*
X164921962Y-81541115D02*
X164957733Y-81609145D01*
X165015301Y-81659351D01*
X165052312Y-81677185D01*
X165107882Y-81691063D01*
X165178096Y-81698167D01*
X165254727Y-81698840D01*
X165329552Y-81693427D01*
X165394342Y-81682270D01*
X165440873Y-81665714D01*
X165448887Y-81660626D01*
X165508707Y-81600355D01*
X165544535Y-81528769D01*
X165555020Y-81451092D01*
X165538810Y-81372548D01*
X165529092Y-81350689D01*
X165499143Y-81308122D01*
X165459433Y-81270763D01*
X165454397Y-81267232D01*
X165430124Y-81252881D01*
X165404178Y-81243394D01*
X165370022Y-81237790D01*
X165321119Y-81235086D01*
X165250935Y-81234299D01*
X165235200Y-81234286D01*
X165230192Y-81234322D01*
X165230192Y-81379429D01*
X165296430Y-81380273D01*
X165340386Y-81383596D01*
X165368779Y-81390583D01*
X165388325Y-81402416D01*
X165394857Y-81408457D01*
X165419680Y-81443186D01*
X165418548Y-81476903D01*
X165397016Y-81510995D01*
X165374029Y-81531329D01*
X165340478Y-81543371D01*
X165287569Y-81550134D01*
X165281399Y-81550598D01*
X165185513Y-81551752D01*
X165114299Y-81539688D01*
X165068194Y-81514570D01*
X165047635Y-81476560D01*
X165046514Y-81462992D01*
X165052152Y-81427364D01*
X165071686Y-81402994D01*
X165109042Y-81388093D01*
X165168150Y-81380875D01*
X165230192Y-81379429D01*
X165230192Y-81234322D01*
X165160413Y-81234826D01*
X165108159Y-81237096D01*
X165071949Y-81242068D01*
X165045299Y-81250713D01*
X165021722Y-81264005D01*
X165017338Y-81266943D01*
X164958249Y-81316313D01*
X164923947Y-81370109D01*
X164910331Y-81435602D01*
X164909665Y-81457842D01*
X164921962Y-81541115D01*
G36*
X164931239Y-82668303D02*
G01*
X164969735Y-82725527D01*
X165025335Y-82769749D01*
X165096086Y-82796167D01*
X165148162Y-82801510D01*
X165169893Y-82800903D01*
X165186531Y-82795822D01*
X165201437Y-82781855D01*
X165217973Y-82754589D01*
X165239498Y-82709612D01*
X165269374Y-82642511D01*
X165269524Y-82642171D01*
X165297813Y-82580407D01*
X165322933Y-82529759D01*
X165342179Y-82495404D01*
X165352848Y-82482518D01*
X165352934Y-82482514D01*
X165376166Y-82493872D01*
X165401774Y-82520431D01*
X165420221Y-82550923D01*
X165423886Y-82566370D01*
X165411212Y-82608515D01*
X165379471Y-82644808D01*
X165344572Y-82662517D01*
X165318845Y-82679552D01*
X165289546Y-82712922D01*
X165264235Y-82752149D01*
X165250471Y-82786756D01*
X165249714Y-82793993D01*
X165262160Y-82802139D01*
X165293972Y-82802630D01*
X165336866Y-82796643D01*
X165382558Y-82785357D01*
X165422761Y-82769950D01*
X165424322Y-82769171D01*
X165489062Y-82722804D01*
X165533097Y-82662711D01*
X165554711Y-82594465D01*
X165552185Y-82523638D01*
X165523804Y-82455804D01*
X165521808Y-82452788D01*
X165473448Y-82399427D01*
X165410352Y-82364340D01*
X165327387Y-82344922D01*
X165304078Y-82342316D01*
X165194055Y-82337701D01*
X165142748Y-82343233D01*
X165142748Y-82482514D01*
X165174753Y-82484324D01*
X165184093Y-82494222D01*
X165177105Y-82518898D01*
X165160587Y-82557795D01*
X165139881Y-82601275D01*
X165139333Y-82602356D01*
X165119949Y-82639209D01*
X165107013Y-82654000D01*
X165093451Y-82650353D01*
X165075632Y-82634995D01*
X165049845Y-82595923D01*
X165047950Y-82553846D01*
X165066717Y-82516103D01*
X165102915Y-82490034D01*
X165142748Y-82482514D01*
X165142748Y-82343233D01*
X165106027Y-82347194D01*
X165036212Y-82371550D01*
X164987302Y-82405456D01*
X164937878Y-82466653D01*
X164913359Y-82534063D01*
X164911797Y-82602880D01*
X164931239Y-82668303D01*
G37*
X164931239Y-82668303D02*
X164969735Y-82725527D01*
X165025335Y-82769749D01*
X165096086Y-82796167D01*
X165148162Y-82801510D01*
X165169893Y-82800903D01*
X165186531Y-82795822D01*
X165201437Y-82781855D01*
X165217973Y-82754589D01*
X165239498Y-82709612D01*
X165269374Y-82642511D01*
X165269524Y-82642171D01*
X165297813Y-82580407D01*
X165322933Y-82529759D01*
X165342179Y-82495404D01*
X165352848Y-82482518D01*
X165352934Y-82482514D01*
X165376166Y-82493872D01*
X165401774Y-82520431D01*
X165420221Y-82550923D01*
X165423886Y-82566370D01*
X165411212Y-82608515D01*
X165379471Y-82644808D01*
X165344572Y-82662517D01*
X165318845Y-82679552D01*
X165289546Y-82712922D01*
X165264235Y-82752149D01*
X165250471Y-82786756D01*
X165249714Y-82793993D01*
X165262160Y-82802139D01*
X165293972Y-82802630D01*
X165336866Y-82796643D01*
X165382558Y-82785357D01*
X165422761Y-82769950D01*
X165424322Y-82769171D01*
X165489062Y-82722804D01*
X165533097Y-82662711D01*
X165554711Y-82594465D01*
X165552185Y-82523638D01*
X165523804Y-82455804D01*
X165521808Y-82452788D01*
X165473448Y-82399427D01*
X165410352Y-82364340D01*
X165327387Y-82344922D01*
X165304078Y-82342316D01*
X165194055Y-82337701D01*
X165142748Y-82343233D01*
X165142748Y-82482514D01*
X165174753Y-82484324D01*
X165184093Y-82494222D01*
X165177105Y-82518898D01*
X165160587Y-82557795D01*
X165139881Y-82601275D01*
X165139333Y-82602356D01*
X165119949Y-82639209D01*
X165107013Y-82654000D01*
X165093451Y-82650353D01*
X165075632Y-82634995D01*
X165049845Y-82595923D01*
X165047950Y-82553846D01*
X165066717Y-82516103D01*
X165102915Y-82490034D01*
X165142748Y-82482514D01*
X165142748Y-82343233D01*
X165106027Y-82347194D01*
X165036212Y-82371550D01*
X164987302Y-82405456D01*
X164937878Y-82466653D01*
X164913359Y-82534063D01*
X164911797Y-82602880D01*
X164931239Y-82668303D01*
G36*
X164851289Y-83875886D02*
G01*
X164910613Y-83880139D01*
X164945572Y-83885025D01*
X164960820Y-83891795D01*
X164961015Y-83901702D01*
X164959195Y-83904914D01*
X164946015Y-83947644D01*
X164946785Y-84003227D01*
X164960333Y-84059737D01*
X164977861Y-84095082D01*
X165005861Y-84131321D01*
X165037549Y-84157813D01*
X165077813Y-84175999D01*
X165131543Y-84187322D01*
X165203626Y-84193222D01*
X165298951Y-84195143D01*
X165317237Y-84195177D01*
X165522646Y-84195200D01*
X165538580Y-84149491D01*
X165549420Y-84117027D01*
X165554468Y-84099215D01*
X165554514Y-84098691D01*
X165540828Y-84096937D01*
X165503076Y-84095444D01*
X165446224Y-84094326D01*
X165375234Y-84093697D01*
X165332073Y-84093600D01*
X165246973Y-84093398D01*
X165185981Y-84092358D01*
X165144177Y-84089831D01*
X165116642Y-84085164D01*
X165098456Y-84077707D01*
X165084698Y-84066811D01*
X165078073Y-84060007D01*
X165051375Y-84013272D01*
X165049375Y-83962272D01*
X165071955Y-83916001D01*
X165080107Y-83907444D01*
X165095436Y-83894893D01*
X165113618Y-83886188D01*
X165139909Y-83880631D01*
X165179562Y-83877526D01*
X165237832Y-83876176D01*
X165318173Y-83875886D01*
X165522646Y-83875886D01*
X165538580Y-83830177D01*
X165549420Y-83797713D01*
X165554468Y-83779901D01*
X165554514Y-83779377D01*
X165540623Y-83778037D01*
X165501439Y-83776828D01*
X165440700Y-83775801D01*
X165362141Y-83775002D01*
X165269498Y-83774481D01*
X165166509Y-83774286D01*
X164769342Y-83774286D01*
X164749444Y-83821457D01*
X164729547Y-83868629D01*
X164851289Y-83875886D01*
G37*
X164851289Y-83875886D02*
X164910613Y-83880139D01*
X164945572Y-83885025D01*
X164960820Y-83891795D01*
X164961015Y-83901702D01*
X164959195Y-83904914D01*
X164946015Y-83947644D01*
X164946785Y-84003227D01*
X164960333Y-84059737D01*
X164977861Y-84095082D01*
X165005861Y-84131321D01*
X165037549Y-84157813D01*
X165077813Y-84175999D01*
X165131543Y-84187322D01*
X165203626Y-84193222D01*
X165298951Y-84195143D01*
X165317237Y-84195177D01*
X165522646Y-84195200D01*
X165538580Y-84149491D01*
X165549420Y-84117027D01*
X165554468Y-84099215D01*
X165554514Y-84098691D01*
X165540828Y-84096937D01*
X165503076Y-84095444D01*
X165446224Y-84094326D01*
X165375234Y-84093697D01*
X165332073Y-84093600D01*
X165246973Y-84093398D01*
X165185981Y-84092358D01*
X165144177Y-84089831D01*
X165116642Y-84085164D01*
X165098456Y-84077707D01*
X165084698Y-84066811D01*
X165078073Y-84060007D01*
X165051375Y-84013272D01*
X165049375Y-83962272D01*
X165071955Y-83916001D01*
X165080107Y-83907444D01*
X165095436Y-83894893D01*
X165113618Y-83886188D01*
X165139909Y-83880631D01*
X165179562Y-83877526D01*
X165237832Y-83876176D01*
X165318173Y-83875886D01*
X165522646Y-83875886D01*
X165538580Y-83830177D01*
X165549420Y-83797713D01*
X165554468Y-83779901D01*
X165554514Y-83779377D01*
X165540623Y-83778037D01*
X165501439Y-83776828D01*
X165440700Y-83775801D01*
X165362141Y-83775002D01*
X165269498Y-83774481D01*
X165166509Y-83774286D01*
X164769342Y-83774286D01*
X164749444Y-83821457D01*
X164729547Y-83868629D01*
X164851289Y-83875886D01*
G36*
X164950968Y-84539744D02*
G01*
X164972087Y-84596616D01*
X164972493Y-84597267D01*
X164998380Y-84632440D01*
X165028633Y-84658407D01*
X165068058Y-84676670D01*
X165121462Y-84688732D01*
X165193651Y-84696096D01*
X165289432Y-84700264D01*
X165303078Y-84700629D01*
X165508842Y-84705876D01*
X165531678Y-84661716D01*
X165547110Y-84629763D01*
X165554423Y-84610470D01*
X165554514Y-84609578D01*
X165541022Y-84606239D01*
X165504626Y-84603587D01*
X165451452Y-84601956D01*
X165408393Y-84601600D01*
X165338641Y-84601592D01*
X165294837Y-84598403D01*
X165273944Y-84587288D01*
X165272925Y-84563501D01*
X165288741Y-84522296D01*
X165317815Y-84460086D01*
X165341963Y-84414341D01*
X165362913Y-84390813D01*
X165385747Y-84383896D01*
X165386877Y-84383886D01*
X165426212Y-84395299D01*
X165447462Y-84429092D01*
X165450539Y-84480809D01*
X165450006Y-84518061D01*
X165460735Y-84537703D01*
X165486505Y-84549952D01*
X165519337Y-84557002D01*
X165537966Y-84546842D01*
X165540632Y-84543017D01*
X165551340Y-84507001D01*
X165552856Y-84456566D01*
X165545759Y-84404626D01*
X165532788Y-84367822D01*
X165489585Y-84316938D01*
X165429446Y-84288014D01*
X165382462Y-84282286D01*
X165340082Y-84286657D01*
X165305488Y-84302475D01*
X165274763Y-84333797D01*
X165243990Y-84384678D01*
X165209252Y-84459176D01*
X165207288Y-84463714D01*
X165176287Y-84530821D01*
X165150862Y-84572232D01*
X165128014Y-84589981D01*
X165104745Y-84586107D01*
X165078056Y-84562643D01*
X165071914Y-84555627D01*
X165048100Y-84508630D01*
X165049103Y-84459933D01*
X165072451Y-84417522D01*
X165115675Y-84389384D01*
X165124160Y-84386769D01*
X165165308Y-84361308D01*
X165185128Y-84329001D01*
X165204770Y-84282286D01*
X165153950Y-84282286D01*
X165080082Y-84296496D01*
X165012327Y-84338675D01*
X164989661Y-84360624D01*
X164960569Y-84410517D01*
X164947400Y-84473967D01*
X164950968Y-84539744D01*
G37*
X164950968Y-84539744D02*
X164972087Y-84596616D01*
X164972493Y-84597267D01*
X164998380Y-84632440D01*
X165028633Y-84658407D01*
X165068058Y-84676670D01*
X165121462Y-84688732D01*
X165193651Y-84696096D01*
X165289432Y-84700264D01*
X165303078Y-84700629D01*
X165508842Y-84705876D01*
X165531678Y-84661716D01*
X165547110Y-84629763D01*
X165554423Y-84610470D01*
X165554514Y-84609578D01*
X165541022Y-84606239D01*
X165504626Y-84603587D01*
X165451452Y-84601956D01*
X165408393Y-84601600D01*
X165338641Y-84601592D01*
X165294837Y-84598403D01*
X165273944Y-84587288D01*
X165272925Y-84563501D01*
X165288741Y-84522296D01*
X165317815Y-84460086D01*
X165341963Y-84414341D01*
X165362913Y-84390813D01*
X165385747Y-84383896D01*
X165386877Y-84383886D01*
X165426212Y-84395299D01*
X165447462Y-84429092D01*
X165450539Y-84480809D01*
X165450006Y-84518061D01*
X165460735Y-84537703D01*
X165486505Y-84549952D01*
X165519337Y-84557002D01*
X165537966Y-84546842D01*
X165540632Y-84543017D01*
X165551340Y-84507001D01*
X165552856Y-84456566D01*
X165545759Y-84404626D01*
X165532788Y-84367822D01*
X165489585Y-84316938D01*
X165429446Y-84288014D01*
X165382462Y-84282286D01*
X165340082Y-84286657D01*
X165305488Y-84302475D01*
X165274763Y-84333797D01*
X165243990Y-84384678D01*
X165209252Y-84459176D01*
X165207288Y-84463714D01*
X165176287Y-84530821D01*
X165150862Y-84572232D01*
X165128014Y-84589981D01*
X165104745Y-84586107D01*
X165078056Y-84562643D01*
X165071914Y-84555627D01*
X165048100Y-84508630D01*
X165049103Y-84459933D01*
X165072451Y-84417522D01*
X165115675Y-84389384D01*
X165124160Y-84386769D01*
X165165308Y-84361308D01*
X165185128Y-84329001D01*
X165204770Y-84282286D01*
X165153950Y-84282286D01*
X165080082Y-84296496D01*
X165012327Y-84338675D01*
X164989661Y-84360624D01*
X164960569Y-84410517D01*
X164947400Y-84473967D01*
X164950968Y-84539744D01*
G36*
X164949755Y-85029926D02*
G01*
X164974084Y-85095858D01*
X165017117Y-85149273D01*
X165047409Y-85170164D01*
X165102994Y-85192939D01*
X165143186Y-85192466D01*
X165170217Y-85168562D01*
X165174813Y-85159717D01*
X165189144Y-85121530D01*
X165185472Y-85102028D01*
X165161407Y-85095422D01*
X165148114Y-85095086D01*
X165099210Y-85082992D01*
X165064999Y-85051471D01*
X165048476Y-85007659D01*
X165052634Y-84958695D01*
X165074227Y-84918894D01*
X165086544Y-84905450D01*
X165101487Y-84895921D01*
X165124075Y-84889485D01*
X165159328Y-84885317D01*
X165212266Y-84882597D01*
X165287907Y-84880502D01*
X165311857Y-84879960D01*
X165393790Y-84877981D01*
X165451455Y-84875731D01*
X165489608Y-84872357D01*
X165513004Y-84867006D01*
X165526398Y-84858824D01*
X165534545Y-84846959D01*
X165538144Y-84839362D01*
X165550452Y-84807102D01*
X165554514Y-84788111D01*
X165540948Y-84781836D01*
X165499934Y-84778006D01*
X165430999Y-84776600D01*
X165333669Y-84777598D01*
X165318657Y-84777908D01*
X165229859Y-84780101D01*
X165165019Y-84782693D01*
X165119067Y-84786382D01*
X165086935Y-84791864D01*
X165063553Y-84799835D01*
X165043852Y-84810993D01*
X165035410Y-84816830D01*
X164998057Y-84850296D01*
X164969003Y-84887727D01*
X164966467Y-84892309D01*
X164946443Y-84959426D01*
X164949755Y-85029926D01*
G37*
X164949755Y-85029926D02*
X164974084Y-85095858D01*
X165017117Y-85149273D01*
X165047409Y-85170164D01*
X165102994Y-85192939D01*
X165143186Y-85192466D01*
X165170217Y-85168562D01*
X165174813Y-85159717D01*
X165189144Y-85121530D01*
X165185472Y-85102028D01*
X165161407Y-85095422D01*
X165148114Y-85095086D01*
X165099210Y-85082992D01*
X165064999Y-85051471D01*
X165048476Y-85007659D01*
X165052634Y-84958695D01*
X165074227Y-84918894D01*
X165086544Y-84905450D01*
X165101487Y-84895921D01*
X165124075Y-84889485D01*
X165159328Y-84885317D01*
X165212266Y-84882597D01*
X165287907Y-84880502D01*
X165311857Y-84879960D01*
X165393790Y-84877981D01*
X165451455Y-84875731D01*
X165489608Y-84872357D01*
X165513004Y-84867006D01*
X165526398Y-84858824D01*
X165534545Y-84846959D01*
X165538144Y-84839362D01*
X165550452Y-84807102D01*
X165554514Y-84788111D01*
X165540948Y-84781836D01*
X165499934Y-84778006D01*
X165430999Y-84776600D01*
X165333669Y-84777598D01*
X165318657Y-84777908D01*
X165229859Y-84780101D01*
X165165019Y-84782693D01*
X165119067Y-84786382D01*
X165086935Y-84791864D01*
X165063553Y-84799835D01*
X165043852Y-84810993D01*
X165035410Y-84816830D01*
X164998057Y-84850296D01*
X164969003Y-84887727D01*
X164966467Y-84892309D01*
X164946443Y-84959426D01*
X164949755Y-85029926D01*
G36*
X165065358Y-85690117D02*
G01*
X165173837Y-85689933D01*
X165257287Y-85689219D01*
X165319704Y-85687675D01*
X165365085Y-85685001D01*
X165397429Y-85680894D01*
X165420733Y-85675055D01*
X165438995Y-85667182D01*
X165449418Y-85661221D01*
X165505945Y-85611855D01*
X165541377Y-85549264D01*
X165554090Y-85480013D01*
X165542463Y-85410668D01*
X165521568Y-85369375D01*
X165485422Y-85326025D01*
X165441276Y-85296481D01*
X165383462Y-85278655D01*
X165306313Y-85270463D01*
X165249714Y-85269302D01*
X165245647Y-85269458D01*
X165245647Y-85370857D01*
X165310550Y-85371476D01*
X165353514Y-85374314D01*
X165381622Y-85380840D01*
X165401953Y-85392523D01*
X165417288Y-85406483D01*
X165446890Y-85453365D01*
X165449419Y-85503701D01*
X165424705Y-85551276D01*
X165421356Y-85554979D01*
X165403935Y-85570783D01*
X165383209Y-85580693D01*
X165352362Y-85586058D01*
X165304577Y-85588228D01*
X165251748Y-85588571D01*
X165185381Y-85587827D01*
X165141106Y-85584748D01*
X165112009Y-85578061D01*
X165091173Y-85566496D01*
X165080107Y-85557013D01*
X165052198Y-85512960D01*
X165048843Y-85462224D01*
X165070159Y-85413796D01*
X165078073Y-85404450D01*
X165095647Y-85388540D01*
X165116587Y-85378610D01*
X165147782Y-85373278D01*
X165196122Y-85371163D01*
X165245647Y-85370857D01*
X165245647Y-85269458D01*
X165158568Y-85272810D01*
X165090086Y-85284726D01*
X165038600Y-85307135D01*
X164998443Y-85342124D01*
X164977861Y-85369375D01*
X164955625Y-85418907D01*
X164945304Y-85476316D01*
X164948067Y-85529682D01*
X164959212Y-85559543D01*
X164962383Y-85571261D01*
X164950557Y-85579037D01*
X164918866Y-85584465D01*
X164870593Y-85588571D01*
X164816829Y-85593067D01*
X164784482Y-85599313D01*
X164765985Y-85610676D01*
X164753770Y-85630528D01*
X164748362Y-85643000D01*
X164728601Y-85690171D01*
X165065358Y-85690117D01*
G37*
X165065358Y-85690117D02*
X165173837Y-85689933D01*
X165257287Y-85689219D01*
X165319704Y-85687675D01*
X165365085Y-85685001D01*
X165397429Y-85680894D01*
X165420733Y-85675055D01*
X165438995Y-85667182D01*
X165449418Y-85661221D01*
X165505945Y-85611855D01*
X165541377Y-85549264D01*
X165554090Y-85480013D01*
X165542463Y-85410668D01*
X165521568Y-85369375D01*
X165485422Y-85326025D01*
X165441276Y-85296481D01*
X165383462Y-85278655D01*
X165306313Y-85270463D01*
X165249714Y-85269302D01*
X165245647Y-85269458D01*
X165245647Y-85370857D01*
X165310550Y-85371476D01*
X165353514Y-85374314D01*
X165381622Y-85380840D01*
X165401953Y-85392523D01*
X165417288Y-85406483D01*
X165446890Y-85453365D01*
X165449419Y-85503701D01*
X165424705Y-85551276D01*
X165421356Y-85554979D01*
X165403935Y-85570783D01*
X165383209Y-85580693D01*
X165352362Y-85586058D01*
X165304577Y-85588228D01*
X165251748Y-85588571D01*
X165185381Y-85587827D01*
X165141106Y-85584748D01*
X165112009Y-85578061D01*
X165091173Y-85566496D01*
X165080107Y-85557013D01*
X165052198Y-85512960D01*
X165048843Y-85462224D01*
X165070159Y-85413796D01*
X165078073Y-85404450D01*
X165095647Y-85388540D01*
X165116587Y-85378610D01*
X165147782Y-85373278D01*
X165196122Y-85371163D01*
X165245647Y-85370857D01*
X165245647Y-85269458D01*
X165158568Y-85272810D01*
X165090086Y-85284726D01*
X165038600Y-85307135D01*
X164998443Y-85342124D01*
X164977861Y-85369375D01*
X164955625Y-85418907D01*
X164945304Y-85476316D01*
X164948067Y-85529682D01*
X164959212Y-85559543D01*
X164962383Y-85571261D01*
X164950557Y-85579037D01*
X164918866Y-85584465D01*
X164870593Y-85588571D01*
X164816829Y-85593067D01*
X164784482Y-85599313D01*
X164765985Y-85610676D01*
X164753770Y-85630528D01*
X164748362Y-85643000D01*
X164728601Y-85690171D01*
X165065358Y-85690117D01*
G36*
X164958663Y-86279833D02*
G01*
X164996850Y-86282048D01*
X165054886Y-86283784D01*
X165128180Y-86284899D01*
X165205055Y-86285257D01*
X165465196Y-86285257D01*
X165511127Y-86239326D01*
X165539429Y-86207675D01*
X165550893Y-86179890D01*
X165550168Y-86141915D01*
X165548321Y-86126840D01*
X165542948Y-86079726D01*
X165539869Y-86040756D01*
X165539585Y-86031257D01*
X165541445Y-85999233D01*
X165546114Y-85953432D01*
X165548321Y-85935674D01*
X165551735Y-85892057D01*
X165544320Y-85862745D01*
X165521427Y-85833680D01*
X165511127Y-85823188D01*
X165465196Y-85777257D01*
X164978602Y-85777257D01*
X164961758Y-85814226D01*
X164949282Y-85846059D01*
X164944914Y-85864683D01*
X164958718Y-85869458D01*
X164997286Y-85873921D01*
X165056356Y-85877775D01*
X165131663Y-85880722D01*
X165195286Y-85882143D01*
X165445657Y-85886114D01*
X165450556Y-85920759D01*
X165447131Y-85952268D01*
X165436041Y-85967708D01*
X165415308Y-85972023D01*
X165371145Y-85975708D01*
X165309146Y-85978469D01*
X165234909Y-85980012D01*
X165196706Y-85980235D01*
X164976783Y-85980457D01*
X164960849Y-86026166D01*
X164950015Y-86058518D01*
X164944962Y-86076115D01*
X164944914Y-86076623D01*
X164958648Y-86078388D01*
X164996730Y-86080329D01*
X165054482Y-86082282D01*
X165127227Y-86084084D01*
X165195286Y-86085343D01*
X165445657Y-86089314D01*
X165445657Y-86176400D01*
X165217240Y-86180396D01*
X164988822Y-86184392D01*
X164966868Y-86226847D01*
X164951793Y-86258192D01*
X164944951Y-86276744D01*
X164944914Y-86277279D01*
X164958663Y-86279833D01*
G37*
X164958663Y-86279833D02*
X164996850Y-86282048D01*
X165054886Y-86283784D01*
X165128180Y-86284899D01*
X165205055Y-86285257D01*
X165465196Y-86285257D01*
X165511127Y-86239326D01*
X165539429Y-86207675D01*
X165550893Y-86179890D01*
X165550168Y-86141915D01*
X165548321Y-86126840D01*
X165542948Y-86079726D01*
X165539869Y-86040756D01*
X165539585Y-86031257D01*
X165541445Y-85999233D01*
X165546114Y-85953432D01*
X165548321Y-85935674D01*
X165551735Y-85892057D01*
X165544320Y-85862745D01*
X165521427Y-85833680D01*
X165511127Y-85823188D01*
X165465196Y-85777257D01*
X164978602Y-85777257D01*
X164961758Y-85814226D01*
X164949282Y-85846059D01*
X164944914Y-85864683D01*
X164958718Y-85869458D01*
X164997286Y-85873921D01*
X165056356Y-85877775D01*
X165131663Y-85880722D01*
X165195286Y-85882143D01*
X165445657Y-85886114D01*
X165450556Y-85920759D01*
X165447131Y-85952268D01*
X165436041Y-85967708D01*
X165415308Y-85972023D01*
X165371145Y-85975708D01*
X165309146Y-85978469D01*
X165234909Y-85980012D01*
X165196706Y-85980235D01*
X164976783Y-85980457D01*
X164960849Y-86026166D01*
X164950015Y-86058518D01*
X164944962Y-86076115D01*
X164944914Y-86076623D01*
X164958648Y-86078388D01*
X164996730Y-86080329D01*
X165054482Y-86082282D01*
X165127227Y-86084084D01*
X165195286Y-86085343D01*
X165445657Y-86089314D01*
X165445657Y-86176400D01*
X165217240Y-86180396D01*
X164988822Y-86184392D01*
X164966868Y-86226847D01*
X164951793Y-86258192D01*
X164944951Y-86276744D01*
X164944914Y-86277279D01*
X164958663Y-86279833D01*
G36*
X164956335Y-86644876D02*
G01*
X164975344Y-86686667D01*
X164998378Y-86719469D01*
X165024133Y-86743503D01*
X165057358Y-86760097D01*
X165102800Y-86770577D01*
X165165207Y-86776271D01*
X165249327Y-86778507D01*
X165304721Y-86778743D01*
X165520826Y-86778743D01*
X165537670Y-86741774D01*
X165549981Y-86712656D01*
X165554514Y-86698231D01*
X165541025Y-86695472D01*
X165504653Y-86693282D01*
X165451542Y-86691942D01*
X165409372Y-86691657D01*
X165348447Y-86690434D01*
X165300115Y-86687136D01*
X165270518Y-86682321D01*
X165264229Y-86678496D01*
X165270652Y-86652783D01*
X165287125Y-86612418D01*
X165309458Y-86565679D01*
X165333457Y-86520845D01*
X165354930Y-86486193D01*
X165369685Y-86470002D01*
X165369845Y-86469938D01*
X165397152Y-86471330D01*
X165423219Y-86483818D01*
X165444392Y-86505743D01*
X165451474Y-86537743D01*
X165450649Y-86565092D01*
X165450042Y-86603826D01*
X165459116Y-86624158D01*
X165483092Y-86636369D01*
X165487613Y-86637909D01*
X165521806Y-86643203D01*
X165542568Y-86629047D01*
X165552462Y-86592148D01*
X165554292Y-86552289D01*
X165540727Y-86480562D01*
X165521355Y-86443432D01*
X165475845Y-86397576D01*
X165419983Y-86373256D01*
X165360957Y-86371073D01*
X165305953Y-86391629D01*
X165271486Y-86422549D01*
X165252189Y-86453420D01*
X165227759Y-86501942D01*
X165202985Y-86558485D01*
X165199199Y-86567910D01*
X165171791Y-86630019D01*
X165147634Y-86665822D01*
X165123619Y-86677337D01*
X165096635Y-86666580D01*
X165075543Y-86648114D01*
X165049572Y-86604469D01*
X165047624Y-86556446D01*
X165067637Y-86512406D01*
X165107551Y-86480709D01*
X165117848Y-86476549D01*
X165155724Y-86452327D01*
X165183842Y-86416965D01*
X165206917Y-86372343D01*
X165141485Y-86372343D01*
X165101506Y-86374969D01*
X165069997Y-86386230D01*
X165036378Y-86411199D01*
X165010484Y-86435169D01*
X164973817Y-86472441D01*
X164954121Y-86501401D01*
X164946220Y-86532505D01*
X164944914Y-86567713D01*
X164956335Y-86644876D01*
G37*
X164956335Y-86644876D02*
X164975344Y-86686667D01*
X164998378Y-86719469D01*
X165024133Y-86743503D01*
X165057358Y-86760097D01*
X165102800Y-86770577D01*
X165165207Y-86776271D01*
X165249327Y-86778507D01*
X165304721Y-86778743D01*
X165520826Y-86778743D01*
X165537670Y-86741774D01*
X165549981Y-86712656D01*
X165554514Y-86698231D01*
X165541025Y-86695472D01*
X165504653Y-86693282D01*
X165451542Y-86691942D01*
X165409372Y-86691657D01*
X165348447Y-86690434D01*
X165300115Y-86687136D01*
X165270518Y-86682321D01*
X165264229Y-86678496D01*
X165270652Y-86652783D01*
X165287125Y-86612418D01*
X165309458Y-86565679D01*
X165333457Y-86520845D01*
X165354930Y-86486193D01*
X165369685Y-86470002D01*
X165369845Y-86469938D01*
X165397152Y-86471330D01*
X165423219Y-86483818D01*
X165444392Y-86505743D01*
X165451474Y-86537743D01*
X165450649Y-86565092D01*
X165450042Y-86603826D01*
X165459116Y-86624158D01*
X165483092Y-86636369D01*
X165487613Y-86637909D01*
X165521806Y-86643203D01*
X165542568Y-86629047D01*
X165552462Y-86592148D01*
X165554292Y-86552289D01*
X165540727Y-86480562D01*
X165521355Y-86443432D01*
X165475845Y-86397576D01*
X165419983Y-86373256D01*
X165360957Y-86371073D01*
X165305953Y-86391629D01*
X165271486Y-86422549D01*
X165252189Y-86453420D01*
X165227759Y-86501942D01*
X165202985Y-86558485D01*
X165199199Y-86567910D01*
X165171791Y-86630019D01*
X165147634Y-86665822D01*
X165123619Y-86677337D01*
X165096635Y-86666580D01*
X165075543Y-86648114D01*
X165049572Y-86604469D01*
X165047624Y-86556446D01*
X165067637Y-86512406D01*
X165107551Y-86480709D01*
X165117848Y-86476549D01*
X165155724Y-86452327D01*
X165183842Y-86416965D01*
X165206917Y-86372343D01*
X165141485Y-86372343D01*
X165101506Y-86374969D01*
X165069997Y-86386230D01*
X165036378Y-86411199D01*
X165010484Y-86435169D01*
X164973817Y-86472441D01*
X164954121Y-86501401D01*
X164946220Y-86532505D01*
X164944914Y-86567713D01*
X164956335Y-86644876D01*
G36*
X164958752Y-87152600D02*
G01*
X164966334Y-87169948D01*
X164999128Y-87211356D01*
X165046547Y-87246765D01*
X165097151Y-87268664D01*
X165122098Y-87272229D01*
X165156927Y-87260279D01*
X165175357Y-87234067D01*
X165186516Y-87205964D01*
X165188572Y-87193095D01*
X165173649Y-87186829D01*
X165141175Y-87174456D01*
X165126502Y-87169028D01*
X165075744Y-87138590D01*
X165050427Y-87094520D01*
X165051206Y-87038010D01*
X165052203Y-87033825D01*
X165066507Y-87003655D01*
X165094393Y-86981476D01*
X165139287Y-86966327D01*
X165204615Y-86957250D01*
X165293804Y-86953286D01*
X165341261Y-86952914D01*
X165416071Y-86952730D01*
X165467069Y-86951522D01*
X165499471Y-86948309D01*
X165518495Y-86942109D01*
X165529356Y-86931940D01*
X165537272Y-86916819D01*
X165537670Y-86915946D01*
X165549981Y-86886828D01*
X165554514Y-86872403D01*
X165540809Y-86870186D01*
X165502925Y-86868289D01*
X165445715Y-86866847D01*
X165374027Y-86865998D01*
X165321565Y-86865829D01*
X165220047Y-86866692D01*
X165143032Y-86870070D01*
X165086023Y-86877142D01*
X165044526Y-86889088D01*
X165014043Y-86907090D01*
X164990080Y-86932327D01*
X164973355Y-86957247D01*
X164951097Y-87017171D01*
X164946076Y-87086911D01*
X164958752Y-87152600D01*
G37*
X164958752Y-87152600D02*
X164966334Y-87169948D01*
X164999128Y-87211356D01*
X165046547Y-87246765D01*
X165097151Y-87268664D01*
X165122098Y-87272229D01*
X165156927Y-87260279D01*
X165175357Y-87234067D01*
X165186516Y-87205964D01*
X165188572Y-87193095D01*
X165173649Y-87186829D01*
X165141175Y-87174456D01*
X165126502Y-87169028D01*
X165075744Y-87138590D01*
X165050427Y-87094520D01*
X165051206Y-87038010D01*
X165052203Y-87033825D01*
X165066507Y-87003655D01*
X165094393Y-86981476D01*
X165139287Y-86966327D01*
X165204615Y-86957250D01*
X165293804Y-86953286D01*
X165341261Y-86952914D01*
X165416071Y-86952730D01*
X165467069Y-86951522D01*
X165499471Y-86948309D01*
X165518495Y-86942109D01*
X165529356Y-86931940D01*
X165537272Y-86916819D01*
X165537670Y-86915946D01*
X165549981Y-86886828D01*
X165554514Y-86872403D01*
X165540809Y-86870186D01*
X165502925Y-86868289D01*
X165445715Y-86866847D01*
X165374027Y-86865998D01*
X165321565Y-86865829D01*
X165220047Y-86866692D01*
X165143032Y-86870070D01*
X165086023Y-86877142D01*
X165044526Y-86889088D01*
X165014043Y-86907090D01*
X164990080Y-86932327D01*
X164973355Y-86957247D01*
X164951097Y-87017171D01*
X164946076Y-87086911D01*
X164958752Y-87152600D01*
G36*
X164966966Y-87653595D02*
G01*
X165004497Y-87711021D01*
X165038096Y-87738719D01*
X165099064Y-87760662D01*
X165147308Y-87762405D01*
X165211816Y-87758457D01*
X165276934Y-87609686D01*
X165310202Y-87537349D01*
X165336964Y-87490084D01*
X165360144Y-87465507D01*
X165382667Y-87461237D01*
X165407455Y-87474889D01*
X165423886Y-87489943D01*
X165450235Y-87533746D01*
X165452081Y-87581389D01*
X165431546Y-87625145D01*
X165390752Y-87657289D01*
X165376347Y-87663038D01*
X165331356Y-87690576D01*
X165312182Y-87722258D01*
X165295779Y-87765714D01*
X165357966Y-87765714D01*
X165400283Y-87761872D01*
X165435969Y-87746823D01*
X165476943Y-87715280D01*
X165482267Y-87710592D01*
X165518720Y-87675506D01*
X165538283Y-87645347D01*
X165547283Y-87607615D01*
X165550230Y-87576335D01*
X165550965Y-87520385D01*
X165541660Y-87480555D01*
X165527846Y-87455708D01*
X165497467Y-87416656D01*
X165464613Y-87389625D01*
X165423294Y-87372517D01*
X165367521Y-87363238D01*
X165291305Y-87359693D01*
X165252622Y-87359410D01*
X165206247Y-87360372D01*
X165206247Y-87448007D01*
X165231126Y-87449023D01*
X165235200Y-87451556D01*
X165229665Y-87468274D01*
X165215017Y-87504249D01*
X165194190Y-87552331D01*
X165189714Y-87562386D01*
X165158814Y-87623152D01*
X165131657Y-87656632D01*
X165106220Y-87663990D01*
X165080481Y-87646391D01*
X165069109Y-87631856D01*
X165046364Y-87579410D01*
X165050122Y-87530322D01*
X165077884Y-87489227D01*
X165127152Y-87460758D01*
X165166257Y-87451631D01*
X165206247Y-87448007D01*
X165206247Y-87360372D01*
X165162249Y-87361285D01*
X165095384Y-87368196D01*
X165046695Y-87381884D01*
X165010849Y-87404096D01*
X164982513Y-87436574D01*
X164973355Y-87450733D01*
X164949507Y-87515053D01*
X164948006Y-87585473D01*
X164966966Y-87653595D01*
G37*
X164966966Y-87653595D02*
X165004497Y-87711021D01*
X165038096Y-87738719D01*
X165099064Y-87760662D01*
X165147308Y-87762405D01*
X165211816Y-87758457D01*
X165276934Y-87609686D01*
X165310202Y-87537349D01*
X165336964Y-87490084D01*
X165360144Y-87465507D01*
X165382667Y-87461237D01*
X165407455Y-87474889D01*
X165423886Y-87489943D01*
X165450235Y-87533746D01*
X165452081Y-87581389D01*
X165431546Y-87625145D01*
X165390752Y-87657289D01*
X165376347Y-87663038D01*
X165331356Y-87690576D01*
X165312182Y-87722258D01*
X165295779Y-87765714D01*
X165357966Y-87765714D01*
X165400283Y-87761872D01*
X165435969Y-87746823D01*
X165476943Y-87715280D01*
X165482267Y-87710592D01*
X165518720Y-87675506D01*
X165538283Y-87645347D01*
X165547283Y-87607615D01*
X165550230Y-87576335D01*
X165550965Y-87520385D01*
X165541660Y-87480555D01*
X165527846Y-87455708D01*
X165497467Y-87416656D01*
X165464613Y-87389625D01*
X165423294Y-87372517D01*
X165367521Y-87363238D01*
X165291305Y-87359693D01*
X165252622Y-87359410D01*
X165206247Y-87360372D01*
X165206247Y-87448007D01*
X165231126Y-87449023D01*
X165235200Y-87451556D01*
X165229665Y-87468274D01*
X165215017Y-87504249D01*
X165194190Y-87552331D01*
X165189714Y-87562386D01*
X165158814Y-87623152D01*
X165131657Y-87656632D01*
X165106220Y-87663990D01*
X165080481Y-87646391D01*
X165069109Y-87631856D01*
X165046364Y-87579410D01*
X165050122Y-87530322D01*
X165077884Y-87489227D01*
X165127152Y-87460758D01*
X165166257Y-87451631D01*
X165206247Y-87448007D01*
X165206247Y-87360372D01*
X165162249Y-87361285D01*
X165095384Y-87368196D01*
X165046695Y-87381884D01*
X165010849Y-87404096D01*
X164982513Y-87436574D01*
X164973355Y-87450733D01*
X164949507Y-87515053D01*
X164948006Y-87585473D01*
X164966966Y-87653595D01*
G36*
X160242348Y-84603910D02*
G01*
X160242778Y-84682454D01*
X160243942Y-84739298D01*
X160246207Y-84778105D01*
X160249940Y-84802538D01*
X160255506Y-84816262D01*
X160263273Y-84822940D01*
X160273605Y-84826236D01*
X160274943Y-84826556D01*
X160299079Y-84831562D01*
X160346701Y-84840829D01*
X160412741Y-84853392D01*
X160492128Y-84868287D01*
X160579796Y-84884551D01*
X160582875Y-84885119D01*
X160668789Y-84901410D01*
X160744696Y-84916652D01*
X160806045Y-84929861D01*
X160848282Y-84940054D01*
X160866855Y-84946248D01*
X160867184Y-84946543D01*
X160876253Y-84964788D01*
X160891367Y-85002405D01*
X160909262Y-85051271D01*
X160909358Y-85051543D01*
X160932493Y-85113093D01*
X160961965Y-85185657D01*
X160991597Y-85254057D01*
X160993062Y-85257294D01*
X161043626Y-85368702D01*
X160875160Y-85615399D01*
X160823803Y-85691077D01*
X160777889Y-85759631D01*
X160740030Y-85817088D01*
X160712837Y-85859476D01*
X160698921Y-85882825D01*
X160697889Y-85885042D01*
X160702484Y-85902010D01*
X160724655Y-85933701D01*
X160765447Y-85981352D01*
X160825905Y-86046198D01*
X160890227Y-86112397D01*
X160953612Y-86176214D01*
X161011451Y-86233329D01*
X161060175Y-86280305D01*
X161096210Y-86313703D01*
X161115984Y-86330085D01*
X161117002Y-86330694D01*
X161130572Y-86332505D01*
X161152733Y-86325683D01*
X161186478Y-86308540D01*
X161234800Y-86279393D01*
X161300692Y-86236555D01*
X161385517Y-86179448D01*
X161460177Y-86128766D01*
X161527140Y-86083461D01*
X161582516Y-86046150D01*
X161622420Y-86019452D01*
X161642962Y-86005985D01*
X161644356Y-86005137D01*
X161664038Y-86006781D01*
X161702293Y-86019245D01*
X161751889Y-86040048D01*
X161767728Y-86047462D01*
X161838290Y-86079814D01*
X161918353Y-86114328D01*
X161987629Y-86142365D01*
X162039045Y-86162568D01*
X162078119Y-86178615D01*
X162098541Y-86187888D01*
X162100114Y-86189041D01*
X162102721Y-86206096D01*
X162109863Y-86246298D01*
X162120523Y-86304302D01*
X162133685Y-86374763D01*
X162148333Y-86452335D01*
X162163449Y-86531672D01*
X162178018Y-86607431D01*
X162191022Y-86674264D01*
X162201445Y-86726828D01*
X162208270Y-86759776D01*
X162210199Y-86767857D01*
X162214962Y-86776205D01*
X162225718Y-86782506D01*
X162246098Y-86787045D01*
X162279734Y-86790104D01*
X162330255Y-86791967D01*
X162401292Y-86792918D01*
X162496476Y-86793240D01*
X162535492Y-86793257D01*
X162852799Y-86793257D01*
X162867839Y-86717057D01*
X162875995Y-86674663D01*
X162887899Y-86611400D01*
X162902116Y-86534962D01*
X162917210Y-86453043D01*
X162921355Y-86430400D01*
X162936053Y-86354806D01*
X162950505Y-86288953D01*
X162963375Y-86238366D01*
X162973322Y-86208574D01*
X162976287Y-86203612D01*
X162997283Y-86191426D01*
X163037967Y-86173953D01*
X163090322Y-86154577D01*
X163101600Y-86150734D01*
X163171523Y-86125339D01*
X163250418Y-86093817D01*
X163321266Y-86062969D01*
X163321595Y-86062817D01*
X163432733Y-86011447D01*
X163681253Y-86180399D01*
X163929772Y-86349352D01*
X164147058Y-86132429D01*
X164211726Y-86066819D01*
X164268733Y-86006979D01*
X164315033Y-85956267D01*
X164347584Y-85918046D01*
X164363343Y-85895675D01*
X164364343Y-85892466D01*
X164356469Y-85873626D01*
X164334578Y-85835180D01*
X164301267Y-85781330D01*
X164259131Y-85716276D01*
X164211943Y-85645940D01*
X164163810Y-85574555D01*
X164121928Y-85510908D01*
X164088871Y-85459041D01*
X164067218Y-85422995D01*
X164059543Y-85406867D01*
X164066037Y-85387189D01*
X164083150Y-85349875D01*
X164107326Y-85302621D01*
X164110013Y-85297612D01*
X164141927Y-85233977D01*
X164157579Y-85190341D01*
X164157745Y-85163202D01*
X164143204Y-85149057D01*
X164143000Y-85148975D01*
X164125779Y-85141905D01*
X164084899Y-85125042D01*
X164023525Y-85099695D01*
X163944819Y-85067171D01*
X163851947Y-85028778D01*
X163748072Y-84985822D01*
X163647502Y-84944222D01*
X163536516Y-84898504D01*
X163433703Y-84856526D01*
X163342215Y-84819548D01*
X163265201Y-84788827D01*
X163205815Y-84765622D01*
X163167209Y-84751190D01*
X163152800Y-84746743D01*
X163136272Y-84757896D01*
X163109930Y-84787069D01*
X163080887Y-84825971D01*
X162989039Y-84936757D01*
X162883759Y-85023351D01*
X162767266Y-85084716D01*
X162641776Y-85119815D01*
X162509507Y-85127608D01*
X162448457Y-85121943D01*
X162321795Y-85091078D01*
X162209941Y-85037920D01*
X162114001Y-84965767D01*
X162035076Y-84877917D01*
X161974270Y-84777665D01*
X161932687Y-84668310D01*
X161911428Y-84553147D01*
X161911599Y-84435475D01*
X161934301Y-84318590D01*
X161980638Y-84205789D01*
X162051713Y-84100369D01*
X162091911Y-84056368D01*
X162195129Y-83971979D01*
X162307925Y-83913222D01*
X162427010Y-83879704D01*
X162549095Y-83871035D01*
X162670893Y-83886823D01*
X162789116Y-83926678D01*
X162900475Y-83990207D01*
X163001684Y-84077021D01*
X163080887Y-84174029D01*
X163111162Y-84214437D01*
X163137219Y-84242982D01*
X163152825Y-84253257D01*
X163169843Y-84247877D01*
X163210500Y-84232575D01*
X163271642Y-84208612D01*
X163350119Y-84177244D01*
X163442780Y-84139732D01*
X163546472Y-84097333D01*
X163647526Y-84055663D01*
X163758607Y-84009690D01*
X163861541Y-83967107D01*
X163953165Y-83929221D01*
X164030316Y-83897340D01*
X164089831Y-83872771D01*
X164128544Y-83856820D01*
X164143000Y-83850910D01*
X164157685Y-83836948D01*
X164157642Y-83809940D01*
X164142099Y-83766413D01*
X164110284Y-83702890D01*
X164110013Y-83702388D01*
X164085323Y-83654560D01*
X164067338Y-83615897D01*
X164059614Y-83594095D01*
X164059543Y-83593133D01*
X164067378Y-83576721D01*
X164089165Y-83540487D01*
X164122328Y-83488474D01*
X164164291Y-83424725D01*
X164211943Y-83354060D01*
X164260191Y-83282116D01*
X164302151Y-83217274D01*
X164335227Y-83163735D01*
X164356821Y-83125697D01*
X164364343Y-83107533D01*
X164354457Y-83090808D01*
X164326826Y-83057180D01*
X164284495Y-83010010D01*
X164230505Y-82952658D01*
X164167899Y-82888484D01*
X164146983Y-82867497D01*
X163929623Y-82650499D01*
X163687220Y-82815668D01*
X163612781Y-82865864D01*
X163545972Y-82909919D01*
X163490665Y-82945362D01*
X163450729Y-82969719D01*
X163430036Y-82980522D01*
X163428563Y-82980838D01*
X163409058Y-82975143D01*
X163369822Y-82959826D01*
X163317430Y-82937537D01*
X163282355Y-82921893D01*
X163215201Y-82892641D01*
X163147358Y-82865094D01*
X163090034Y-82843737D01*
X163072572Y-82837935D01*
X163025938Y-82821452D01*
X162989905Y-82805340D01*
X162976287Y-82796490D01*
X162967952Y-82776960D01*
X162956137Y-82734334D01*
X162942181Y-82674145D01*
X162927422Y-82601922D01*
X162921355Y-82569600D01*
X162906273Y-82487522D01*
X162891669Y-82408795D01*
X162878980Y-82341109D01*
X162869642Y-82292160D01*
X162867839Y-82282943D01*
X162852799Y-82206743D01*
X162535492Y-82206743D01*
X162431154Y-82206914D01*
X162352213Y-82207616D01*
X162295038Y-82209134D01*
X162255999Y-82211749D01*
X162231465Y-82215746D01*
X162217805Y-82221409D01*
X162211389Y-82229020D01*
X162210199Y-82232143D01*
X162205980Y-82250978D01*
X162197562Y-82292588D01*
X162185961Y-82351630D01*
X162172195Y-82422757D01*
X162157280Y-82500625D01*
X162142232Y-82579887D01*
X162128069Y-82655198D01*
X162115806Y-82721213D01*
X162106461Y-82772587D01*
X162101050Y-82803975D01*
X162100114Y-82810959D01*
X162087596Y-82817285D01*
X162054246Y-82831290D01*
X162006377Y-82850355D01*
X161987629Y-82857634D01*
X161915195Y-82886996D01*
X161835170Y-82921571D01*
X161767728Y-82952537D01*
X161716159Y-82975323D01*
X161673785Y-82990482D01*
X161647834Y-82995542D01*
X161644356Y-82994736D01*
X161627936Y-82984041D01*
X161591417Y-82959620D01*
X161538687Y-82924095D01*
X161473635Y-82880087D01*
X161400151Y-82830217D01*
X161385645Y-82820356D01*
X161299704Y-82762492D01*
X161234261Y-82719956D01*
X161186304Y-82691054D01*
X161152820Y-82674090D01*
X161130795Y-82667367D01*
X161117217Y-82669190D01*
X161117131Y-82669236D01*
X161099297Y-82683586D01*
X161064817Y-82715323D01*
X161017268Y-82761010D01*
X160960222Y-82817204D01*
X160897255Y-82880468D01*
X160890227Y-82887602D01*
X160813020Y-82967330D01*
X160756330Y-83028857D01*
X160719110Y-83073421D01*
X160700315Y-83102257D01*
X160697889Y-83114958D01*
X160708471Y-83133494D01*
X160732916Y-83171961D01*
X160768612Y-83226386D01*
X160812947Y-83292798D01*
X160863311Y-83367225D01*
X160875160Y-83384601D01*
X161043626Y-83631297D01*
X160993062Y-83742706D01*
X160963595Y-83810457D01*
X160933959Y-83883183D01*
X160910330Y-83945703D01*
X160909358Y-83948457D01*
X160891457Y-83997360D01*
X160876320Y-84035057D01*
X160867210Y-84053425D01*
X160867184Y-84053456D01*
X160850717Y-84059285D01*
X160810219Y-84069192D01*
X160750242Y-84082195D01*
X160675340Y-84097309D01*
X160590064Y-84113552D01*
X160582875Y-84114881D01*
X160495014Y-84131175D01*
X160415260Y-84146133D01*
X160348681Y-84158791D01*
X160300347Y-84168186D01*
X160275325Y-84173354D01*
X160274943Y-84173444D01*
X160264299Y-84176589D01*
X160256262Y-84182704D01*
X160250467Y-84195453D01*
X160246547Y-84218500D01*
X160244135Y-84255509D01*
X160242865Y-84310144D01*
X160242371Y-84386067D01*
X160242286Y-84486944D01*
X160242286Y-84500000D01*
X160242348Y-84603910D01*
G37*
X160242348Y-84603910D02*
X160242778Y-84682454D01*
X160243942Y-84739298D01*
X160246207Y-84778105D01*
X160249940Y-84802538D01*
X160255506Y-84816262D01*
X160263273Y-84822940D01*
X160273605Y-84826236D01*
X160274943Y-84826556D01*
X160299079Y-84831562D01*
X160346701Y-84840829D01*
X160412741Y-84853392D01*
X160492128Y-84868287D01*
X160579796Y-84884551D01*
X160582875Y-84885119D01*
X160668789Y-84901410D01*
X160744696Y-84916652D01*
X160806045Y-84929861D01*
X160848282Y-84940054D01*
X160866855Y-84946248D01*
X160867184Y-84946543D01*
X160876253Y-84964788D01*
X160891367Y-85002405D01*
X160909262Y-85051271D01*
X160909358Y-85051543D01*
X160932493Y-85113093D01*
X160961965Y-85185657D01*
X160991597Y-85254057D01*
X160993062Y-85257294D01*
X161043626Y-85368702D01*
X160875160Y-85615399D01*
X160823803Y-85691077D01*
X160777889Y-85759631D01*
X160740030Y-85817088D01*
X160712837Y-85859476D01*
X160698921Y-85882825D01*
X160697889Y-85885042D01*
X160702484Y-85902010D01*
X160724655Y-85933701D01*
X160765447Y-85981352D01*
X160825905Y-86046198D01*
X160890227Y-86112397D01*
X160953612Y-86176214D01*
X161011451Y-86233329D01*
X161060175Y-86280305D01*
X161096210Y-86313703D01*
X161115984Y-86330085D01*
X161117002Y-86330694D01*
X161130572Y-86332505D01*
X161152733Y-86325683D01*
X161186478Y-86308540D01*
X161234800Y-86279393D01*
X161300692Y-86236555D01*
X161385517Y-86179448D01*
X161460177Y-86128766D01*
X161527140Y-86083461D01*
X161582516Y-86046150D01*
X161622420Y-86019452D01*
X161642962Y-86005985D01*
X161644356Y-86005137D01*
X161664038Y-86006781D01*
X161702293Y-86019245D01*
X161751889Y-86040048D01*
X161767728Y-86047462D01*
X161838290Y-86079814D01*
X161918353Y-86114328D01*
X161987629Y-86142365D01*
X162039045Y-86162568D01*
X162078119Y-86178615D01*
X162098541Y-86187888D01*
X162100114Y-86189041D01*
X162102721Y-86206096D01*
X162109863Y-86246298D01*
X162120523Y-86304302D01*
X162133685Y-86374763D01*
X162148333Y-86452335D01*
X162163449Y-86531672D01*
X162178018Y-86607431D01*
X162191022Y-86674264D01*
X162201445Y-86726828D01*
X162208270Y-86759776D01*
X162210199Y-86767857D01*
X162214962Y-86776205D01*
X162225718Y-86782506D01*
X162246098Y-86787045D01*
X162279734Y-86790104D01*
X162330255Y-86791967D01*
X162401292Y-86792918D01*
X162496476Y-86793240D01*
X162535492Y-86793257D01*
X162852799Y-86793257D01*
X162867839Y-86717057D01*
X162875995Y-86674663D01*
X162887899Y-86611400D01*
X162902116Y-86534962D01*
X162917210Y-86453043D01*
X162921355Y-86430400D01*
X162936053Y-86354806D01*
X162950505Y-86288953D01*
X162963375Y-86238366D01*
X162973322Y-86208574D01*
X162976287Y-86203612D01*
X162997283Y-86191426D01*
X163037967Y-86173953D01*
X163090322Y-86154577D01*
X163101600Y-86150734D01*
X163171523Y-86125339D01*
X163250418Y-86093817D01*
X163321266Y-86062969D01*
X163321595Y-86062817D01*
X163432733Y-86011447D01*
X163681253Y-86180399D01*
X163929772Y-86349352D01*
X164147058Y-86132429D01*
X164211726Y-86066819D01*
X164268733Y-86006979D01*
X164315033Y-85956267D01*
X164347584Y-85918046D01*
X164363343Y-85895675D01*
X164364343Y-85892466D01*
X164356469Y-85873626D01*
X164334578Y-85835180D01*
X164301267Y-85781330D01*
X164259131Y-85716276D01*
X164211943Y-85645940D01*
X164163810Y-85574555D01*
X164121928Y-85510908D01*
X164088871Y-85459041D01*
X164067218Y-85422995D01*
X164059543Y-85406867D01*
X164066037Y-85387189D01*
X164083150Y-85349875D01*
X164107326Y-85302621D01*
X164110013Y-85297612D01*
X164141927Y-85233977D01*
X164157579Y-85190341D01*
X164157745Y-85163202D01*
X164143204Y-85149057D01*
X164143000Y-85148975D01*
X164125779Y-85141905D01*
X164084899Y-85125042D01*
X164023525Y-85099695D01*
X163944819Y-85067171D01*
X163851947Y-85028778D01*
X163748072Y-84985822D01*
X163647502Y-84944222D01*
X163536516Y-84898504D01*
X163433703Y-84856526D01*
X163342215Y-84819548D01*
X163265201Y-84788827D01*
X163205815Y-84765622D01*
X163167209Y-84751190D01*
X163152800Y-84746743D01*
X163136272Y-84757896D01*
X163109930Y-84787069D01*
X163080887Y-84825971D01*
X162989039Y-84936757D01*
X162883759Y-85023351D01*
X162767266Y-85084716D01*
X162641776Y-85119815D01*
X162509507Y-85127608D01*
X162448457Y-85121943D01*
X162321795Y-85091078D01*
X162209941Y-85037920D01*
X162114001Y-84965767D01*
X162035076Y-84877917D01*
X161974270Y-84777665D01*
X161932687Y-84668310D01*
X161911428Y-84553147D01*
X161911599Y-84435475D01*
X161934301Y-84318590D01*
X161980638Y-84205789D01*
X162051713Y-84100369D01*
X162091911Y-84056368D01*
X162195129Y-83971979D01*
X162307925Y-83913222D01*
X162427010Y-83879704D01*
X162549095Y-83871035D01*
X162670893Y-83886823D01*
X162789116Y-83926678D01*
X162900475Y-83990207D01*
X163001684Y-84077021D01*
X163080887Y-84174029D01*
X163111162Y-84214437D01*
X163137219Y-84242982D01*
X163152825Y-84253257D01*
X163169843Y-84247877D01*
X163210500Y-84232575D01*
X163271642Y-84208612D01*
X163350119Y-84177244D01*
X163442780Y-84139732D01*
X163546472Y-84097333D01*
X163647526Y-84055663D01*
X163758607Y-84009690D01*
X163861541Y-83967107D01*
X163953165Y-83929221D01*
X164030316Y-83897340D01*
X164089831Y-83872771D01*
X164128544Y-83856820D01*
X164143000Y-83850910D01*
X164157685Y-83836948D01*
X164157642Y-83809940D01*
X164142099Y-83766413D01*
X164110284Y-83702890D01*
X164110013Y-83702388D01*
X164085323Y-83654560D01*
X164067338Y-83615897D01*
X164059614Y-83594095D01*
X164059543Y-83593133D01*
X164067378Y-83576721D01*
X164089165Y-83540487D01*
X164122328Y-83488474D01*
X164164291Y-83424725D01*
X164211943Y-83354060D01*
X164260191Y-83282116D01*
X164302151Y-83217274D01*
X164335227Y-83163735D01*
X164356821Y-83125697D01*
X164364343Y-83107533D01*
X164354457Y-83090808D01*
X164326826Y-83057180D01*
X164284495Y-83010010D01*
X164230505Y-82952658D01*
X164167899Y-82888484D01*
X164146983Y-82867497D01*
X163929623Y-82650499D01*
X163687220Y-82815668D01*
X163612781Y-82865864D01*
X163545972Y-82909919D01*
X163490665Y-82945362D01*
X163450729Y-82969719D01*
X163430036Y-82980522D01*
X163428563Y-82980838D01*
X163409058Y-82975143D01*
X163369822Y-82959826D01*
X163317430Y-82937537D01*
X163282355Y-82921893D01*
X163215201Y-82892641D01*
X163147358Y-82865094D01*
X163090034Y-82843737D01*
X163072572Y-82837935D01*
X163025938Y-82821452D01*
X162989905Y-82805340D01*
X162976287Y-82796490D01*
X162967952Y-82776960D01*
X162956137Y-82734334D01*
X162942181Y-82674145D01*
X162927422Y-82601922D01*
X162921355Y-82569600D01*
X162906273Y-82487522D01*
X162891669Y-82408795D01*
X162878980Y-82341109D01*
X162869642Y-82292160D01*
X162867839Y-82282943D01*
X162852799Y-82206743D01*
X162535492Y-82206743D01*
X162431154Y-82206914D01*
X162352213Y-82207616D01*
X162295038Y-82209134D01*
X162255999Y-82211749D01*
X162231465Y-82215746D01*
X162217805Y-82221409D01*
X162211389Y-82229020D01*
X162210199Y-82232143D01*
X162205980Y-82250978D01*
X162197562Y-82292588D01*
X162185961Y-82351630D01*
X162172195Y-82422757D01*
X162157280Y-82500625D01*
X162142232Y-82579887D01*
X162128069Y-82655198D01*
X162115806Y-82721213D01*
X162106461Y-82772587D01*
X162101050Y-82803975D01*
X162100114Y-82810959D01*
X162087596Y-82817285D01*
X162054246Y-82831290D01*
X162006377Y-82850355D01*
X161987629Y-82857634D01*
X161915195Y-82886996D01*
X161835170Y-82921571D01*
X161767728Y-82952537D01*
X161716159Y-82975323D01*
X161673785Y-82990482D01*
X161647834Y-82995542D01*
X161644356Y-82994736D01*
X161627936Y-82984041D01*
X161591417Y-82959620D01*
X161538687Y-82924095D01*
X161473635Y-82880087D01*
X161400151Y-82830217D01*
X161385645Y-82820356D01*
X161299704Y-82762492D01*
X161234261Y-82719956D01*
X161186304Y-82691054D01*
X161152820Y-82674090D01*
X161130795Y-82667367D01*
X161117217Y-82669190D01*
X161117131Y-82669236D01*
X161099297Y-82683586D01*
X161064817Y-82715323D01*
X161017268Y-82761010D01*
X160960222Y-82817204D01*
X160897255Y-82880468D01*
X160890227Y-82887602D01*
X160813020Y-82967330D01*
X160756330Y-83028857D01*
X160719110Y-83073421D01*
X160700315Y-83102257D01*
X160697889Y-83114958D01*
X160708471Y-83133494D01*
X160732916Y-83171961D01*
X160768612Y-83226386D01*
X160812947Y-83292798D01*
X160863311Y-83367225D01*
X160875160Y-83384601D01*
X161043626Y-83631297D01*
X160993062Y-83742706D01*
X160963595Y-83810457D01*
X160933959Y-83883183D01*
X160910330Y-83945703D01*
X160909358Y-83948457D01*
X160891457Y-83997360D01*
X160876320Y-84035057D01*
X160867210Y-84053425D01*
X160867184Y-84053456D01*
X160850717Y-84059285D01*
X160810219Y-84069192D01*
X160750242Y-84082195D01*
X160675340Y-84097309D01*
X160590064Y-84113552D01*
X160582875Y-84114881D01*
X160495014Y-84131175D01*
X160415260Y-84146133D01*
X160348681Y-84158791D01*
X160300347Y-84168186D01*
X160275325Y-84173354D01*
X160274943Y-84173444D01*
X160264299Y-84176589D01*
X160256262Y-84182704D01*
X160250467Y-84195453D01*
X160246547Y-84218500D01*
X160244135Y-84255509D01*
X160242865Y-84310144D01*
X160242371Y-84386067D01*
X160242286Y-84486944D01*
X160242286Y-84500000D01*
X160242348Y-84603910D01*
D11*
%TO.C,C1*%
X124260000Y-85359420D02*
X124260000Y-85640580D01*
X123240000Y-85359420D02*
X123240000Y-85640580D01*
%TO.C,R2*%
X126977064Y-87235000D02*
X126522936Y-87235000D01*
X126977064Y-85765000D02*
X126522936Y-85765000D01*
%TO.C,R1*%
X126977064Y-84985000D02*
X126522936Y-84985000D01*
X126977064Y-83515000D02*
X126522936Y-83515000D01*
%TO.C,J1*%
X121460000Y-92340000D02*
X121460000Y-91210000D01*
X118710000Y-92340000D02*
X121460000Y-92340000D01*
X121460000Y-91210000D02*
X118710000Y-91210000D01*
X118710000Y-91210000D02*
X118710000Y-90010000D01*
X118710000Y-78790000D02*
X118710000Y-79990000D01*
X121460000Y-78790000D02*
X118710000Y-78790000D01*
X121460000Y-77660000D02*
X121460000Y-78790000D01*
X118710000Y-77660000D02*
X121460000Y-77660000D01*
%TO.C,C1*%
D12*
X124107142Y-87833333D02*
X124154761Y-87785714D01*
X124202380Y-87642857D01*
X124202380Y-87547619D01*
X124154761Y-87404761D01*
X124059523Y-87309523D01*
X123964285Y-87261904D01*
X123773809Y-87214285D01*
X123630952Y-87214285D01*
X123440476Y-87261904D01*
X123345238Y-87309523D01*
X123250000Y-87404761D01*
X123202380Y-87547619D01*
X123202380Y-87642857D01*
X123250000Y-87785714D01*
X123297619Y-87833333D01*
X124202380Y-88785714D02*
X124202380Y-88214285D01*
X124202380Y-88500000D02*
X123202380Y-88500000D01*
X123345238Y-88404761D01*
X123440476Y-88309523D01*
X123488095Y-88214285D01*
%TO.C,R2*%
X129702380Y-86333333D02*
X129226190Y-86000000D01*
X129702380Y-85761904D02*
X128702380Y-85761904D01*
X128702380Y-86142857D01*
X128750000Y-86238095D01*
X128797619Y-86285714D01*
X128892857Y-86333333D01*
X129035714Y-86333333D01*
X129130952Y-86285714D01*
X129178571Y-86238095D01*
X129226190Y-86142857D01*
X129226190Y-85761904D01*
X128797619Y-86714285D02*
X128750000Y-86761904D01*
X128702380Y-86857142D01*
X128702380Y-87095238D01*
X128750000Y-87190476D01*
X128797619Y-87238095D01*
X128892857Y-87285714D01*
X128988095Y-87285714D01*
X129130952Y-87238095D01*
X129702380Y-86666666D01*
X129702380Y-87285714D01*
%TO.C,R1*%
X129702380Y-84083333D02*
X129226190Y-83750000D01*
X129702380Y-83511904D02*
X128702380Y-83511904D01*
X128702380Y-83892857D01*
X128750000Y-83988095D01*
X128797619Y-84035714D01*
X128892857Y-84083333D01*
X129035714Y-84083333D01*
X129130952Y-84035714D01*
X129178571Y-83988095D01*
X129226190Y-83892857D01*
X129226190Y-83511904D01*
X129702380Y-85035714D02*
X129702380Y-84464285D01*
X129702380Y-84750000D02*
X128702380Y-84750000D01*
X128845238Y-84654761D01*
X128940476Y-84559523D01*
X128988095Y-84464285D01*
%TD*%
M02*
