%TF.GenerationSoftware,KiCad,Pcbnew,5.1.10-1.fc33*%
%TF.CreationDate,2021-10-07T20:02:16-05:00*%
%TF.ProjectId,serdes-rf-hdmi,73657264-6573-42d7-9266-2d68646d692e,B*%
%TF.SameCoordinates,Original*%
%TF.FileFunction,Soldermask,Top*%
%TF.FilePolarity,Negative*%
%FSLAX46Y46*%
G04 Gerber Fmt 4.6, Leading zero omitted, Abs format (unit mm)*
G04 Created by KiCad (PCBNEW 5.1.10-1.fc33) date 2021-10-07 20:02:16*
%MOMM*%
%LPD*%
G01*
G04 APERTURE LIST*
%ADD10C,0.010000*%
%ADD11R,1.650000X0.760000*%
%ADD12R,3.600000X1.270000*%
%ADD13R,4.200000X1.350000*%
%ADD14R,2.600000X0.600000*%
%ADD15R,2.800000X0.500000*%
G04 APERTURE END LIST*
D10*
%TO.C,G1*%
G36*
X157371871Y-84328133D02*
G01*
X157570299Y-84328377D01*
X157733672Y-84328956D01*
X157865631Y-84330011D01*
X157969816Y-84331683D01*
X158049865Y-84334114D01*
X158109420Y-84337444D01*
X158152119Y-84341816D01*
X158181601Y-84347369D01*
X158201508Y-84354246D01*
X158215478Y-84362588D01*
X158224778Y-84370367D01*
X158249069Y-84392328D01*
X158269725Y-84413065D01*
X158287060Y-84436017D01*
X158301388Y-84464628D01*
X158313023Y-84502339D01*
X158322277Y-84552591D01*
X158329464Y-84618828D01*
X158334897Y-84704489D01*
X158338891Y-84813019D01*
X158341758Y-84947857D01*
X158343813Y-85112446D01*
X158345367Y-85310228D01*
X158346736Y-85544645D01*
X158347683Y-85719792D01*
X158354116Y-86899834D01*
X157907334Y-86899834D01*
X157907334Y-84846667D01*
X157357000Y-84846667D01*
X157357000Y-86899834D01*
X156912500Y-86899834D01*
X156912500Y-84846667D01*
X156362167Y-84846667D01*
X156362167Y-86899834D01*
X155938834Y-86899834D01*
X155938834Y-85713449D01*
X155938848Y-85452762D01*
X155939071Y-85230987D01*
X155939771Y-85044705D01*
X155941220Y-84890495D01*
X155943686Y-84764937D01*
X155947439Y-84664611D01*
X155952749Y-84586096D01*
X155959885Y-84525971D01*
X155969117Y-84480817D01*
X155980715Y-84447213D01*
X155994948Y-84421738D01*
X156012087Y-84400973D01*
X156032400Y-84381497D01*
X156044722Y-84370367D01*
X156056569Y-84360759D01*
X156071455Y-84352728D01*
X156093021Y-84346133D01*
X156124906Y-84340832D01*
X156170750Y-84336684D01*
X156234192Y-84333549D01*
X156318872Y-84331284D01*
X156428431Y-84329750D01*
X156566507Y-84328803D01*
X156736740Y-84328305D01*
X156942770Y-84328112D01*
X157134750Y-84328084D01*
X157371871Y-84328133D01*
G37*
X157371871Y-84328133D02*
X157570299Y-84328377D01*
X157733672Y-84328956D01*
X157865631Y-84330011D01*
X157969816Y-84331683D01*
X158049865Y-84334114D01*
X158109420Y-84337444D01*
X158152119Y-84341816D01*
X158181601Y-84347369D01*
X158201508Y-84354246D01*
X158215478Y-84362588D01*
X158224778Y-84370367D01*
X158249069Y-84392328D01*
X158269725Y-84413065D01*
X158287060Y-84436017D01*
X158301388Y-84464628D01*
X158313023Y-84502339D01*
X158322277Y-84552591D01*
X158329464Y-84618828D01*
X158334897Y-84704489D01*
X158338891Y-84813019D01*
X158341758Y-84947857D01*
X158343813Y-85112446D01*
X158345367Y-85310228D01*
X158346736Y-85544645D01*
X158347683Y-85719792D01*
X158354116Y-86899834D01*
X157907334Y-86899834D01*
X157907334Y-84846667D01*
X157357000Y-84846667D01*
X157357000Y-86899834D01*
X156912500Y-86899834D01*
X156912500Y-84846667D01*
X156362167Y-84846667D01*
X156362167Y-86899834D01*
X155938834Y-86899834D01*
X155938834Y-85713449D01*
X155938848Y-85452762D01*
X155939071Y-85230987D01*
X155939771Y-85044705D01*
X155941220Y-84890495D01*
X155943686Y-84764937D01*
X155947439Y-84664611D01*
X155952749Y-84586096D01*
X155959885Y-84525971D01*
X155969117Y-84480817D01*
X155980715Y-84447213D01*
X155994948Y-84421738D01*
X156012087Y-84400973D01*
X156032400Y-84381497D01*
X156044722Y-84370367D01*
X156056569Y-84360759D01*
X156071455Y-84352728D01*
X156093021Y-84346133D01*
X156124906Y-84340832D01*
X156170750Y-84336684D01*
X156234192Y-84333549D01*
X156318872Y-84331284D01*
X156428431Y-84329750D01*
X156566507Y-84328803D01*
X156736740Y-84328305D01*
X156942770Y-84328112D01*
X157134750Y-84328084D01*
X157371871Y-84328133D01*
%TD*%
D11*
%TO.C,TR2*%
X135340000Y-87230000D03*
X135340000Y-89770000D03*
X132160000Y-89770000D03*
X132160000Y-88500000D03*
X132160000Y-87230000D03*
%TD*%
%TO.C,TR1*%
X135340000Y-78730000D03*
X135340000Y-81270000D03*
X132160000Y-81270000D03*
X132160000Y-80000000D03*
X132160000Y-78730000D03*
%TD*%
D12*
%TO.C,J2*%
X170200000Y-91000000D03*
D13*
X170000000Y-88175000D03*
X170000000Y-93825000D03*
%TD*%
%TO.C,R4*%
G36*
G01*
X127850000Y-88049999D02*
X127850000Y-88950001D01*
G75*
G02*
X127600001Y-89200000I-249999J0D01*
G01*
X127074999Y-89200000D01*
G75*
G02*
X126825000Y-88950001I0J249999D01*
G01*
X126825000Y-88049999D01*
G75*
G02*
X127074999Y-87800000I249999J0D01*
G01*
X127600001Y-87800000D01*
G75*
G02*
X127850000Y-88049999I0J-249999D01*
G01*
G37*
G36*
G01*
X129675000Y-88049999D02*
X129675000Y-88950001D01*
G75*
G02*
X129425001Y-89200000I-249999J0D01*
G01*
X128899999Y-89200000D01*
G75*
G02*
X128650000Y-88950001I0J249999D01*
G01*
X128650000Y-88049999D01*
G75*
G02*
X128899999Y-87800000I249999J0D01*
G01*
X129425001Y-87800000D01*
G75*
G02*
X129675000Y-88049999I0J-249999D01*
G01*
G37*
%TD*%
%TO.C,R3*%
G36*
G01*
X127850000Y-79549999D02*
X127850000Y-80450001D01*
G75*
G02*
X127600001Y-80700000I-249999J0D01*
G01*
X127074999Y-80700000D01*
G75*
G02*
X126825000Y-80450001I0J249999D01*
G01*
X126825000Y-79549999D01*
G75*
G02*
X127074999Y-79300000I249999J0D01*
G01*
X127600001Y-79300000D01*
G75*
G02*
X127850000Y-79549999I0J-249999D01*
G01*
G37*
G36*
G01*
X129675000Y-79549999D02*
X129675000Y-80450001D01*
G75*
G02*
X129425001Y-80700000I-249999J0D01*
G01*
X128899999Y-80700000D01*
G75*
G02*
X128650000Y-80450001I0J249999D01*
G01*
X128650000Y-79549999D01*
G75*
G02*
X128899999Y-79300000I249999J0D01*
G01*
X129425001Y-79300000D01*
G75*
G02*
X129675000Y-79549999I0J-249999D01*
G01*
G37*
%TD*%
%TO.C,L8*%
G36*
G01*
X152487500Y-87900000D02*
X152012500Y-87900000D01*
G75*
G02*
X151775000Y-87662500I0J237500D01*
G01*
X151775000Y-87087500D01*
G75*
G02*
X152012500Y-86850000I237500J0D01*
G01*
X152487500Y-86850000D01*
G75*
G02*
X152725000Y-87087500I0J-237500D01*
G01*
X152725000Y-87662500D01*
G75*
G02*
X152487500Y-87900000I-237500J0D01*
G01*
G37*
G36*
G01*
X152487500Y-89650000D02*
X152012500Y-89650000D01*
G75*
G02*
X151775000Y-89412500I0J237500D01*
G01*
X151775000Y-88837500D01*
G75*
G02*
X152012500Y-88600000I237500J0D01*
G01*
X152487500Y-88600000D01*
G75*
G02*
X152725000Y-88837500I0J-237500D01*
G01*
X152725000Y-89412500D01*
G75*
G02*
X152487500Y-89650000I-237500J0D01*
G01*
G37*
%TD*%
%TO.C,L7*%
G36*
G01*
X152487500Y-79400000D02*
X152012500Y-79400000D01*
G75*
G02*
X151775000Y-79162500I0J237500D01*
G01*
X151775000Y-78587500D01*
G75*
G02*
X152012500Y-78350000I237500J0D01*
G01*
X152487500Y-78350000D01*
G75*
G02*
X152725000Y-78587500I0J-237500D01*
G01*
X152725000Y-79162500D01*
G75*
G02*
X152487500Y-79400000I-237500J0D01*
G01*
G37*
G36*
G01*
X152487500Y-81150000D02*
X152012500Y-81150000D01*
G75*
G02*
X151775000Y-80912500I0J237500D01*
G01*
X151775000Y-80337500D01*
G75*
G02*
X152012500Y-80100000I237500J0D01*
G01*
X152487500Y-80100000D01*
G75*
G02*
X152725000Y-80337500I0J-237500D01*
G01*
X152725000Y-80912500D01*
G75*
G02*
X152487500Y-81150000I-237500J0D01*
G01*
G37*
%TD*%
%TO.C,L6*%
G36*
G01*
X148012500Y-88600000D02*
X148487500Y-88600000D01*
G75*
G02*
X148725000Y-88837500I0J-237500D01*
G01*
X148725000Y-89412500D01*
G75*
G02*
X148487500Y-89650000I-237500J0D01*
G01*
X148012500Y-89650000D01*
G75*
G02*
X147775000Y-89412500I0J237500D01*
G01*
X147775000Y-88837500D01*
G75*
G02*
X148012500Y-88600000I237500J0D01*
G01*
G37*
G36*
G01*
X148012500Y-86850000D02*
X148487500Y-86850000D01*
G75*
G02*
X148725000Y-87087500I0J-237500D01*
G01*
X148725000Y-87662500D01*
G75*
G02*
X148487500Y-87900000I-237500J0D01*
G01*
X148012500Y-87900000D01*
G75*
G02*
X147775000Y-87662500I0J237500D01*
G01*
X147775000Y-87087500D01*
G75*
G02*
X148012500Y-86850000I237500J0D01*
G01*
G37*
%TD*%
%TO.C,L5*%
G36*
G01*
X148012500Y-80100000D02*
X148487500Y-80100000D01*
G75*
G02*
X148725000Y-80337500I0J-237500D01*
G01*
X148725000Y-80912500D01*
G75*
G02*
X148487500Y-81150000I-237500J0D01*
G01*
X148012500Y-81150000D01*
G75*
G02*
X147775000Y-80912500I0J237500D01*
G01*
X147775000Y-80337500D01*
G75*
G02*
X148012500Y-80100000I237500J0D01*
G01*
G37*
G36*
G01*
X148012500Y-78350000D02*
X148487500Y-78350000D01*
G75*
G02*
X148725000Y-78587500I0J-237500D01*
G01*
X148725000Y-79162500D01*
G75*
G02*
X148487500Y-79400000I-237500J0D01*
G01*
X148012500Y-79400000D01*
G75*
G02*
X147775000Y-79162500I0J237500D01*
G01*
X147775000Y-78587500D01*
G75*
G02*
X148012500Y-78350000I237500J0D01*
G01*
G37*
%TD*%
%TO.C,L4*%
G36*
G01*
X144487500Y-87900000D02*
X144012500Y-87900000D01*
G75*
G02*
X143775000Y-87662500I0J237500D01*
G01*
X143775000Y-87087500D01*
G75*
G02*
X144012500Y-86850000I237500J0D01*
G01*
X144487500Y-86850000D01*
G75*
G02*
X144725000Y-87087500I0J-237500D01*
G01*
X144725000Y-87662500D01*
G75*
G02*
X144487500Y-87900000I-237500J0D01*
G01*
G37*
G36*
G01*
X144487500Y-89650000D02*
X144012500Y-89650000D01*
G75*
G02*
X143775000Y-89412500I0J237500D01*
G01*
X143775000Y-88837500D01*
G75*
G02*
X144012500Y-88600000I237500J0D01*
G01*
X144487500Y-88600000D01*
G75*
G02*
X144725000Y-88837500I0J-237500D01*
G01*
X144725000Y-89412500D01*
G75*
G02*
X144487500Y-89650000I-237500J0D01*
G01*
G37*
%TD*%
%TO.C,L3*%
G36*
G01*
X144487500Y-79400000D02*
X144012500Y-79400000D01*
G75*
G02*
X143775000Y-79162500I0J237500D01*
G01*
X143775000Y-78587500D01*
G75*
G02*
X144012500Y-78350000I237500J0D01*
G01*
X144487500Y-78350000D01*
G75*
G02*
X144725000Y-78587500I0J-237500D01*
G01*
X144725000Y-79162500D01*
G75*
G02*
X144487500Y-79400000I-237500J0D01*
G01*
G37*
G36*
G01*
X144487500Y-81150000D02*
X144012500Y-81150000D01*
G75*
G02*
X143775000Y-80912500I0J237500D01*
G01*
X143775000Y-80337500D01*
G75*
G02*
X144012500Y-80100000I237500J0D01*
G01*
X144487500Y-80100000D01*
G75*
G02*
X144725000Y-80337500I0J-237500D01*
G01*
X144725000Y-80912500D01*
G75*
G02*
X144487500Y-81150000I-237500J0D01*
G01*
G37*
%TD*%
%TO.C,L2*%
G36*
G01*
X140012500Y-88600000D02*
X140487500Y-88600000D01*
G75*
G02*
X140725000Y-88837500I0J-237500D01*
G01*
X140725000Y-89412500D01*
G75*
G02*
X140487500Y-89650000I-237500J0D01*
G01*
X140012500Y-89650000D01*
G75*
G02*
X139775000Y-89412500I0J237500D01*
G01*
X139775000Y-88837500D01*
G75*
G02*
X140012500Y-88600000I237500J0D01*
G01*
G37*
G36*
G01*
X140012500Y-86850000D02*
X140487500Y-86850000D01*
G75*
G02*
X140725000Y-87087500I0J-237500D01*
G01*
X140725000Y-87662500D01*
G75*
G02*
X140487500Y-87900000I-237500J0D01*
G01*
X140012500Y-87900000D01*
G75*
G02*
X139775000Y-87662500I0J237500D01*
G01*
X139775000Y-87087500D01*
G75*
G02*
X140012500Y-86850000I237500J0D01*
G01*
G37*
%TD*%
%TO.C,L1*%
G36*
G01*
X140012500Y-80100000D02*
X140487500Y-80100000D01*
G75*
G02*
X140725000Y-80337500I0J-237500D01*
G01*
X140725000Y-80912500D01*
G75*
G02*
X140487500Y-81150000I-237500J0D01*
G01*
X140012500Y-81150000D01*
G75*
G02*
X139775000Y-80912500I0J237500D01*
G01*
X139775000Y-80337500D01*
G75*
G02*
X140012500Y-80100000I237500J0D01*
G01*
G37*
G36*
G01*
X140012500Y-78350000D02*
X140487500Y-78350000D01*
G75*
G02*
X140725000Y-78587500I0J-237500D01*
G01*
X140725000Y-79162500D01*
G75*
G02*
X140487500Y-79400000I-237500J0D01*
G01*
X140012500Y-79400000D01*
G75*
G02*
X139775000Y-79162500I0J237500D01*
G01*
X139775000Y-78587500D01*
G75*
G02*
X140012500Y-78350000I237500J0D01*
G01*
G37*
%TD*%
%TO.C,C9*%
G36*
G01*
X150487500Y-87925000D02*
X150012500Y-87925000D01*
G75*
G02*
X149775000Y-87687500I0J237500D01*
G01*
X149775000Y-87087500D01*
G75*
G02*
X150012500Y-86850000I237500J0D01*
G01*
X150487500Y-86850000D01*
G75*
G02*
X150725000Y-87087500I0J-237500D01*
G01*
X150725000Y-87687500D01*
G75*
G02*
X150487500Y-87925000I-237500J0D01*
G01*
G37*
G36*
G01*
X150487500Y-89650000D02*
X150012500Y-89650000D01*
G75*
G02*
X149775000Y-89412500I0J237500D01*
G01*
X149775000Y-88812500D01*
G75*
G02*
X150012500Y-88575000I237500J0D01*
G01*
X150487500Y-88575000D01*
G75*
G02*
X150725000Y-88812500I0J-237500D01*
G01*
X150725000Y-89412500D01*
G75*
G02*
X150487500Y-89650000I-237500J0D01*
G01*
G37*
%TD*%
%TO.C,C8*%
G36*
G01*
X150487500Y-79425000D02*
X150012500Y-79425000D01*
G75*
G02*
X149775000Y-79187500I0J237500D01*
G01*
X149775000Y-78587500D01*
G75*
G02*
X150012500Y-78350000I237500J0D01*
G01*
X150487500Y-78350000D01*
G75*
G02*
X150725000Y-78587500I0J-237500D01*
G01*
X150725000Y-79187500D01*
G75*
G02*
X150487500Y-79425000I-237500J0D01*
G01*
G37*
G36*
G01*
X150487500Y-81150000D02*
X150012500Y-81150000D01*
G75*
G02*
X149775000Y-80912500I0J237500D01*
G01*
X149775000Y-80312500D01*
G75*
G02*
X150012500Y-80075000I237500J0D01*
G01*
X150487500Y-80075000D01*
G75*
G02*
X150725000Y-80312500I0J-237500D01*
G01*
X150725000Y-80912500D01*
G75*
G02*
X150487500Y-81150000I-237500J0D01*
G01*
G37*
%TD*%
%TO.C,C7*%
G36*
G01*
X146012500Y-88575000D02*
X146487500Y-88575000D01*
G75*
G02*
X146725000Y-88812500I0J-237500D01*
G01*
X146725000Y-89412500D01*
G75*
G02*
X146487500Y-89650000I-237500J0D01*
G01*
X146012500Y-89650000D01*
G75*
G02*
X145775000Y-89412500I0J237500D01*
G01*
X145775000Y-88812500D01*
G75*
G02*
X146012500Y-88575000I237500J0D01*
G01*
G37*
G36*
G01*
X146012500Y-86850000D02*
X146487500Y-86850000D01*
G75*
G02*
X146725000Y-87087500I0J-237500D01*
G01*
X146725000Y-87687500D01*
G75*
G02*
X146487500Y-87925000I-237500J0D01*
G01*
X146012500Y-87925000D01*
G75*
G02*
X145775000Y-87687500I0J237500D01*
G01*
X145775000Y-87087500D01*
G75*
G02*
X146012500Y-86850000I237500J0D01*
G01*
G37*
%TD*%
%TO.C,C6*%
G36*
G01*
X146012500Y-80075000D02*
X146487500Y-80075000D01*
G75*
G02*
X146725000Y-80312500I0J-237500D01*
G01*
X146725000Y-80912500D01*
G75*
G02*
X146487500Y-81150000I-237500J0D01*
G01*
X146012500Y-81150000D01*
G75*
G02*
X145775000Y-80912500I0J237500D01*
G01*
X145775000Y-80312500D01*
G75*
G02*
X146012500Y-80075000I237500J0D01*
G01*
G37*
G36*
G01*
X146012500Y-78350000D02*
X146487500Y-78350000D01*
G75*
G02*
X146725000Y-78587500I0J-237500D01*
G01*
X146725000Y-79187500D01*
G75*
G02*
X146487500Y-79425000I-237500J0D01*
G01*
X146012500Y-79425000D01*
G75*
G02*
X145775000Y-79187500I0J237500D01*
G01*
X145775000Y-78587500D01*
G75*
G02*
X146012500Y-78350000I237500J0D01*
G01*
G37*
%TD*%
%TO.C,C5*%
G36*
G01*
X142487500Y-87925000D02*
X142012500Y-87925000D01*
G75*
G02*
X141775000Y-87687500I0J237500D01*
G01*
X141775000Y-87087500D01*
G75*
G02*
X142012500Y-86850000I237500J0D01*
G01*
X142487500Y-86850000D01*
G75*
G02*
X142725000Y-87087500I0J-237500D01*
G01*
X142725000Y-87687500D01*
G75*
G02*
X142487500Y-87925000I-237500J0D01*
G01*
G37*
G36*
G01*
X142487500Y-89650000D02*
X142012500Y-89650000D01*
G75*
G02*
X141775000Y-89412500I0J237500D01*
G01*
X141775000Y-88812500D01*
G75*
G02*
X142012500Y-88575000I237500J0D01*
G01*
X142487500Y-88575000D01*
G75*
G02*
X142725000Y-88812500I0J-237500D01*
G01*
X142725000Y-89412500D01*
G75*
G02*
X142487500Y-89650000I-237500J0D01*
G01*
G37*
%TD*%
%TO.C,C4*%
G36*
G01*
X142487500Y-79425000D02*
X142012500Y-79425000D01*
G75*
G02*
X141775000Y-79187500I0J237500D01*
G01*
X141775000Y-78587500D01*
G75*
G02*
X142012500Y-78350000I237500J0D01*
G01*
X142487500Y-78350000D01*
G75*
G02*
X142725000Y-78587500I0J-237500D01*
G01*
X142725000Y-79187500D01*
G75*
G02*
X142487500Y-79425000I-237500J0D01*
G01*
G37*
G36*
G01*
X142487500Y-81150000D02*
X142012500Y-81150000D01*
G75*
G02*
X141775000Y-80912500I0J237500D01*
G01*
X141775000Y-80312500D01*
G75*
G02*
X142012500Y-80075000I237500J0D01*
G01*
X142487500Y-80075000D01*
G75*
G02*
X142725000Y-80312500I0J-237500D01*
G01*
X142725000Y-80912500D01*
G75*
G02*
X142487500Y-81150000I-237500J0D01*
G01*
G37*
%TD*%
%TO.C,C3*%
G36*
G01*
X138012500Y-88575000D02*
X138487500Y-88575000D01*
G75*
G02*
X138725000Y-88812500I0J-237500D01*
G01*
X138725000Y-89412500D01*
G75*
G02*
X138487500Y-89650000I-237500J0D01*
G01*
X138012500Y-89650000D01*
G75*
G02*
X137775000Y-89412500I0J237500D01*
G01*
X137775000Y-88812500D01*
G75*
G02*
X138012500Y-88575000I237500J0D01*
G01*
G37*
G36*
G01*
X138012500Y-86850000D02*
X138487500Y-86850000D01*
G75*
G02*
X138725000Y-87087500I0J-237500D01*
G01*
X138725000Y-87687500D01*
G75*
G02*
X138487500Y-87925000I-237500J0D01*
G01*
X138012500Y-87925000D01*
G75*
G02*
X137775000Y-87687500I0J237500D01*
G01*
X137775000Y-87087500D01*
G75*
G02*
X138012500Y-86850000I237500J0D01*
G01*
G37*
%TD*%
%TO.C,C2*%
G36*
G01*
X138012500Y-80075000D02*
X138487500Y-80075000D01*
G75*
G02*
X138725000Y-80312500I0J-237500D01*
G01*
X138725000Y-80912500D01*
G75*
G02*
X138487500Y-81150000I-237500J0D01*
G01*
X138012500Y-81150000D01*
G75*
G02*
X137775000Y-80912500I0J237500D01*
G01*
X137775000Y-80312500D01*
G75*
G02*
X138012500Y-80075000I237500J0D01*
G01*
G37*
G36*
G01*
X138012500Y-78350000D02*
X138487500Y-78350000D01*
G75*
G02*
X138725000Y-78587500I0J-237500D01*
G01*
X138725000Y-79187500D01*
G75*
G02*
X138487500Y-79425000I-237500J0D01*
G01*
X138012500Y-79425000D01*
G75*
G02*
X137775000Y-79187500I0J237500D01*
G01*
X137775000Y-78587500D01*
G75*
G02*
X138012500Y-78350000I237500J0D01*
G01*
G37*
%TD*%
D12*
%TO.C,J3*%
X170200000Y-79000000D03*
D13*
X170000000Y-76175000D03*
X170000000Y-81825000D03*
%TD*%
D14*
%TO.C,J1*%
X119900000Y-91775000D03*
X119900000Y-78225000D03*
D15*
X120000000Y-89500000D03*
X120000000Y-88500000D03*
X120000000Y-87500000D03*
X120000000Y-86500000D03*
X120000000Y-85500000D03*
X120000000Y-84500000D03*
X120000000Y-83500000D03*
X120000000Y-82500000D03*
X120000000Y-81500000D03*
X120000000Y-80500000D03*
%TD*%
M02*
