%TF.GenerationSoftware,KiCad,Pcbnew,5.1.10-1.fc33*%
%TF.CreationDate,2021-08-29T16:43:16-05:00*%
%TF.ProjectId,serdes-rf-hdmi,73657264-6573-42d7-9266-2d68646d692e,A*%
%TF.SameCoordinates,Original*%
%TF.FileFunction,Paste,Top*%
%TF.FilePolarity,Positive*%
%FSLAX46Y46*%
G04 Gerber Fmt 4.6, Leading zero omitted, Abs format (unit mm)*
G04 Created by KiCad (PCBNEW 5.1.10-1.fc33) date 2021-08-29 16:43:16*
%MOMM*%
%LPD*%
G01*
G04 APERTURE LIST*
%ADD10R,3.600000X1.270000*%
%ADD11R,4.200000X1.350000*%
%ADD12R,2.600000X0.600000*%
%ADD13R,2.800000X0.500000*%
G04 APERTURE END LIST*
%TO.C,R5*%
G36*
G01*
X126900000Y-82450001D02*
X126900000Y-81549999D01*
G75*
G02*
X127149999Y-81300000I249999J0D01*
G01*
X127675001Y-81300000D01*
G75*
G02*
X127925000Y-81549999I0J-249999D01*
G01*
X127925000Y-82450001D01*
G75*
G02*
X127675001Y-82700000I-249999J0D01*
G01*
X127149999Y-82700000D01*
G75*
G02*
X126900000Y-82450001I0J249999D01*
G01*
G37*
G36*
G01*
X125075000Y-82450001D02*
X125075000Y-81549999D01*
G75*
G02*
X125324999Y-81300000I249999J0D01*
G01*
X125850001Y-81300000D01*
G75*
G02*
X126100000Y-81549999I0J-249999D01*
G01*
X126100000Y-82450001D01*
G75*
G02*
X125850001Y-82700000I-249999J0D01*
G01*
X125324999Y-82700000D01*
G75*
G02*
X125075000Y-82450001I0J249999D01*
G01*
G37*
%TD*%
%TO.C,R4*%
G36*
G01*
X135049999Y-97400000D02*
X135950001Y-97400000D01*
G75*
G02*
X136200000Y-97649999I0J-249999D01*
G01*
X136200000Y-98175001D01*
G75*
G02*
X135950001Y-98425000I-249999J0D01*
G01*
X135049999Y-98425000D01*
G75*
G02*
X134800000Y-98175001I0J249999D01*
G01*
X134800000Y-97649999D01*
G75*
G02*
X135049999Y-97400000I249999J0D01*
G01*
G37*
G36*
G01*
X135049999Y-95575000D02*
X135950001Y-95575000D01*
G75*
G02*
X136200000Y-95824999I0J-249999D01*
G01*
X136200000Y-96350001D01*
G75*
G02*
X135950001Y-96600000I-249999J0D01*
G01*
X135049999Y-96600000D01*
G75*
G02*
X134800000Y-96350001I0J249999D01*
G01*
X134800000Y-95824999D01*
G75*
G02*
X135049999Y-95575000I249999J0D01*
G01*
G37*
%TD*%
%TO.C,R3*%
G36*
G01*
X135950001Y-92600000D02*
X135049999Y-92600000D01*
G75*
G02*
X134800000Y-92350001I0J249999D01*
G01*
X134800000Y-91824999D01*
G75*
G02*
X135049999Y-91575000I249999J0D01*
G01*
X135950001Y-91575000D01*
G75*
G02*
X136200000Y-91824999I0J-249999D01*
G01*
X136200000Y-92350001D01*
G75*
G02*
X135950001Y-92600000I-249999J0D01*
G01*
G37*
G36*
G01*
X135950001Y-94425000D02*
X135049999Y-94425000D01*
G75*
G02*
X134800000Y-94175001I0J249999D01*
G01*
X134800000Y-93649999D01*
G75*
G02*
X135049999Y-93400000I249999J0D01*
G01*
X135950001Y-93400000D01*
G75*
G02*
X136200000Y-93649999I0J-249999D01*
G01*
X136200000Y-94175001D01*
G75*
G02*
X135950001Y-94425000I-249999J0D01*
G01*
G37*
%TD*%
%TO.C,R2*%
G36*
G01*
X126900000Y-85450001D02*
X126900000Y-84549999D01*
G75*
G02*
X127149999Y-84300000I249999J0D01*
G01*
X127675001Y-84300000D01*
G75*
G02*
X127925000Y-84549999I0J-249999D01*
G01*
X127925000Y-85450001D01*
G75*
G02*
X127675001Y-85700000I-249999J0D01*
G01*
X127149999Y-85700000D01*
G75*
G02*
X126900000Y-85450001I0J249999D01*
G01*
G37*
G36*
G01*
X125075000Y-85450001D02*
X125075000Y-84549999D01*
G75*
G02*
X125324999Y-84300000I249999J0D01*
G01*
X125850001Y-84300000D01*
G75*
G02*
X126100000Y-84549999I0J-249999D01*
G01*
X126100000Y-85450001D01*
G75*
G02*
X125850001Y-85700000I-249999J0D01*
G01*
X125324999Y-85700000D01*
G75*
G02*
X125075000Y-85450001I0J249999D01*
G01*
G37*
%TD*%
D10*
%TO.C,J3*%
X150200000Y-75000000D03*
D11*
X150000000Y-72175000D03*
X150000000Y-77825000D03*
%TD*%
D10*
%TO.C,J2*%
X150200000Y-95000000D03*
D11*
X150000000Y-92175000D03*
X150000000Y-97825000D03*
%TD*%
D12*
%TO.C,J1*%
X119900000Y-91775000D03*
X119900000Y-78225000D03*
D13*
X120000000Y-89500000D03*
X120000000Y-88500000D03*
X120000000Y-87500000D03*
X120000000Y-86500000D03*
X120000000Y-85500000D03*
X120000000Y-84500000D03*
X120000000Y-83500000D03*
X120000000Y-82500000D03*
X120000000Y-81500000D03*
X120000000Y-80500000D03*
%TD*%
%TO.C,C2*%
G36*
G01*
X140800000Y-94330000D02*
X140800000Y-94670000D01*
G75*
G02*
X140660000Y-94810000I-140000J0D01*
G01*
X140380000Y-94810000D01*
G75*
G02*
X140240000Y-94670000I0J140000D01*
G01*
X140240000Y-94330000D01*
G75*
G02*
X140380000Y-94190000I140000J0D01*
G01*
X140660000Y-94190000D01*
G75*
G02*
X140800000Y-94330000I0J-140000D01*
G01*
G37*
G36*
G01*
X141760000Y-94330000D02*
X141760000Y-94670000D01*
G75*
G02*
X141620000Y-94810000I-140000J0D01*
G01*
X141340000Y-94810000D01*
G75*
G02*
X141200000Y-94670000I0J140000D01*
G01*
X141200000Y-94330000D01*
G75*
G02*
X141340000Y-94190000I140000J0D01*
G01*
X141620000Y-94190000D01*
G75*
G02*
X141760000Y-94330000I0J-140000D01*
G01*
G37*
%TD*%
%TO.C,C1*%
G36*
G01*
X140800000Y-95330000D02*
X140800000Y-95670000D01*
G75*
G02*
X140660000Y-95810000I-140000J0D01*
G01*
X140380000Y-95810000D01*
G75*
G02*
X140240000Y-95670000I0J140000D01*
G01*
X140240000Y-95330000D01*
G75*
G02*
X140380000Y-95190000I140000J0D01*
G01*
X140660000Y-95190000D01*
G75*
G02*
X140800000Y-95330000I0J-140000D01*
G01*
G37*
G36*
G01*
X141760000Y-95330000D02*
X141760000Y-95670000D01*
G75*
G02*
X141620000Y-95810000I-140000J0D01*
G01*
X141340000Y-95810000D01*
G75*
G02*
X141200000Y-95670000I0J140000D01*
G01*
X141200000Y-95330000D01*
G75*
G02*
X141340000Y-95190000I140000J0D01*
G01*
X141620000Y-95190000D01*
G75*
G02*
X141760000Y-95330000I0J-140000D01*
G01*
G37*
%TD*%
M02*
