%TF.GenerationSoftware,KiCad,Pcbnew,5.1.10-1.fc33*%
%TF.CreationDate,2021-08-29T16:43:16-05:00*%
%TF.ProjectId,serdes-rf-hdmi,73657264-6573-42d7-9266-2d68646d692e,A*%
%TF.SameCoordinates,Original*%
%TF.FileFunction,Copper,L3,Inr*%
%TF.FilePolarity,Positive*%
%FSLAX46Y46*%
G04 Gerber Fmt 4.6, Leading zero omitted, Abs format (unit mm)*
G04 Created by KiCad (PCBNEW 5.1.10-1.fc33) date 2021-08-29 16:43:16*
%MOMM*%
%LPD*%
G01*
G04 APERTURE LIST*
%TA.AperFunction,ViaPad*%
%ADD10C,0.800000*%
%TD*%
%TA.AperFunction,Conductor*%
%ADD11C,0.254000*%
%TD*%
%TA.AperFunction,Conductor*%
%ADD12C,0.100000*%
%TD*%
G04 APERTURE END LIST*
D10*
%TO.N,Net-(C3-Pad1)*%
X150000000Y-75000000D03*
%TO.N,GND*%
X146175000Y-72175000D03*
X146175000Y-77825000D03*
X146175000Y-92175000D03*
X146175000Y-97825000D03*
X122500000Y-88500000D03*
X135500000Y-91000000D03*
X135500000Y-99000000D03*
X134500000Y-83000000D03*
X129000000Y-81500000D03*
X129000000Y-84500000D03*
X122500000Y-92000000D03*
X122500000Y-78000000D03*
X120000000Y-75000000D03*
X120000000Y-72500000D03*
X120000000Y-70000000D03*
X122500000Y-70000000D03*
X125000000Y-70000000D03*
X127500000Y-70000000D03*
X130000000Y-70000000D03*
X132500000Y-70000000D03*
X135000000Y-70000000D03*
X137500000Y-70000000D03*
X140000000Y-70000000D03*
X142500000Y-70000000D03*
X145000000Y-70000000D03*
X147500000Y-70000000D03*
X150000000Y-70000000D03*
X150000000Y-80000000D03*
X150000000Y-82500000D03*
X150000000Y-85000000D03*
X150000000Y-87500000D03*
X150000000Y-90000000D03*
X150000000Y-100000000D03*
X147500000Y-100000000D03*
X145000000Y-100000000D03*
X142500000Y-100000000D03*
X140000000Y-100000000D03*
X137500000Y-100000000D03*
X135000000Y-100000000D03*
X132500000Y-100000000D03*
X130000000Y-100000000D03*
X127500000Y-100000000D03*
X125000000Y-100000000D03*
X122500000Y-100000000D03*
X120000000Y-100000000D03*
X120000000Y-97500000D03*
X120000000Y-95000000D03*
X130000000Y-87500000D03*
X130000000Y-90000000D03*
X130000000Y-92500000D03*
X130000000Y-95000000D03*
X132500000Y-97500000D03*
X132500000Y-80000000D03*
X134000000Y-90000000D03*
X134000000Y-87500000D03*
X134000000Y-85000000D03*
X127500000Y-79500000D03*
X125000000Y-79500000D03*
X122500000Y-79500000D03*
X130000000Y-77000000D03*
X132500000Y-74500000D03*
X135000000Y-73500000D03*
X137500000Y-73500000D03*
X140000000Y-73500000D03*
X142500000Y-73500000D03*
X145000000Y-73500000D03*
X145000000Y-77000000D03*
X142500000Y-77000000D03*
X140000000Y-77000000D03*
X137500000Y-77000000D03*
X135000000Y-77000000D03*
X132500000Y-79000000D03*
%TD*%
D11*
%TO.N,GND*%
X150259659Y-69188625D02*
X150509429Y-69264035D01*
X150739792Y-69386522D01*
X150941980Y-69551422D01*
X151108286Y-69752450D01*
X151232378Y-69981954D01*
X151309531Y-70231195D01*
X151340001Y-70521098D01*
X151340000Y-99467721D01*
X151311375Y-99759660D01*
X151235965Y-100009429D01*
X151113477Y-100239794D01*
X150948579Y-100441979D01*
X150747546Y-100608288D01*
X150518046Y-100732378D01*
X150268805Y-100809531D01*
X149978911Y-100840000D01*
X120532279Y-100840000D01*
X120240340Y-100811375D01*
X119990571Y-100735965D01*
X119760206Y-100613477D01*
X119558021Y-100448579D01*
X119391712Y-100247546D01*
X119267622Y-100018046D01*
X119190469Y-99768805D01*
X119160000Y-99478911D01*
X119160000Y-74898061D01*
X148965000Y-74898061D01*
X148965000Y-75101939D01*
X149004774Y-75301898D01*
X149082795Y-75490256D01*
X149196063Y-75659774D01*
X149340226Y-75803937D01*
X149509744Y-75917205D01*
X149698102Y-75995226D01*
X149898061Y-76035000D01*
X150101939Y-76035000D01*
X150301898Y-75995226D01*
X150490256Y-75917205D01*
X150659774Y-75803937D01*
X150803937Y-75659774D01*
X150917205Y-75490256D01*
X150995226Y-75301898D01*
X151035000Y-75101939D01*
X151035000Y-74898061D01*
X150995226Y-74698102D01*
X150917205Y-74509744D01*
X150803937Y-74340226D01*
X150659774Y-74196063D01*
X150490256Y-74082795D01*
X150301898Y-74004774D01*
X150101939Y-73965000D01*
X149898061Y-73965000D01*
X149698102Y-74004774D01*
X149509744Y-74082795D01*
X149340226Y-74196063D01*
X149196063Y-74340226D01*
X149082795Y-74509744D01*
X149004774Y-74698102D01*
X148965000Y-74898061D01*
X119160000Y-74898061D01*
X119160000Y-70532279D01*
X119188625Y-70240341D01*
X119264035Y-69990571D01*
X119386522Y-69760208D01*
X119551422Y-69558020D01*
X119752450Y-69391714D01*
X119981954Y-69267622D01*
X120231195Y-69190469D01*
X120521088Y-69160000D01*
X149967721Y-69160000D01*
X150259659Y-69188625D01*
%TA.AperFunction,Conductor*%
D12*
G36*
X150259659Y-69188625D02*
G01*
X150509429Y-69264035D01*
X150739792Y-69386522D01*
X150941980Y-69551422D01*
X151108286Y-69752450D01*
X151232378Y-69981954D01*
X151309531Y-70231195D01*
X151340001Y-70521098D01*
X151340000Y-99467721D01*
X151311375Y-99759660D01*
X151235965Y-100009429D01*
X151113477Y-100239794D01*
X150948579Y-100441979D01*
X150747546Y-100608288D01*
X150518046Y-100732378D01*
X150268805Y-100809531D01*
X149978911Y-100840000D01*
X120532279Y-100840000D01*
X120240340Y-100811375D01*
X119990571Y-100735965D01*
X119760206Y-100613477D01*
X119558021Y-100448579D01*
X119391712Y-100247546D01*
X119267622Y-100018046D01*
X119190469Y-99768805D01*
X119160000Y-99478911D01*
X119160000Y-74898061D01*
X148965000Y-74898061D01*
X148965000Y-75101939D01*
X149004774Y-75301898D01*
X149082795Y-75490256D01*
X149196063Y-75659774D01*
X149340226Y-75803937D01*
X149509744Y-75917205D01*
X149698102Y-75995226D01*
X149898061Y-76035000D01*
X150101939Y-76035000D01*
X150301898Y-75995226D01*
X150490256Y-75917205D01*
X150659774Y-75803937D01*
X150803937Y-75659774D01*
X150917205Y-75490256D01*
X150995226Y-75301898D01*
X151035000Y-75101939D01*
X151035000Y-74898061D01*
X150995226Y-74698102D01*
X150917205Y-74509744D01*
X150803937Y-74340226D01*
X150659774Y-74196063D01*
X150490256Y-74082795D01*
X150301898Y-74004774D01*
X150101939Y-73965000D01*
X149898061Y-73965000D01*
X149698102Y-74004774D01*
X149509744Y-74082795D01*
X149340226Y-74196063D01*
X149196063Y-74340226D01*
X149082795Y-74509744D01*
X149004774Y-74698102D01*
X148965000Y-74898061D01*
X119160000Y-74898061D01*
X119160000Y-70532279D01*
X119188625Y-70240341D01*
X119264035Y-69990571D01*
X119386522Y-69760208D01*
X119551422Y-69558020D01*
X119752450Y-69391714D01*
X119981954Y-69267622D01*
X120231195Y-69190469D01*
X120521088Y-69160000D01*
X149967721Y-69160000D01*
X150259659Y-69188625D01*
G37*
%TD.AperFunction*%
%TD*%
M02*
