M48
; DRILL file {KiCad 5.1.10-1.fc33} date Sun Aug 29 16:43:14 2021
; FORMAT={-:-/ absolute / metric / decimal}
; #@! TF.CreationDate,2021-08-29T16:43:14-05:00
; #@! TF.GenerationSoftware,Kicad,Pcbnew,5.1.10-1.fc33
FMAT,2
METRIC
T1C0.400
%
G90
G05
T1
X120.0Y-70.0
X120.0Y-72.5
X120.0Y-75.0
X120.0Y-95.0
X120.0Y-97.5
X120.0Y-100.0
X122.5Y-70.0
X122.5Y-78.0
X122.5Y-79.5
X122.5Y-88.5
X122.5Y-92.0
X122.5Y-100.0
X125.0Y-70.0
X125.0Y-79.5
X125.0Y-100.0
X127.5Y-70.0
X127.5Y-79.5
X127.5Y-100.0
X129.0Y-81.5
X129.0Y-84.5
X130.0Y-70.0
X130.0Y-77.0
X130.0Y-87.5
X130.0Y-90.0
X130.0Y-92.5
X130.0Y-95.0
X130.0Y-100.0
X132.5Y-70.0
X132.5Y-74.5
X132.5Y-79.0
X132.5Y-80.0
X132.5Y-97.5
X132.5Y-100.0
X134.0Y-85.0
X134.0Y-87.5
X134.0Y-90.0
X134.5Y-83.0
X135.0Y-70.0
X135.0Y-73.5
X135.0Y-77.0
X135.0Y-100.0
X135.5Y-91.0
X135.5Y-99.0
X137.5Y-70.0
X137.5Y-73.5
X137.5Y-77.0
X137.5Y-100.0
X140.0Y-70.0
X140.0Y-73.5
X140.0Y-77.0
X140.0Y-100.0
X142.5Y-70.0
X142.5Y-73.5
X142.5Y-77.0
X142.5Y-100.0
X145.0Y-70.0
X145.0Y-73.5
X145.0Y-77.0
X145.0Y-100.0
X146.175Y-72.175
X146.175Y-77.825
X146.175Y-92.175
X146.175Y-97.825
X147.5Y-70.0
X147.5Y-100.0
X150.0Y-70.0
X150.0Y-75.0
X150.0Y-80.0
X150.0Y-82.5
X150.0Y-85.0
X150.0Y-87.5
X150.0Y-90.0
X150.0Y-100.0
T0
M30
