%TF.GenerationSoftware,KiCad,Pcbnew,5.1.10-1.fc33*%
%TF.CreationDate,2021-08-29T16:43:16-05:00*%
%TF.ProjectId,serdes-rf-hdmi,73657264-6573-42d7-9266-2d68646d692e,A*%
%TF.SameCoordinates,Original*%
%TF.FileFunction,Copper,L1,Top*%
%TF.FilePolarity,Positive*%
%FSLAX46Y46*%
G04 Gerber Fmt 4.6, Leading zero omitted, Abs format (unit mm)*
G04 Created by KiCad (PCBNEW 5.1.10-1.fc33) date 2021-08-29 16:43:16*
%MOMM*%
%LPD*%
G01*
G04 APERTURE LIST*
%TA.AperFunction,SMDPad,CuDef*%
%ADD10R,3.600000X1.270000*%
%TD*%
%TA.AperFunction,SMDPad,CuDef*%
%ADD11R,4.200000X1.350000*%
%TD*%
%TA.AperFunction,SMDPad,CuDef*%
%ADD12R,2.600000X0.600000*%
%TD*%
%TA.AperFunction,SMDPad,CuDef*%
%ADD13R,2.800000X0.500000*%
%TD*%
%TA.AperFunction,ViaPad*%
%ADD14C,0.800000*%
%TD*%
%TA.AperFunction,Conductor*%
%ADD15C,0.190000*%
%TD*%
%TA.AperFunction,Conductor*%
%ADD16C,0.610000*%
%TD*%
%TA.AperFunction,Conductor*%
%ADD17C,0.500000*%
%TD*%
%TA.AperFunction,Conductor*%
%ADD18C,0.200000*%
%TD*%
%TA.AperFunction,NonConductor*%
%ADD19C,0.254000*%
%TD*%
%TA.AperFunction,NonConductor*%
%ADD20C,0.100000*%
%TD*%
G04 APERTURE END LIST*
%TO.P,R5,2*%
%TO.N,GND*%
%TA.AperFunction,SMDPad,CuDef*%
G36*
G01*
X126900000Y-82450001D02*
X126900000Y-81549999D01*
G75*
G02*
X127149999Y-81300000I249999J0D01*
G01*
X127675001Y-81300000D01*
G75*
G02*
X127925000Y-81549999I0J-249999D01*
G01*
X127925000Y-82450001D01*
G75*
G02*
X127675001Y-82700000I-249999J0D01*
G01*
X127149999Y-82700000D01*
G75*
G02*
X126900000Y-82450001I0J249999D01*
G01*
G37*
%TD.AperFunction*%
%TO.P,R5,1*%
%TO.N,Net-(J1-Pad3)*%
%TA.AperFunction,SMDPad,CuDef*%
G36*
G01*
X125075000Y-82450001D02*
X125075000Y-81549999D01*
G75*
G02*
X125324999Y-81300000I249999J0D01*
G01*
X125850001Y-81300000D01*
G75*
G02*
X126100000Y-81549999I0J-249999D01*
G01*
X126100000Y-82450001D01*
G75*
G02*
X125850001Y-82700000I-249999J0D01*
G01*
X125324999Y-82700000D01*
G75*
G02*
X125075000Y-82450001I0J249999D01*
G01*
G37*
%TD.AperFunction*%
%TD*%
%TO.P,R4,2*%
%TO.N,GND*%
%TA.AperFunction,SMDPad,CuDef*%
G36*
G01*
X135049999Y-97400000D02*
X135950001Y-97400000D01*
G75*
G02*
X136200000Y-97649999I0J-249999D01*
G01*
X136200000Y-98175001D01*
G75*
G02*
X135950001Y-98425000I-249999J0D01*
G01*
X135049999Y-98425000D01*
G75*
G02*
X134800000Y-98175001I0J249999D01*
G01*
X134800000Y-97649999D01*
G75*
G02*
X135049999Y-97400000I249999J0D01*
G01*
G37*
%TD.AperFunction*%
%TO.P,R4,1*%
%TO.N,/rfin-*%
%TA.AperFunction,SMDPad,CuDef*%
G36*
G01*
X135049999Y-95575000D02*
X135950001Y-95575000D01*
G75*
G02*
X136200000Y-95824999I0J-249999D01*
G01*
X136200000Y-96350001D01*
G75*
G02*
X135950001Y-96600000I-249999J0D01*
G01*
X135049999Y-96600000D01*
G75*
G02*
X134800000Y-96350001I0J249999D01*
G01*
X134800000Y-95824999D01*
G75*
G02*
X135049999Y-95575000I249999J0D01*
G01*
G37*
%TD.AperFunction*%
%TD*%
%TO.P,R3,2*%
%TO.N,GND*%
%TA.AperFunction,SMDPad,CuDef*%
G36*
G01*
X135950001Y-92600000D02*
X135049999Y-92600000D01*
G75*
G02*
X134800000Y-92350001I0J249999D01*
G01*
X134800000Y-91824999D01*
G75*
G02*
X135049999Y-91575000I249999J0D01*
G01*
X135950001Y-91575000D01*
G75*
G02*
X136200000Y-91824999I0J-249999D01*
G01*
X136200000Y-92350001D01*
G75*
G02*
X135950001Y-92600000I-249999J0D01*
G01*
G37*
%TD.AperFunction*%
%TO.P,R3,1*%
%TO.N,/rfin+*%
%TA.AperFunction,SMDPad,CuDef*%
G36*
G01*
X135950001Y-94425000D02*
X135049999Y-94425000D01*
G75*
G02*
X134800000Y-94175001I0J249999D01*
G01*
X134800000Y-93649999D01*
G75*
G02*
X135049999Y-93400000I249999J0D01*
G01*
X135950001Y-93400000D01*
G75*
G02*
X136200000Y-93649999I0J-249999D01*
G01*
X136200000Y-94175001D01*
G75*
G02*
X135950001Y-94425000I-249999J0D01*
G01*
G37*
%TD.AperFunction*%
%TD*%
%TO.P,R2,2*%
%TO.N,GND*%
%TA.AperFunction,SMDPad,CuDef*%
G36*
G01*
X126900000Y-85450001D02*
X126900000Y-84549999D01*
G75*
G02*
X127149999Y-84300000I249999J0D01*
G01*
X127675001Y-84300000D01*
G75*
G02*
X127925000Y-84549999I0J-249999D01*
G01*
X127925000Y-85450001D01*
G75*
G02*
X127675001Y-85700000I-249999J0D01*
G01*
X127149999Y-85700000D01*
G75*
G02*
X126900000Y-85450001I0J249999D01*
G01*
G37*
%TD.AperFunction*%
%TO.P,R2,1*%
%TO.N,Net-(J1-Pad9)*%
%TA.AperFunction,SMDPad,CuDef*%
G36*
G01*
X125075000Y-85450001D02*
X125075000Y-84549999D01*
G75*
G02*
X125324999Y-84300000I249999J0D01*
G01*
X125850001Y-84300000D01*
G75*
G02*
X126100000Y-84549999I0J-249999D01*
G01*
X126100000Y-85450001D01*
G75*
G02*
X125850001Y-85700000I-249999J0D01*
G01*
X125324999Y-85700000D01*
G75*
G02*
X125075000Y-85450001I0J249999D01*
G01*
G37*
%TD.AperFunction*%
%TD*%
D10*
%TO.P,J3,1*%
%TO.N,Net-(C3-Pad1)*%
X150200000Y-75000000D03*
D11*
%TO.P,J3,2*%
%TO.N,GND*%
X150000000Y-72175000D03*
X150000000Y-77825000D03*
%TD*%
D10*
%TO.P,J2,1*%
%TO.N,Net-(C1-Pad1)*%
X150200000Y-95000000D03*
D11*
%TO.P,J2,2*%
%TO.N,GND*%
X150000000Y-92175000D03*
X150000000Y-97825000D03*
%TD*%
D12*
%TO.P,J1,SH*%
%TO.N,GND*%
X119900000Y-91775000D03*
X119900000Y-78225000D03*
D13*
%TO.P,J1,19*%
%TO.N,Net-(J1-Pad19)*%
X120000000Y-89500000D03*
%TO.P,J1,17*%
%TO.N,GND*%
X120000000Y-88500000D03*
%TO.P,J1,15*%
%TO.N,Net-(J1-Pad15)*%
X120000000Y-87500000D03*
%TO.P,J1,13*%
%TO.N,Net-(J1-Pad13)*%
X120000000Y-86500000D03*
%TO.P,J1,11*%
%TO.N,Net-(J1-Pad11)*%
X120000000Y-85500000D03*
%TO.P,J1,9*%
%TO.N,Net-(J1-Pad9)*%
X120000000Y-84500000D03*
%TO.P,J1,7*%
%TO.N,/rfin-*%
X120000000Y-83500000D03*
%TO.P,J1,5*%
%TO.N,Net-(J1-Pad5)*%
X120000000Y-82500000D03*
%TO.P,J1,3*%
%TO.N,Net-(J1-Pad3)*%
X120000000Y-81500000D03*
%TO.P,J1,1*%
%TO.N,/rfin+*%
X120000000Y-80500000D03*
%TD*%
%TO.P,C2,2*%
%TO.N,/rfin+*%
%TA.AperFunction,SMDPad,CuDef*%
G36*
G01*
X140800000Y-94330000D02*
X140800000Y-94670000D01*
G75*
G02*
X140660000Y-94810000I-140000J0D01*
G01*
X140380000Y-94810000D01*
G75*
G02*
X140240000Y-94670000I0J140000D01*
G01*
X140240000Y-94330000D01*
G75*
G02*
X140380000Y-94190000I140000J0D01*
G01*
X140660000Y-94190000D01*
G75*
G02*
X140800000Y-94330000I0J-140000D01*
G01*
G37*
%TD.AperFunction*%
%TO.P,C2,1*%
%TO.N,Net-(C1-Pad1)*%
%TA.AperFunction,SMDPad,CuDef*%
G36*
G01*
X141760000Y-94330000D02*
X141760000Y-94670000D01*
G75*
G02*
X141620000Y-94810000I-140000J0D01*
G01*
X141340000Y-94810000D01*
G75*
G02*
X141200000Y-94670000I0J140000D01*
G01*
X141200000Y-94330000D01*
G75*
G02*
X141340000Y-94190000I140000J0D01*
G01*
X141620000Y-94190000D01*
G75*
G02*
X141760000Y-94330000I0J-140000D01*
G01*
G37*
%TD.AperFunction*%
%TD*%
%TO.P,C1,2*%
%TO.N,/rfin-*%
%TA.AperFunction,SMDPad,CuDef*%
G36*
G01*
X140800000Y-95330000D02*
X140800000Y-95670000D01*
G75*
G02*
X140660000Y-95810000I-140000J0D01*
G01*
X140380000Y-95810000D01*
G75*
G02*
X140240000Y-95670000I0J140000D01*
G01*
X140240000Y-95330000D01*
G75*
G02*
X140380000Y-95190000I140000J0D01*
G01*
X140660000Y-95190000D01*
G75*
G02*
X140800000Y-95330000I0J-140000D01*
G01*
G37*
%TD.AperFunction*%
%TO.P,C1,1*%
%TO.N,Net-(C1-Pad1)*%
%TA.AperFunction,SMDPad,CuDef*%
G36*
G01*
X141760000Y-95330000D02*
X141760000Y-95670000D01*
G75*
G02*
X141620000Y-95810000I-140000J0D01*
G01*
X141340000Y-95810000D01*
G75*
G02*
X141200000Y-95670000I0J140000D01*
G01*
X141200000Y-95330000D01*
G75*
G02*
X141340000Y-95190000I140000J0D01*
G01*
X141620000Y-95190000D01*
G75*
G02*
X141760000Y-95330000I0J-140000D01*
G01*
G37*
%TD.AperFunction*%
%TD*%
D14*
%TO.N,Net-(C3-Pad1)*%
X150000000Y-75000000D03*
%TO.N,GND*%
X146175000Y-72175000D03*
X146175000Y-77825000D03*
X146175000Y-92175000D03*
X146175000Y-97825000D03*
X122500000Y-88500000D03*
X135500000Y-91000000D03*
X135500000Y-99000000D03*
X134500000Y-83000000D03*
X129000000Y-81500000D03*
X129000000Y-84500000D03*
X122500000Y-92000000D03*
X122500000Y-78000000D03*
X120000000Y-75000000D03*
X120000000Y-72500000D03*
X120000000Y-70000000D03*
X122500000Y-70000000D03*
X125000000Y-70000000D03*
X127500000Y-70000000D03*
X130000000Y-70000000D03*
X132500000Y-70000000D03*
X135000000Y-70000000D03*
X137500000Y-70000000D03*
X140000000Y-70000000D03*
X142500000Y-70000000D03*
X145000000Y-70000000D03*
X147500000Y-70000000D03*
X150000000Y-70000000D03*
X150000000Y-80000000D03*
X150000000Y-82500000D03*
X150000000Y-85000000D03*
X150000000Y-87500000D03*
X150000000Y-90000000D03*
X150000000Y-100000000D03*
X147500000Y-100000000D03*
X145000000Y-100000000D03*
X142500000Y-100000000D03*
X140000000Y-100000000D03*
X137500000Y-100000000D03*
X135000000Y-100000000D03*
X132500000Y-100000000D03*
X130000000Y-100000000D03*
X127500000Y-100000000D03*
X125000000Y-100000000D03*
X122500000Y-100000000D03*
X120000000Y-100000000D03*
X120000000Y-97500000D03*
X120000000Y-95000000D03*
X130000000Y-87500000D03*
X130000000Y-90000000D03*
X130000000Y-92500000D03*
X130000000Y-95000000D03*
X132500000Y-97500000D03*
X132500000Y-80000000D03*
X134000000Y-90000000D03*
X134000000Y-87500000D03*
X134000000Y-85000000D03*
X127500000Y-79500000D03*
X125000000Y-79500000D03*
X122500000Y-79500000D03*
X130000000Y-77000000D03*
X132500000Y-74500000D03*
X135000000Y-73500000D03*
X137500000Y-73500000D03*
X140000000Y-73500000D03*
X142500000Y-73500000D03*
X145000000Y-73500000D03*
X145000000Y-77000000D03*
X142500000Y-77000000D03*
X140000000Y-77000000D03*
X137500000Y-77000000D03*
X135000000Y-77000000D03*
X132500000Y-79000000D03*
%TD*%
D15*
%TO.N,Net-(C1-Pad1)*%
X150200000Y-95000000D02*
X142500000Y-95000000D01*
X142000000Y-94500000D02*
X141480000Y-94500000D01*
X142500000Y-95000000D02*
X142000000Y-94500000D01*
X142500000Y-95000000D02*
X142000000Y-95500000D01*
X142000000Y-95500000D02*
X141480000Y-95500000D01*
D16*
%TO.N,GND*%
X150000000Y-92175000D02*
X146175000Y-92175000D01*
X150000000Y-97825000D02*
X146175000Y-97825000D01*
X150000000Y-72175000D02*
X146175000Y-72175000D01*
X150000000Y-77825000D02*
X146175000Y-77825000D01*
D17*
X120000000Y-88500000D02*
X122500000Y-88500000D01*
D16*
X135500000Y-92087500D02*
X135500000Y-91000000D01*
X135500000Y-97912500D02*
X135500000Y-99000000D01*
X127412500Y-81500000D02*
X129000000Y-81500000D01*
D17*
X127412500Y-84500000D02*
X129000000Y-84500000D01*
D16*
X119900000Y-91775000D02*
X122225000Y-91775000D01*
X122450000Y-92000000D02*
X122500000Y-92000000D01*
X122225000Y-91775000D02*
X122450000Y-92000000D01*
X122275000Y-78225000D02*
X122500000Y-78000000D01*
X119900000Y-78225000D02*
X122275000Y-78225000D01*
D15*
%TO.N,Net-(J1-Pad9)*%
X125587500Y-84500000D02*
X120000000Y-84500000D01*
%TO.N,Net-(J1-Pad3)*%
X125587500Y-81500000D02*
X120000000Y-81500000D01*
%TO.N,/rfin+*%
X136087500Y-94500000D02*
X135500000Y-93912500D01*
X140520000Y-94500000D02*
X136087500Y-94500000D01*
D18*
X132500000Y-92451103D02*
X132500000Y-82500000D01*
X133961397Y-93912500D02*
X132500000Y-92451103D01*
X135500000Y-93912500D02*
X133961397Y-93912500D01*
D15*
X130000000Y-80500000D02*
X120000000Y-80500000D01*
X130500000Y-80500000D02*
X130000000Y-80500000D01*
X132500000Y-82500000D02*
X130500000Y-80500000D01*
%TO.N,/rfin-*%
X136087500Y-95500000D02*
X135500000Y-96087500D01*
X140520000Y-95500000D02*
X136087500Y-95500000D01*
X120000000Y-83500000D02*
X130500000Y-83500000D01*
D18*
X131500000Y-94500000D02*
X131500000Y-84500000D01*
X131500000Y-84500000D02*
X130500000Y-83500000D01*
X133087500Y-96087500D02*
X131500000Y-94500000D01*
X135500000Y-96087500D02*
X133087500Y-96087500D01*
%TD*%
D19*
X140623000Y-87373000D02*
X136627000Y-87373000D01*
X136627000Y-83627000D01*
X140623000Y-83627000D01*
X140623000Y-87373000D01*
%TA.AperFunction,NonConductor*%
D20*
G36*
X140623000Y-87373000D02*
G01*
X136627000Y-87373000D01*
X136627000Y-83627000D01*
X140623000Y-83627000D01*
X140623000Y-87373000D01*
G37*
%TD.AperFunction*%
M02*
